<?xml version="1.0" standalone="no"?>
<!DOCTYPE svg PUBLIC "-//W3C//DTD SVG 1.1//EN" "http://www.w3.org/Graphics/SVG/1.1/DTD/svg11.dtd" >
<svg xmlns="http://www.w3.org/2000/svg" xmlns:xlink="http://www.w3.org/1999/xlink" version="1.1">
<metadata></metadata>
<defs>
<font id="corporate_s_extrabold" horiz-adv-x="1255" >
<font-face units-per-em="2048" ascent="1638" descent="-410" />
<missing-glyph horiz-adv-x="512" />
<glyph horiz-adv-x="0" />
<glyph horiz-adv-x="682" />
<glyph unicode=" "  horiz-adv-x="512" />
<glyph unicode="&#x09;" horiz-adv-x="512" />
<glyph unicode="&#xa0;" horiz-adv-x="512" />
<glyph unicode="!" horiz-adv-x="606" d="M96 158q0 76 59 126t148 50q92 0 150.5 -50.5t58.5 -129.5q0 -75 -59 -124.5t-150 -49.5t-149 50t-58 128zM119 1331h370l-32 -889h-310z" />
<glyph unicode="&#x22;" horiz-adv-x="968" d="M82 1366h348l-72 -547h-204zM539 1366h348l-72 -547h-203z" />
<glyph unicode="#" horiz-adv-x="1228" d="M8 379l35 225h207l31 182h-207l35 226h206l56 354h254l-58 -354h195l55 354h254l-55 -354h213l-33 -197h-211l-35 -211h213l-35 -225h-213l-61 -379h-252l60 379h-222l-59 -379h-225l59 379h-207zM504 604h192l31 182h-195z" />
<glyph unicode="$" d="M76 469h334q6 -116 60.5 -169.5t166.5 -53.5q82 0 128 29t46 83q0 59 -68 95q-44 21 -229 100q-196 81 -287 154q-57 45 -87.5 113.5t-30.5 146.5q0 139 81.5 242.5t223.5 146.5q45 12 114 20v162h211v-158q412 -49 406 -436h-334q0 92 -42.5 133t-137.5 41 q-73 0 -116.5 -28.5t-43.5 -75.5q0 -35 28 -59.5t103 -53.5q115 -43 237 -97.5t160 -78.5q94 -59 137.5 -136t43.5 -186q0 -184 -117 -294.5t-324 -122.5v-191h-211v189q-467 35 -452 485z" />
<glyph unicode="%" horiz-adv-x="1699" d="M41 1034q0 143 100 242.5t246 99.5q144 0 244 -99.5t100 -242.5q0 -145 -100 -243.5t-248 -98.5q-143 0 -242.5 100t-99.5 242zM293 1034q0 -66 25.5 -106.5t68.5 -40.5q41 0 66.5 40.5t25.5 106.5t-25.5 107t-66.5 41q-43 0 -68.5 -41t-25.5 -107zM311 0l791 1366h287 l-791 -1366h-287zM969 332q0 143 100 242.5t246 99.5q144 0 244 -99.5t100 -242.5q0 -145 -100 -243.5t-248 -98.5q-143 0 -242.5 100t-99.5 242zM1221 332q0 -66 25.5 -107t68.5 -41q41 0 66.5 41t25.5 107t-25.5 106.5t-66.5 40.5q-43 0 -68.5 -40.5t-25.5 -106.5z" />
<glyph unicode="&#x26;" horiz-adv-x="1335" d="M66 358q0 114 58.5 199t213.5 195q-86 109 -109.5 157t-23.5 117q0 140 108.5 230t278.5 90q172 0 278.5 -87t106.5 -227q0 -95 -47 -165.5t-176 -168.5l176 -213q31 66 31 152q0 15 -3 53h291q2 -148 -28 -251t-97 -181l217 -258h-368l-62 74q-152 -94 -350 -94 q-220 0 -357.5 104.5t-137.5 273.5zM401 365q0 -62 49.5 -101t127.5 -39q87 0 161 49l-223 265q-70 -61 -92.5 -95t-22.5 -79zM496 1044q0 -29 19 -60.5t71 -88.5q59 47 79.5 76.5t20.5 64.5q0 40 -25.5 63t-68.5 23q-41 0 -68.5 -22t-27.5 -56z" />
<glyph unicode="'" horiz-adv-x="512" d="M82 1366h348l-72 -547h-204z" />
<glyph unicode="(" horiz-adv-x="722" d="M113 477q0 530 284 889h299q-62 -83 -94 -140.5t-65 -142.5q-99 -261 -99 -596q0 -327 86 -577q33 -96 68.5 -162.5t103.5 -157.5h-299q-284 353 -284 887z" />
<glyph unicode=")" horiz-adv-x="722" d="M27 -410q68 93 104.5 160.5t67.5 159.5q86 260 86 569q0 308 -86 568q-31 91 -67 158.5t-105 160.5h299q284 -353 284 -887q0 -536 -284 -889h-299z" />
<glyph unicode="*" horiz-adv-x="1024" d="M111 999l63 199l244 -90l-10 258h208l-12 -258l244 90l63 -199l-247 -69l159 -203l-168 -123l-143 215l-143 -215l-170 123l159 203z" />
<glyph unicode="+" d="M141 553v260h351v367h272v-367h350v-260h-350v-369h-272v369h-351z" />
<glyph unicode="," horiz-adv-x="573" d="M10 -387q103 110 151.5 200t57.5 187q-72 12 -114 54.5t-42 103.5q0 75 59.5 125.5t149.5 50.5q100 0 160 -63t60 -167q0 -106 -62.5 -224.5t-196.5 -266.5h-223z" />
<glyph unicode="-" horiz-adv-x="647" d="M0 399v234h647v-234h-647z" />
<glyph unicode="." horiz-adv-x="579" d="M82 158q0 76 59 126t148 50q92 0 150.5 -50.5t58.5 -129.5q0 -75 -59 -124.5t-150 -49.5t-149 50t-58 128z" />
<glyph unicode="/" horiz-adv-x="1157" d="M-57 -410l823 1776h289l-824 -1776h-288z" />
<glyph unicode="0" d="M76 676q0 315 148.5 498.5t404.5 183.5q258 0 404.5 -184t146.5 -508t-146.5 -508.5t-404.5 -184.5q-261 0 -407 185t-146 518zM428 670q0 -197 61 -332q47 -92 140 -92q90 0 137 92q61 131 61 328q0 203 -61 325q-49 94 -139 94t-138 -92q-61 -128 -61 -323z" />
<glyph unicode="1" d="M266 907v203q163 -2 237.5 48t102.5 179h258v-1337h-352v907h-246z" />
<glyph unicode="2" d="M131 0v244q14 15 455 477q97 103 126 149t29 97q0 54 -34.5 85t-94.5 31q-75 0 -111.5 -41t-45.5 -133h-303v31q0 193 132 305.5t359 112.5q215 0 343 -99.5t128 -265.5q0 -141 -114.5 -294.5t-407.5 -405.5h528v-293h-989z" />
<glyph unicode="3" d="M82 395v27h324q2 -86 46 -127t138 -41q88 0 136 41.5t48 116.5q0 110 -94 135q-30 7 -56.5 8.5t-129.5 3.5v270q16 -2 34 -2q213 0 213 146q0 54 -36.5 83t-102.5 29q-151 0 -160 -133h-307q3 111 33.5 183.5t97.5 124.5q128 98 361 98q218 0 342.5 -99t124.5 -272 q0 -195 -174 -272q206 -65 206 -305q0 -201 -143 -319t-387 -118q-247 0 -380.5 109.5t-133.5 312.5z" />
<glyph unicode="4" d="M45 262v240l553 835h375v-809h244v-266h-244v-262h-328v262h-600zM379 528h280v486z" />
<glyph unicode="5" d="M102 410h332q12 -81 53.5 -118.5t118.5 -37.5q89 0 140 56t51 153q0 92 -48 145.5t-131 53.5q-59 0 -99 -21.5t-99 -83.5l-293 39l152 735h782l-21 -280h-497l-33 -148q82 25 164 25q214 0 344.5 -124t130.5 -327q0 -114 -45 -215.5t-125 -169.5q-143 -119 -373 -119 q-283 0 -418 170q-43 54 -62.5 114t-23.5 153z" />
<glyph unicode="6" d="M96 481q0 271 260 586q70 84 267 285h395q-165 -185 -213 -241t-135 -167q14 2 30 2q197 0 327 -133t130 -334q0 -224 -147.5 -365t-382.5 -141q-236 0 -383.5 141t-147.5 367zM449 471q0 -97 49 -157t127 -60q83 0 131.5 59t48.5 158q0 97 -49 156t-129 59 q-81 0 -129.5 -59t-48.5 -156z" />
<glyph unicode="7" d="M115 0l637 1038h-602v293h1032v-223l-678 -1108h-389z" />
<glyph unicode="8" d="M96 395q0 111 48.5 190.5t140.5 119.5q-162 74 -162 260q0 175 140 284t366 109q227 0 366.5 -107t139.5 -282q0 -96 -39 -159.5t-123 -104.5q188 -78 188 -306q0 -194 -144.5 -310t-387.5 -116q-241 0 -387 115.5t-146 306.5zM449 403q0 -71 49 -114t131 -43 q83 0 131.5 44t48.5 116q0 75 -47.5 118t-130.5 43q-85 0 -133.5 -44t-48.5 -120zM475 958q0 -63 41.5 -100t112.5 -37q70 0 111.5 37t41.5 100q0 62 -42 101t-109 39q-70 0 -113 -38.5t-43 -101.5z" />
<glyph unicode="9" d="M98 852q0 224 148 365t383 141q236 0 383 -141t147 -367q0 -274 -260 -586q-84 -100 -266 -284h-395q115 128 172 193t82 95.5t94 116.5h-31q-197 0 -327 133t-130 334zM451 860q0 -97 49 -156t129 -59q81 0 129.5 59t48.5 156t-49 157t-127 60q-83 0 -131.5 -59 t-48.5 -158z" />
<glyph unicode=":" horiz-adv-x="579" d="M82 158q0 76 59 126t148 50q92 0 150.5 -50.5t58.5 -129.5q0 -75 -59 -124.5t-150 -49.5t-149 50t-58 128zM82 817q0 76 59 126t148 50q92 0 150.5 -50.5t58.5 -129.5q0 -75 -59 -124.5t-150 -49.5t-149 50t-58 128z" />
<glyph unicode=";" horiz-adv-x="573" d="M10 -387q103 110 151.5 200t57.5 187q-72 12 -114 54.5t-42 103.5q0 75 59.5 125.5t149.5 50.5q100 0 160 -63t60 -167q0 -106 -62.5 -224.5t-196.5 -266.5h-223zM63 817q0 76 59 126t148 50q92 0 150.5 -50.5t58.5 -129.5q0 -75 -59 -124.5t-150 -49.5t-149 50t-58 128z " />
<glyph unicode="&#x3c;" horiz-adv-x="1024" d="M68 535v317l886 489v-378l-485 -271l485 -272v-375z" />
<glyph unicode="=" d="M141 369v260h973v-260h-973zM141 737v260h973v-260h-973z" />
<glyph unicode="&#x3e;" horiz-adv-x="1024" d="M68 45v379l485 270l-483 273v374l884 -489v-317z" />
<glyph unicode="?" horiz-adv-x="974" d="M78 936q3 125 26 192.5t80 118.5q114 105 330 105q190 0 301 -89t111 -241q0 -88 -35.5 -149.5t-142.5 -161.5q-83 -78 -99 -108t-16 -105q0 -35 2 -74h-330v53v43q0 83 12 130t43.5 89.5t104.5 110.5q65 58 85.5 88.5t20.5 67.5q0 38 -25.5 62t-66.5 24q-57 0 -82 -35.5 t-26 -120.5h-293zM266 158q0 76 59 126t148 50q92 0 150.5 -50.5t58.5 -129.5q0 -75 -59 -124.5t-150 -49.5t-149 50t-58 128z" />
<glyph unicode="@" horiz-adv-x="1501" d="M63 670q0 152 55 286.5t150.5 230t229.5 151t286 55.5q187 0 337 -78.5t234.5 -217.5t84.5 -313q0 -126 -47.5 -240t-126.5 -182.5t-166 -68.5q-116 0 -158 131q-50 -68 -108 -99.5t-136 -31.5q-134 0 -218.5 91.5t-84.5 236.5q0 166 107.5 288.5t253.5 122.5 q137 0 202 -106l17 84h176l-78 -398q-14 -77 -14 -94q0 -38 14 -60t37 -22q64 0 120 110t56 238q0 204 -137.5 329.5t-360.5 125.5q-240 0 -393 -160q-162 -167 -162 -411q0 -116 39.5 -218t112.5 -178q77 -75 180 -110t250 -35q176 0 363 66l39 -156q-186 -64 -406 -64 q-334 0 -532 183q-103 95 -159.5 230t-56.5 284zM594 621q0 -75 38.5 -118.5t104.5 -43.5q75 0 125.5 68t50.5 169q0 75 -34 117.5t-95 42.5q-78 0 -134 -69t-56 -166z" />
<glyph unicode="A" horiz-adv-x="1368" d="M0 0l510 1366h346l512 -1366h-377l-88 270h-438l-90 -270h-375zM553 543h260l-129 463z" />
<glyph unicode="B" horiz-adv-x="1331" d="M158 0v1366h426q157 0 249 -12t156 -41q94 -43 144.5 -121.5t50.5 -179.5q0 -210 -203 -277q283 -68 283 -332q0 -133 -78.5 -231t-218.5 -139q-111 -33 -402 -33h-407zM512 266h125q81 0 117 4.5t63 16.5q78 38 78 137q0 114 -104 145q-40 13 -168 13h-111v-316z M512 834h102q119 0 167 30t48 105q0 94 -77 118q-33 13 -140 13h-100v-266z" />
<glyph unicode="C" horiz-adv-x="1368" d="M68 682q0 178 59 326t168 245q162 144 432 144q161 0 285.5 -52.5t199.5 -150.5q50 -65 72 -133.5t23 -167.5h-320q-17 107 -82.5 165t-169.5 58q-138 0 -215.5 -115.5t-77.5 -324.5q0 -201 76 -313.5t211 -112.5q232 0 262 287h334q-3 -119 -29 -201.5t-84 -157.5 q-80 -101 -206 -155t-285 -54q-292 0 -459 170q-94 95 -144 236t-50 307z" />
<glyph unicode="D" horiz-adv-x="1454" d="M158 0v1366h393q207 0 334.5 -27.5t224.5 -93.5q135 -92 207 -236.5t72 -324.5q0 -209 -96.5 -370.5t-268.5 -241.5q-160 -72 -473 -72h-393zM520 281h109q103 0 169.5 19t110.5 62q50 47 77.5 132t27.5 190q0 122 -37 212.5t-103 135.5q-79 53 -245 53h-109v-804z" />
<glyph unicode="E" horiz-adv-x="1210" d="M158 0v1366h989v-281h-627v-239h570v-281h-570v-284h651v-281h-1013z" />
<glyph unicode="F" horiz-adv-x="1159" d="M158 0v1366h989v-281h-627v-239h570v-281h-570v-565h-362z" />
<glyph unicode="G" horiz-adv-x="1431" d="M68 680q0 326 187.5 521.5t500.5 195.5q151 0 276 -51.5t197 -143.5q48 -62 70 -132t26 -177h-321q-29 223 -242 223q-150 0 -235 -117t-85 -323t85 -316t243 -110q67 0 123 17t129 59v159h-240v252h561v-555q-150 -114 -286.5 -163.5t-298.5 -49.5q-316 0 -503 192.5 t-187 518.5z" />
<glyph unicode="H" horiz-adv-x="1521" d="M158 0v1366h362v-520h484v520h362v-1366h-362v573h-484v-573h-362z" />
<glyph unicode="I" horiz-adv-x="675" d="M158 0v1366h362v-1366h-362z" />
<glyph unicode="J" horiz-adv-x="792" d="M0 -41q127 3 163.5 9.5t65.5 29.5q28 25 36.5 63t8.5 138v1167h363v-1124q0 -186 -22 -275.5t-83 -152.5q-123 -129 -430 -129q-57 0 -102 2v272z" />
<glyph unicode="K" horiz-adv-x="1423" d="M158 0v1366h362v-555l465 555h422l-569 -639l602 -727h-455l-465 629v-629h-362z" />
<glyph unicode="L" horiz-adv-x="1148" d="M158 0v1366h362v-1085h623v-281h-985z" />
<glyph unicode="M" horiz-adv-x="1853" d="M158 0v1366h491l283 -950l278 950h486v-1366h-328v907l-281 -907h-325l-277 907v-907h-327z" />
<glyph unicode="N" horiz-adv-x="1540" d="M158 0v1366h370l508 -846v846h348v-1366h-354l-524 856v-856h-348z" />
<glyph unicode="O" horiz-adv-x="1517" d="M68 694q0 167 59 308.5t166 232.5q194 162 467 162q274 0 465 -162q110 -94 167.5 -235t57.5 -316q0 -359 -225 -553q-91 -78 -211.5 -120t-253.5 -42q-275 0 -467 162q-225 194 -225 563zM442 688q0 -207 83.5 -322.5t234.5 -115.5q148 0 231.5 114.5t83.5 317.5 q0 204 -84 319t-233 115q-147 0 -231.5 -114.5t-84.5 -313.5z" />
<glyph unicode="P" horiz-adv-x="1265" d="M158 0v1366h391q214 0 313 -12.5t172 -48.5q106 -52 162.5 -151.5t56.5 -231.5q0 -151 -72 -254.5t-210 -147.5q-64 -21 -137.5 -28t-235.5 -7h-78v-485h-362zM520 758h80q90 0 133 5t76 19q76 42 76 142q0 118 -103 153q-44 15 -172 15h-90v-334z" />
<glyph unicode="Q" horiz-adv-x="1593" d="M68 684q0 321 190 517t502 196q310 0 500 -195.5t190 -513.5q0 -179 -68 -342l275 -346h-387l-88 127q-181 -158 -430 -158q-129 0 -248.5 42t-210.5 120q-110 94 -167.5 235t-57.5 318zM442 688q0 -207 83.5 -322.5t234.5 -115.5q148 0 231.5 114.5t83.5 317.5 q0 204 -84 319t-233 115q-147 0 -231.5 -114.5t-84.5 -313.5z" />
<glyph unicode="R" horiz-adv-x="1335" d="M158 0v1366h413q210 0 322 -21.5t190 -76.5q172 -119 172 -342q0 -135 -62.5 -226t-191.5 -145l336 -555h-417l-275 496h-125v-496h-362zM520 768h96q149 0 210 38t61 130q0 105 -90 141q-47 17 -166 17h-111v-326z" />
<glyph unicode="S" horiz-adv-x="1247" d="M61 446v23h334q10 -120 67.5 -172.5t176.5 -52.5q87 0 135.5 29t48.5 83q0 61 -67 97q-35 20 -230 104q-221 95 -311 189.5t-90 232.5q0 192 144 305t388 113q184 0 307 -57.5t173 -165.5q23 -49 31 -96t8 -134h-334q-1 95 -45.5 136.5t-143.5 41.5q-80 0 -123 -27.5 t-43 -78.5q0 -47 43 -74q30 -16 218 -96q142 -61 199.5 -91.5t109.5 -72.5q135 -110 135 -289q0 -195 -150.5 -309.5t-408.5 -114.5q-278 0 -425 122.5t-147 354.5z" />
<glyph unicode="T" horiz-adv-x="1132" d="M6 1085v281h1120v-281h-378v-1085h-363v1085h-379z" />
<glyph unicode="U" horiz-adv-x="1497" d="M143 592v774h363v-786q0 -101 4.5 -143.5t19.5 -74.5q26 -52 84.5 -82t135.5 -30q88 0 148.5 38t80.5 107q12 42 12 185v786h363v-774q0 -185 -22.5 -272t-88.5 -164q-166 -187 -493 -187q-189 0 -329 64t-210 184q-40 67 -54 142.5t-14 232.5z" />
<glyph unicode="V" horiz-adv-x="1390" d="M0 1366h399l301 -991l318 991h373l-523 -1366h-352z" />
<glyph unicode="W" horiz-adv-x="1937" d="M0 1366h365l221 -975l233 975h318l219 -975l243 975h338l-372 -1366h-383l-209 805l-217 -805h-381z" />
<glyph unicode="X" horiz-adv-x="1355" d="M0 0l479 711l-442 655h418l231 -391l232 391h413l-448 -661l473 -705h-418l-262 440l-264 -440h-412z" />
<glyph unicode="Y" horiz-adv-x="1290" d="M-27 1366h410l270 -530l262 530h404l-492 -827v-539h-362v539z" />
<glyph unicode="Z" horiz-adv-x="1150" d="M39 0v238l623 847h-560v281h1012v-221l-633 -864h611v-281h-1053z" />
<glyph unicode="[" horiz-adv-x="722" d="M160 -410v1776h514v-246h-203v-1284h203v-246h-514z" />
<glyph unicode="\" horiz-adv-x="1157" d="M102 1366h289l823 -1776h-288z" />
<glyph unicode="]" horiz-adv-x="722" d="M49 -164h203v1284h-203v246h514v-1776h-514v246z" />
<glyph unicode="^" horiz-adv-x="1024" d="M14 692l287 682h422l287 -682h-332l-166 428l-166 -428h-332z" />
<glyph unicode="_" horiz-adv-x="1024" d="M0 -100h1024v-222h-1024v222z" />
<glyph unicode="`" horiz-adv-x="1024" d="M12 1419h422l281 -321h-273z" />
<glyph unicode="a" horiz-adv-x="1150" d="M57 254q0 202 271 287q103 32 366 69q0 90 -25.5 120t-101.5 30q-63 0 -94 -21.5t-37 -68.5h-334q7 92 36 146.5t89 96.5q124 84 351 84q285 0 389 -129q34 -43 47.5 -101.5t13.5 -162.5v-368q0 -93 10.5 -138t44.5 -98h-338q-9 56 -14 102q-67 -68 -135.5 -95 t-169.5 -27q-167 0 -268 75t-101 199zM401 301q0 -39 34.5 -62.5t92.5 -23.5q88 0 127 41t39 133v29q-173 -18 -219 -35q-74 -27 -74 -82z" />
<glyph unicode="b" horiz-adv-x="1230" d="M104 0q20 55 23.5 94.5t3.5 204.5v1067h348v-473q59 55 117 77.5t137 22.5q192 0 316.5 -142t124.5 -362q0 -226 -129.5 -367.5t-335.5 -141.5q-88 0 -151 24t-114 78q-4 -22 -16 -82h-324zM475 489q0 -114 47 -181.5t125 -67.5t125 67.5t47 179.5q0 111 -47 178.5 t-125 67.5q-77 0 -124.5 -67.5t-47.5 -176.5z" />
<glyph unicode="c" horiz-adv-x="1124" d="M57 485q0 232 146 372t387 140q217 0 341.5 -97t133.5 -275h-334q-18 127 -139 127q-85 0 -132.5 -71.5t-47.5 -197.5q0 -124 46.5 -193t129.5 -69q66 0 98.5 35.5t44.5 118.5h334q-6 -194 -130 -297t-351 -103q-241 0 -384 138.5t-143 371.5z" />
<glyph unicode="d" horiz-adv-x="1230" d="M57 489q0 220 124.5 362t316.5 142q79 0 137 -22.5t117 -77.5v473h348v-1067q0 -168 3 -206.5t23 -92.5h-323q-2 10 -5.5 24.5t-6 28t-5.5 29.5q-51 -54 -113.5 -78t-150.5 -24q-206 0 -335.5 141.5t-129.5 367.5zM412 487q0 -112 47 -179.5t125 -67.5q77 0 124.5 67 t47.5 176q0 114 -47 182t-125 68t-125 -67.5t-47 -178.5z" />
<glyph unicode="e" horiz-adv-x="1165" d="M57 481q0 232 148.5 374t390.5 142q232 0 371 -140.5t139 -375.5q0 -42 -2 -71h-703q3 -91 55.5 -140t147.5 -49q123 0 176 88l316 -10q-44 -157 -175 -240.5t-331 -83.5q-243 0 -388 138t-145 368zM406 621h346q-10 75 -50.5 110t-115.5 35q-143 0 -180 -145z" />
<glyph unicode="f" horiz-adv-x="716" d="M6 733v240h150v28q0 122 22.5 190.5t77.5 115.5q97 84 268 84q94 0 232 -25v-246q-103 15 -162 15q-71 0 -90 -54q-6 -20 -6 -108h215v-240h-209v-733h-348v733h-150z" />
<glyph unicode="g" horiz-adv-x="1116" d="M-2 -156q0 76 38 128.5t124 93.5q-70 46 -70 135q0 130 150 186q-74 46 -108 105t-34 141q0 164 124 262t331 98q81 0 203 -20h372v-219h-172q31 -58 31 -127q0 -94 -49.5 -164.5t-140.5 -104.5q-59 -24 -104 -31.5t-193 -17.5q-97 -6 -97 -53q0 -33 46 -43 q46 -7 157 -14q236 -19 332 -70q72 -37 110.5 -102t38.5 -148q0 -160 -143.5 -248t-404.5 -88q-252 0 -396.5 80.5t-144.5 220.5zM305 -139q0 -90 238 -90q237 0 237 90t-235 90q-240 0 -240 -90zM406 655q0 -54 36 -84t101 -30t101 30t36 84q0 53 -36 84t-99 31 q-66 0 -102.5 -30.5t-36.5 -84.5z" />
<glyph unicode="h" horiz-adv-x="1234" d="M129 0v1366h348v-473q59 53 125.5 76.5t155.5 23.5q206 0 303 -141q34 -50 45.5 -109.5t11.5 -183.5v-559h-348v506q0 114 -18 151q-36 70 -119 70q-95 0 -135 -84q-21 -49 -21 -151v-492h-348z" />
<glyph unicode="i" horiz-adv-x="608" d="M109 1225q0 75 55.5 123.5t144.5 48.5q84 0 137.5 -47t53.5 -121q0 -77 -53.5 -123.5t-141.5 -46.5q-89 0 -142.5 45.5t-53.5 120.5zM131 0v973h348v-973h-348z" />
<glyph unicode="j" horiz-adv-x="628" d="M-80 -162q25 -2 62 -2q70 0 107.5 19.5t51.5 62.5q6 19 7.5 44t1.5 122v889h348v-889q0 -111 -6.5 -166t-26.5 -104q-49 -129 -161.5 -186.5t-313.5 -57.5q-39 0 -70 2v266zM127 1225q0 77 55.5 124.5t145.5 47.5q86 0 138 -46.5t52 -121.5q0 -77 -53 -123.5t-141 -46.5 q-89 0 -143 45.5t-54 120.5z" />
<glyph unicode="k" horiz-adv-x="1230" d="M129 0v1366h348v-784l314 391h421l-417 -453l448 -520h-452l-314 444v-444h-348z" />
<glyph unicode="l" horiz-adv-x="608" d="M129 0v1366h348v-1366h-348z" />
<glyph unicode="m" horiz-adv-x="1837" d="M88 973h338q17 -40 29 -82q66 56 130 79t152 23q106 0 177.5 -34t127.5 -111q56 75 133 110t187 35q241 0 319 -153q23 -44 31 -101t8 -184v-555h-348v555q0 58 -4.5 83t-17.5 44q-36 45 -105 45q-76 0 -111.5 -43t-35.5 -135v-549h-348v539q0 110 -26.5 149t-98.5 39 q-79 0 -113.5 -45.5t-34.5 -149.5v-532h-348v729q0 105 -6.5 143.5t-34.5 100.5z" />
<glyph unicode="n" horiz-adv-x="1220" d="M88 973h338q18 -39 25 -82q61 55 125.5 78.5t152.5 23.5q122 0 214 -50.5t130 -139.5q19 -41 25 -93.5t6 -164.5v-545h-348v506q0 115 -17 156q-12 31 -42 48t-70 17q-93 0 -131 -80q-19 -42 -19 -147v-500h-348v618q0 171 -6 223.5t-35 131.5z" />
<glyph unicode="o" horiz-adv-x="1210" d="M57 494q0 142 71 257.5t196.5 180.5t279.5 65q238 0 392.5 -144.5t154.5 -365.5q0 -223 -154.5 -367.5t-390.5 -144.5q-243 0 -396 145t-153 374zM412 489q0 -120 53 -194t139 -74t139.5 73.5t53.5 192.5q0 117 -53.5 191t-139.5 74q-85 0 -138.5 -73.5t-53.5 -189.5z " />
<glyph unicode="p" horiz-adv-x="1230" d="M104 973h324q12 -60 16 -82q51 54 114 78t151 24q206 0 335.5 -142t129.5 -368q0 -220 -124.5 -361.5t-316.5 -141.5q-79 0 -137 22.5t-117 77.5v-510h-348v1104q0 165 -3.5 204.5t-23.5 94.5zM475 489q0 -114 47 -181.5t125 -67.5t125 67.5t47 179.5q0 111 -47 178.5 t-125 67.5q-77 0 -124.5 -67.5t-47.5 -176.5z" />
<glyph unicode="q" horiz-adv-x="1230" d="M57 483q0 226 129.5 368t335.5 142q88 0 150.5 -24t113.5 -78q3 16 5.5 29.5t6 28t5.5 24.5h323q-20 -54 -23 -92.5t-3 -206.5v-1104h-348v510q-59 -55 -117 -77.5t-137 -22.5q-192 0 -316.5 141.5t-124.5 361.5zM412 487q0 -112 47 -179.5t125 -67.5q77 0 124.5 67 t47.5 176q0 114 -47 182t-125 68t-125 -67.5t-47 -178.5z" />
<glyph unicode="r" horiz-adv-x="847" d="M104 973h342q19 -65 19 -133q57 86 112 119.5t140 33.5q54 0 125 -20v-324q-56 42 -94.5 59t-77.5 17q-53 0 -95 -33t-67 -94q-29 -77 -29 -240v-358h-348v664v96q-2 83 -6 119t-21 94z" />
<glyph unicode="s" horiz-adv-x="1054" d="M57 303v25h322q3 -68 37 -94.5t119 -26.5q129 0 129 65q0 23 -22 39t-75 31q-165 46 -238.5 71.5t-117.5 53.5q-123 81 -123 223q0 146 119.5 226.5t335.5 80.5q223 0 332.5 -82t109.5 -249h-321q0 52 -30.5 76t-98.5 24q-51 0 -81 -17.5t-30 -46.5t27 -42t188 -60 q181 -51 258 -108q47 -35 73.5 -91.5t26.5 -121.5q0 -148 -121 -226t-350 -78t-349 84t-120 244z" />
<glyph unicode="t" horiz-adv-x="770" d="M6 733v240h160l2 268h340l-2 -268h209v-240h-211l-2 -330v-22q0 -85 15.5 -112t62.5 -27q30 0 62.5 9.5t100.5 39.5v-258q-136 -58 -268 -58q-207 0 -282 129q-23 38 -31 88t-8 148v22l2 371h-150z" />
<glyph unicode="u" horiz-adv-x="1234" d="M117 426v547h348v-541q0 -97 20 -133q37 -53 115 -53q82 0 120 51t38 160v516h348v-660q0 -157 5 -196t36 -117h-338q-13 32 -21 82q-105 -102 -286 -102q-115 0 -201.5 41t-132.5 116q-28 48 -39.5 112.5t-11.5 176.5z" />
<glyph unicode="v" horiz-adv-x="1099" d="M-20 973h372l199 -631l211 631h358l-395 -973h-356z" />
<glyph unicode="w" horiz-adv-x="1644" d="M-6 973h362l150 -602l176 602h281l176 -602l164 602h350l-314 -973h-348l-174 516l-168 -516h-348z" />
<glyph unicode="x" horiz-adv-x="1189" d="M-14 0l407 524l-356 449h414l149 -221l141 221h412l-358 -463l407 -510h-418l-196 287l-185 -287h-417z" />
<glyph unicode="y" horiz-adv-x="1089" d="M-20 973h370l197 -656l205 656h358l-365 -932q-73 -189 -118 -262.5t-117 -124.5q-67 -45 -148 -64.5t-204 -19.5q-18 0 -140 4v256h66q100 0 147 10.5t74 37.5t53 91z" />
<glyph unicode="z" horiz-adv-x="964" d="M27 0v221l446 506h-393v246h833v-215l-450 -512h459v-246h-895z" />
<glyph unicode="{" horiz-adv-x="722" d="M72 362v232q62 14 87 53.5t25 124.5v277q0 85 11 134.5t38 84.5q36 54 100 76t177 22q70 0 170 -4v-246q-18 2 -39 2q-69 0 -101 -10.5t-44 -38.5q-11 -32 -11 -121v-200q0 -113 -25 -166t-100 -103q76 -51 100.5 -104t24.5 -166v-201q0 -71 3.5 -94t15.5 -41 q22 -35 137 -35q21 0 39 2v-246l-55 -2q-59 -2 -125 -2q-177 0 -246.5 70.5t-69.5 247.5v276q0 85 -25 124.5t-87 53.5z" />
<glyph unicode="|" horiz-adv-x="1024" d="M319 -342v1708h383v-1708h-383z" />
<glyph unicode="}" horiz-adv-x="722" d="M43 -160q18 -2 41 -2q69 0 101 10.5t44 36.5q11 32 11 123v201q0 113 24.5 166t100.5 104q-75 50 -100 103t-25 166v200q0 71 -3.5 94t-15.5 41q-25 35 -137 35q-23 0 -41 -2v246l57 2q59 2 125 2q177 0 246.5 -70t69.5 -247v-277q0 -85 24.5 -125t85.5 -53v-232 q-61 -13 -85.5 -53t-24.5 -125v-276q0 -85 -11 -134.5t-38 -84.5q-37 -54 -100.5 -76.5t-176.5 -22.5q-70 0 -172 4v246z" />
<glyph unicode="~" horiz-adv-x="1366" d="M188 1255q61 158 138 231t180 73q43 0 93 -15.5t208 -77.5q44 -14 70 -14q37 0 64.5 25t59.5 88l183 -154q-67 -164 -140.5 -232.5t-181.5 -68.5q-42 0 -83 11.5t-146 52.5q-97 40 -141 40q-34 0 -61.5 -25.5t-59.5 -86.5z" />
<glyph unicode="&#xa1;" horiz-adv-x="606" d="M96 819q0 75 59 124.5t150 49.5t149 -50t58 -128q0 -76 -59 -126t-148 -50q-92 0 -150.5 50.5t-58.5 129.5zM119 -358l33 888h309l28 -888h-370z" />
<glyph unicode="&#xa2;" d="M125 717q0 201 111.5 334.5t306.5 167.5v155h211v-153q175 -22 273 -117t103 -246h-333q-9 60 -44.5 91.5t-93.5 31.5q-83 0 -131.5 -71.5t-48.5 -194.5q0 -122 45.5 -189t128.5 -67q66 0 100 34t44 113h333q-2 -162 -101 -264.5t-275 -122.5v-196h-211v198 q-193 29 -305.5 162.5t-112.5 333.5z" />
<glyph unicode="&#xa3;" d="M-18 -20q92 100 149 240t98 370h-147v244h194q26 132 52 211.5t65 146.5q114 194 393 194q201 0 302.5 -93t105.5 -285h-307q-3 54 -26.5 79t-69.5 25q-68 0 -99 -55t-59 -223h285v-244h-334q-26 -127 -44.5 -182.5t-56.5 -124.5q79 12 152 12q59 0 156 -10q16 -2 45 -2 q43 0 54 25t11 120h293q4 -37 4 -76q0 -180 -81.5 -276t-235.5 -96q-64 0 -166 10q-209 24 -344 24q-205 0 -389 -34z" />
<glyph unicode="&#xa4;" horiz-adv-x="1488" d="M66 221l213 213q-68 127 -68 258t76 269l-219 217l194 196l223 -223q76 37 134 52.5t126 15.5t124.5 -14.5t131.5 -51.5l220 217l194 -192l-215 -213q78 -136 78 -273q0 -125 -68 -258l213 -213l-192 -194l-211 211q-135 -78 -268 -78q-136 0 -281 78l-213 -209zM543 694 q0 -85 59 -145t143 -60q85 0 144 60t59 145t-58.5 145t-141.5 60q-86 0 -145.5 -59.5t-59.5 -145.5z" />
<glyph unicode="&#xa5;" d="M18 1366h390l229 -530l213 530h389l-205 -389h140v-219h-254l-64 -123h297v-219h-348v-416h-352v416h-349v219h297l-63 123h-254v219h139z" />
<glyph unicode="&#xa6;" horiz-adv-x="1024" d="M319 313h383v-655h-383v655zM319 627v739h383v-739h-383z" />
<glyph unicode="&#xa7;" horiz-adv-x="1124" d="M59 580q0 77 37.5 135.5t132.5 130.5q-58 52 -82 101t-24 114q0 152 122.5 242t329.5 90q266 0 373 -138q37 -47 51.5 -103.5t14.5 -152.5h-291q-6 79 -41.5 113.5t-110.5 34.5q-57 0 -88.5 -22t-31.5 -60q0 -28 12 -41q21 -22 164 -91q23 -12 73 -36q150 -71 186 -91.5 t79 -53.5q100 -77 100 -207q0 -85 -38 -146.5t-130 -124.5q64 -52 92.5 -109t28.5 -132q0 -161 -124.5 -250.5t-348.5 -89.5q-239 0 -357.5 96.5t-119.5 294.5v31h299q1 -94 44 -135t138 -41q69 0 105 24t36 68q0 35 -25 58t-102 58q-269 120 -364 189q-140 103 -140 244z M387 594q0 -33 19 -56t71.5 -52.5t171.5 -82.5q50 35 69 60.5t19 56.5q0 30 -18.5 51.5t-70 50.5t-175.5 87q-49 -32 -67.5 -56.5t-18.5 -58.5z" />
<glyph unicode="&#xa8;" horiz-adv-x="1024" d="M117 1257q0 64 52.5 109t127.5 45q71 0 122.5 -45t51.5 -106q0 -64 -52 -109t-124 -45q-73 0 -125.5 44.5t-52.5 106.5zM553 1257q0 64 52 109t126 45q72 0 124 -44.5t52 -106.5q0 -64 -52 -109t-126 -45q-72 0 -124 44t-52 107z" />
<glyph unicode="&#xa9;" horiz-adv-x="1562" d="M68 682q0 196 96 360.5t262.5 259.5t364.5 95q142 0 272 -57t224.5 -153t151 -228.5t56.5 -276.5q0 -145 -56.5 -277t-152 -227.5t-227.5 -152t-277 -56.5q-193 0 -357.5 95.5t-260.5 260t-96 357.5zM225 682q0 -154 74.5 -284.5t203 -206.5t279.5 -76t279 76t202 206.5 t74 284.5q0 153 -74.5 284t-201 208t-273.5 77q-116 0 -220.5 -44.5t-179.5 -120t-119 -181t-44 -223.5zM395 690q0 187 104 296.5t283 109.5q161 0 251 -77t93 -218h-198q-18 125 -140 125q-77 0 -120 -63t-43 -177q0 -109 42 -170t117 -61q66 0 102.5 39t45.5 120h205 q-3 -158 -97 -243.5t-262 -85.5q-177 0 -280 109t-103 296z" />
<glyph unicode="&#xaa;" horiz-adv-x="710" d="M20 514v156h662v-156h-662zM29 934q0 122 170 174q91 25 223 41q1 45 -14 61.5t-58 16.5q-39 0 -56 -12t-22 -41h-217q9 107 81 156.5t220 49.5q182 0 244 -77q23 -28 32 -63.5t9 -98.5v-219q0 -57 7 -83t32 -61h-225q-6 29 -9 53q-40 -35 -82 -50t-102 -15 q-106 0 -169.5 46t-63.5 122zM252 961q0 -20 20.5 -33t53.5 -13q52 0 74 23t22 76v10q-101 -9 -135.5 -22t-34.5 -41z" />
<glyph unicode="&#xab;" horiz-adv-x="1171" d="M41 471l250 502h299l-207 -500l207 -473h-299zM508 471l250 502h297l-207 -500l209 -473h-299z" />
<glyph unicode="&#xac;" horiz-adv-x="1024" d="M68 274v334h886v-608h-370v274h-516z" />
<glyph unicode="&#xad;" horiz-adv-x="647" d="M0 399v234h647v-234h-647z" />
<glyph unicode="&#xae;" horiz-adv-x="1562" d="M68 682q0 196 96 360.5t262.5 259.5t364.5 95q142 0 272 -57t224.5 -153t151 -228.5t56.5 -276.5q0 -145 -56.5 -277t-152 -227.5t-227.5 -152t-277 -56.5q-193 0 -357.5 95.5t-260.5 260t-96 357.5zM225 682q0 -154 74.5 -284.5t203 -206.5t279.5 -76t279 76t202 206.5 t74 284.5q0 153 -74.5 284t-201 208t-273.5 77q-116 0 -220.5 -44.5t-179.5 -120t-119 -181t-44 -223.5zM471 301v778h246q121 0 187 -12t112 -43q102 -71 102 -199q0 -150 -143 -211l168 -313h-256l-131 277h-64v-277h-221zM692 743h49q85 0 118.5 19.5t33.5 68.5 q0 47 -30 64.5t-113 17.5h-58v-170z" />
<glyph unicode="&#xaf;" horiz-adv-x="1024" d="M143 1161v195h740v-195h-740z" />
<glyph unicode="&#xb0;" horiz-adv-x="1024" d="M176 1044q0 141 98.5 240.5t239.5 99.5t238.5 -99t97.5 -243q0 -137 -99 -235t-237 -98q-140 0 -239 98t-99 237zM319 1047q0 -80 57.5 -138.5t135.5 -58.5t136.5 57t58.5 135q0 84 -57 142.5t-140 58.5q-77 0 -134 -58.5t-57 -137.5z" />
<glyph unicode="&#xb1;" d="M141 0v260h973v-260h-973zM141 737v260h351v369h272v-369h350v-260h-350v-366h-272v366h-351z" />
<glyph unicode="&#xb2;" horiz-adv-x="813" d="M80 532v152q51 51 282 285q62 63 79.5 88.5t17.5 54.5t-20.5 46.5t-55.5 17.5q-45 0 -66.5 -24t-25.5 -81h-199v25q0 117 83 184.5t228 67.5q135 0 216 -60.5t81 -161.5q0 -83 -69 -172.5t-244 -236.5h318v-185h-625z" />
<glyph unicode="&#xb3;" horiz-adv-x="813" d="M63 770v16h211q2 -47 27.5 -69.5t79.5 -22.5t82.5 23.5t28.5 66.5q0 46 -27 66t-90 20q-25 0 -43 -2v160h22q117 0 117 80q0 33 -21.5 51.5t-60.5 18.5q-89 0 -92 -76h-201q3 246 310 246q137 0 215.5 -60.5t78.5 -165.5q0 -112 -96 -161q117 -42 117 -181 q0 -120 -90 -191t-244 -71t-239 66t-85 186z" />
<glyph unicode="&#xb4;" horiz-adv-x="1024" d="M332 1098l289 321h419l-432 -321h-276z" />
<glyph unicode="&#xb5;" horiz-adv-x="1024" d="M43 -352v1335h322v-494q0 -68 4.5 -98.5t17.5 -58.5q43 -84 131 -84q75 0 109.5 58.5t34.5 185.5v491h319v-983h-319v113q-48 -131 -150 -131q-49 0 -83.5 25.5t-63.5 84.5v-444h-322z" />
<glyph unicode="&#xb6;" horiz-adv-x="1335" d="M49 1004q0 106 48.5 188t135.5 123q102 51 302 51h696v-195h-121v-1361h-260v1361h-135v-1361h-260v833h-27q-167 0 -273 100.5t-106 260.5z" />
<glyph unicode="&#xb7;" horiz-adv-x="579" d="M82 514q0 76 59 126t148 50q92 0 150.5 -50.5t58.5 -129.5q0 -75 -59 -124.5t-150 -49.5t-149 50t-58 128z" />
<glyph unicode="&#xb8;" horiz-adv-x="1024" d="M268 -342q113 -29 158 -29q40 0 64 24t24 64t-27 63t-73 23q-35 0 -99 -10l76 207h203l-41 -109q97 -17 149 -67.5t52 -126.5q0 -94 -74.5 -153.5t-190.5 -59.5q-104 0 -221 47v127z" />
<glyph unicode="&#xb9;" horiz-adv-x="813" d="M178 1069v131q103 -1 148.5 28t62.5 107h170v-803h-229v537h-152z" />
<glyph unicode="&#xba;" horiz-adv-x="710" d="M10 514v156h688v-156h-688zM10 1077q0 130 98 216.5t246 86.5q149 0 246.5 -87t97.5 -220q0 -134 -97.5 -221.5t-246.5 -87.5q-151 0 -247.5 87.5t-96.5 225.5zM240 1075q0 -71 31 -113t83 -42q51 0 83 42t32 111q0 67 -32 109.5t-83 42.5t-82.5 -42t-31.5 -108z" />
<glyph unicode="&#xbb;" horiz-adv-x="1171" d="M117 0l207 500l-207 473h299l250 -471l-250 -502h-299zM584 0l207 500l-207 473h297l252 -471l-250 -502h-299z" />
<glyph unicode="&#xbc;" horiz-adv-x="1898" d="M178 1069v131q103 -1 148.5 28t62.5 107h170v-803h-229v537h-152zM430 0l768 1331h275l-771 -1331h-272zM1126 156v147l344 500h242v-479h152v-168h-152v-156h-215v156h-371zM1341 324h166v272z" />
<glyph unicode="&#xbd;" horiz-adv-x="1898" d="M178 1069v131q103 -1 148.5 28t62.5 107h170v-803h-229v537h-152zM430 0l768 1331h275l-771 -1331h-272zM1180 0v152q128 128 282 284q60 60 78.5 87.5t18.5 56.5t-20.5 46t-55.5 17q-45 0 -66.5 -24t-25.5 -80h-199v24q0 117 83 184.5t228 67.5q135 0 216 -60t81 -161 q0 -83 -69 -173t-244 -237h317v-184h-624z" />
<glyph unicode="&#xbe;" horiz-adv-x="1898" d="M63 770v16h211q2 -47 27.5 -69.5t79.5 -22.5t82.5 23.5t28.5 66.5q0 46 -27 66t-90 20q-25 0 -43 -2v160h22q117 0 117 80q0 33 -21.5 51.5t-60.5 18.5q-89 0 -92 -76h-201q3 246 310 246q137 0 215.5 -60.5t78.5 -165.5q0 -112 -96 -161q117 -42 117 -181 q0 -120 -90 -191t-244 -71t-239 66t-85 186zM430 0l768 1331h272l-768 -1331h-272zM1126 156v147l344 500h242v-479h152v-168h-152v-156h-215v156h-371zM1341 324h166v272z" />
<glyph unicode="&#xbf;" horiz-adv-x="974" d="M47 -49q0 87 36 149.5t142 161.5q83 78 99 108t16 105q0 37 -2 74h330v-53v-43q0 -117 -30 -179t-130 -151q-66 -58 -86.5 -88.5t-20.5 -67.5q0 -38 26 -62t67 -24q57 0 82 35.5t26 120.5h293q-3 -124 -26.5 -192t-80.5 -119q-114 -105 -329 -105q-190 0 -301 89 t-111 241zM293 819q0 75 59 124.5t150 49.5t149 -50t58 -128q0 -76 -59 -126t-148 -50q-92 0 -150.5 50.5t-58.5 129.5z" />
<glyph unicode="&#xc0;" horiz-adv-x="1368" d="M0 0l510 1366h346l512 -1366h-377l-88 270h-438l-90 -270h-375zM121 1804h426l368 -313h-321zM553 543h260l-129 463z" />
<glyph unicode="&#xc1;" horiz-adv-x="1368" d="M0 0l510 1366h346l512 -1366h-377l-88 270h-438l-90 -270h-375zM449 1491l368 313h426l-471 -313h-323zM553 543h260l-129 463z" />
<glyph unicode="&#xc2;" horiz-adv-x="1368" d="M0 0l510 1366h346l512 -1366h-377l-88 270h-438l-90 -270h-375zM213 1491l350 313h240l350 -313h-336l-133 129l-133 -129h-338zM553 543h260l-129 463z" />
<glyph unicode="&#xc3;" horiz-adv-x="1368" d="M0 0l510 1366h346l512 -1366h-377l-88 270h-438l-90 -270h-375zM274 1528q32 98 62 147q31 51 82.5 80t111.5 29q64 0 172 -31q106 -31 132 -31q27 0 48.5 19t51.5 67l180 -41q-32 -132 -97 -200t-159 -68q-45 0 -85 8.5t-185 48.5q-28 7 -45 7q-49 0 -88 -76zM553 543 h260l-129 463z" />
<glyph unicode="&#xc4;" horiz-adv-x="1368" d="M0 0l510 1366h346l512 -1366h-377l-88 270h-438l-90 -270h-375zM266 1647q0 69 55.5 116t137.5 47q76 0 131 -47.5t55 -113.5q0 -69 -55 -116.5t-135 -47.5q-78 0 -133.5 48t-55.5 114zM553 543h260l-129 463zM721 1647q0 69 55 116t135 47q78 0 133.5 -48t55.5 -115 t-55.5 -114.5t-135.5 -47.5q-78 0 -133 48t-55 114z" />
<glyph unicode="&#xc5;" horiz-adv-x="1368" d="M0 0l510 1366h346l512 -1366h-377l-88 270h-438l-90 -270h-375zM428 1671q0 94 75 158.5t183 64.5q104 0 179 -65.5t75 -157.5q0 -91 -75 -156t-181 -65t-181 65t-75 156zM553 543h260l-129 463zM612 1671q0 -30 20.5 -49.5t51.5 -19.5t51.5 19.5t20.5 51.5q0 30 -20 50 t-50 20q-34 0 -54 -20t-20 -52z" />
<glyph unicode="&#xc6;" horiz-adv-x="2011" d="M-14 0l903 1366h1063v-281h-606v-243h550v-281h-550v-280h624v-281h-966v268h-445l-164 -268h-409zM729 541h275v493z" />
<glyph unicode="&#xc7;" horiz-adv-x="1368" d="M68 680q0 179 59 327.5t168 245.5q162 144 432 144q161 0 285.5 -52.5t199.5 -150.5q50 -65 72 -133.5t23 -167.5h-320q-17 107 -82.5 165t-169.5 58q-138 0 -215.5 -115.5t-77.5 -324.5q0 -201 76 -313.5t211 -112.5q232 0 262 287h334q0 -242 -140.5 -392t-387.5 -172 l-37 -90q119 -20 175 -69.5t56 -135.5q0 -109 -87.5 -180t-219.5 -71q-127 0 -254 69v142q124 -31 184 -31q49 0 77 25t28 69q0 98 -121 98q-45 0 -113 -12l82 195q-89 19 -147 44.5t-115 71.5q-114 95 -175.5 246t-61.5 336z" />
<glyph unicode="&#xc8;" horiz-adv-x="1210" d="M113 1804h426l368 -313h-321zM158 0v1366h989v-281h-627v-239h570v-281h-570v-284h651v-281h-1013z" />
<glyph unicode="&#xc9;" horiz-adv-x="1210" d="M158 0v1366h989v-281h-627v-239h570v-281h-570v-284h651v-281h-1013zM401 1491l369 313h426l-471 -313h-324z" />
<glyph unicode="&#xca;" horiz-adv-x="1210" d="M158 0v1366h989v-281h-627v-239h570v-281h-570v-284h651v-281h-1013zM184 1491l351 313h239l350 -313h-336l-133 129l-133 -129h-338z" />
<glyph unicode="&#xcb;" horiz-adv-x="1210" d="M158 0v1366h989v-281h-627v-239h570v-281h-570v-284h651v-281h-1013zM236 1647q0 69 55 116t137 47q76 0 131 -47.5t55 -113.5q0 -69 -55 -116.5t-135 -47.5q-78 0 -133 48t-55 114zM690 1647q0 69 55.5 116t135.5 47q78 0 133 -47.5t55 -115.5t-55.5 -115t-134.5 -47 q-78 0 -133.5 48t-55.5 114z" />
<glyph unicode="&#xcc;" horiz-adv-x="675" d="M-119 1804h385l287 -313h-289zM158 0v1366h362v-1366h-362z" />
<glyph unicode="&#xcd;" horiz-adv-x="675" d="M123 1491l287 313h385l-383 -313h-289zM158 0v1366h362v-1366h-362z" />
<glyph unicode="&#xce;" horiz-adv-x="675" d="M-84 1491l295 313h254l295 -313h-301l-121 143l-119 -143h-303zM158 0v1366h362v-1366h-362z" />
<glyph unicode="&#xcf;" horiz-adv-x="675" d="M-74 1647q0 69 55.5 116t137.5 47q76 0 131 -47.5t55 -113.5q0 -69 -55 -116.5t-135 -47.5q-78 0 -133.5 48t-55.5 114zM158 0v1366h362v-1366h-362zM373 1647q0 69 55 116t135 47q78 0 133.5 -48t55.5 -115t-55.5 -114.5t-135.5 -47.5q-78 0 -133 48t-55 114z" />
<glyph unicode="&#xd0;" horiz-adv-x="1454" d="M20 567v273h138v526h393q207 0 333.5 -27.5t223.5 -93.5q135 -92 206.5 -236.5t71.5 -324.5q0 -209 -96 -371t-268 -241q-156 -72 -471 -72h-393v567h-138zM520 281h109q103 0 168.5 19t109.5 62q51 47 78 131t27 191q0 122 -36.5 213t-103.5 135q-79 53 -243 53h-109 v-245h273v-273h-273v-286z" />
<glyph unicode="&#xd1;" horiz-adv-x="1540" d="M158 0v1366h370l508 -846v846h348v-1366h-354l-524 856v-856h-348zM365 1528q34 102 61 147q31 51 83 80t112 29q64 0 172 -31q106 -31 131 -31q27 0 48.5 19t51.5 67l180 -41q-32 -132 -97 -200t-159 -68q-45 0 -85 8.5t-185 48.5q-28 7 -45 7q-49 0 -88 -76z" />
<glyph unicode="&#xd2;" horiz-adv-x="1517" d="M68 694q0 167 59 308.5t166 232.5q194 162 467 162q274 0 465 -162q110 -94 167.5 -235t57.5 -316q0 -359 -225 -553q-91 -78 -211.5 -120t-253.5 -42q-275 0 -467 162q-225 194 -225 563zM231 1804h426l369 -313h-321zM442 688q0 -207 83.5 -322.5t234.5 -115.5 q148 0 231.5 114.5t83.5 317.5q0 204 -84 319t-233 115q-147 0 -231.5 -114.5t-84.5 -313.5z" />
<glyph unicode="&#xd3;" horiz-adv-x="1517" d="M68 694q0 167 59 308.5t166 232.5q194 162 467 162q274 0 465 -162q110 -94 167.5 -235t57.5 -316q0 -359 -225 -553q-91 -78 -211.5 -120t-253.5 -42q-275 0 -467 162q-225 194 -225 563zM442 688q0 -207 83.5 -322.5t234.5 -115.5q148 0 231.5 114.5t83.5 317.5 q0 204 -84 319t-233 115q-147 0 -231.5 -114.5t-84.5 -313.5zM500 1491l368 313h426l-471 -313h-323z" />
<glyph unicode="&#xd4;" horiz-adv-x="1517" d="M68 694q0 167 59 308.5t166 232.5q194 162 467 162q274 0 465 -162q110 -94 167.5 -235t57.5 -316q0 -359 -225 -553q-91 -78 -211.5 -120t-253.5 -42q-275 0 -467 162q-225 194 -225 563zM289 1491l350 313h240l350 -313h-336l-133 129l-133 -129h-338zM442 688 q0 -207 83.5 -322.5t234.5 -115.5q148 0 231.5 114.5t83.5 317.5q0 204 -84 319t-233 115q-147 0 -231.5 -114.5t-84.5 -313.5z" />
<glyph unicode="&#xd5;" horiz-adv-x="1517" d="M68 694q0 167 59 308.5t166 232.5q194 162 467 162q274 0 465 -162q110 -94 167.5 -235t57.5 -316q0 -359 -225 -553q-91 -78 -211.5 -120t-253.5 -42q-275 0 -467 162q-225 194 -225 563zM352 1528q32 98 62 147q31 51 82.5 80t111.5 29q64 0 172 -31q106 -31 131 -31 q27 0 49 19t52 67l180 -41q-32 -132 -97 -200t-159 -68q-45 0 -85 8.5t-185 48.5q-28 7 -45 7q-50 0 -89 -76zM442 688q0 -207 83.5 -322.5t234.5 -115.5q148 0 231.5 114.5t83.5 317.5q0 204 -84 319t-233 115q-147 0 -231.5 -114.5t-84.5 -313.5z" />
<glyph unicode="&#xd6;" horiz-adv-x="1517" d="M68 694q0 167 59 308.5t166 232.5q194 162 467 162q274 0 465 -162q110 -94 167.5 -235t57.5 -316q0 -359 -225 -553q-91 -78 -211.5 -120t-253.5 -42q-275 0 -467 162q-225 194 -225 563zM342 1647q0 69 55.5 116t137.5 47q76 0 131 -47.5t55 -113.5q0 -69 -55.5 -116.5 t-135.5 -47.5q-78 0 -133 48t-55 114zM442 688q0 -207 83.5 -322.5t234.5 -115.5q148 0 231.5 114.5t83.5 317.5q0 204 -84 319t-233 115q-147 0 -231.5 -114.5t-84.5 -313.5zM797 1647q0 69 55 116t135 47q78 0 133.5 -48t55.5 -115t-55.5 -114.5t-135.5 -47.5 q-78 0 -133 48t-55 114z" />
<glyph unicode="&#xd7;" d="M182 420l262 262l-262 262l185 184l260 -262l262 262l184 -184l-262 -262l262 -262l-184 -182l-262 262l-260 -262z" />
<glyph unicode="&#xd8;" horiz-adv-x="1517" d="M-16 -14l219 245q-133 183 -133 455q0 320 189 514.5t501 194.5q231 0 405 -115l90 98h281l-217 -243q133 -180 133 -455q0 -173 -57.5 -313.5t-167.5 -235.5q-91 -77 -212.5 -119.5t-252.5 -42.5q-230 0 -410 119l-88 -102h-280zM444 686q0 -77 21 -176l479 545 q-76 61 -186 61q-146 0 -230 -115t-84 -315zM571 315q74 -65 191 -65q147 0 231 115.5t84 316.5q0 87 -22 178z" />
<glyph unicode="&#xd9;" horiz-adv-x="1497" d="M143 592v774h363v-786q0 -101 4.5 -143.5t19.5 -74.5q26 -52 84.5 -82t135.5 -30q88 0 148.5 38t80.5 107q12 42 12 185v786h363v-774q0 -185 -22.5 -272t-88.5 -164q-166 -187 -493 -187q-189 0 -329 64t-210 184q-40 67 -54 142.5t-14 232.5zM215 1804h426l369 -313 h-322z" />
<glyph unicode="&#xda;" horiz-adv-x="1497" d="M143 592v774h363v-786q0 -101 4.5 -143.5t19.5 -74.5q26 -52 84.5 -82t135.5 -30q88 0 148.5 38t80.5 107q12 42 12 185v786h363v-774q0 -185 -22.5 -272t-88.5 -164q-166 -187 -493 -187q-189 0 -329 64t-210 184q-40 67 -54 142.5t-14 232.5zM489 1491l369 313h426 l-471 -313h-324z" />
<glyph unicode="&#xdb;" horiz-adv-x="1497" d="M143 592v774h363v-786q0 -101 4.5 -143.5t19.5 -74.5q26 -52 84.5 -82t135.5 -30q88 0 148.5 38t80.5 107q12 42 12 185v786h363v-774q0 -185 -22.5 -272t-88.5 -164q-166 -187 -493 -187q-189 0 -329 64t-210 184q-40 67 -54 142.5t-14 232.5zM279 1491l350 313h239 l351 -313h-336l-133 129l-134 -129h-337z" />
<glyph unicode="&#xdc;" horiz-adv-x="1497" d="M143 592v774h363v-786q0 -101 4.5 -143.5t19.5 -74.5q26 -52 84.5 -82t135.5 -30q88 0 148.5 38t80.5 107q12 42 12 185v786h363v-774q0 -185 -22.5 -272t-88.5 -164q-166 -187 -493 -187q-189 0 -329 64t-210 184q-40 67 -54 142.5t-14 232.5zM332 1647q0 69 55 116 t137 47q77 0 132 -47.5t55 -113.5q0 -69 -55.5 -116.5t-135.5 -47.5q-78 0 -133 48t-55 114zM786 1647q0 69 55.5 116t135.5 47q78 0 133 -47.5t55 -115.5t-55.5 -115t-134.5 -47q-78 0 -133.5 48t-55.5 114z" />
<glyph unicode="&#xdd;" horiz-adv-x="1290" d="M-27 1366h410l270 -530l262 530h404l-492 -827v-539h-362v539zM379 1491l369 313h426l-472 -313h-323z" />
<glyph unicode="&#xde;" horiz-adv-x="1265" d="M158 0v1366h362v-178h29q213 0 312.5 -12.5t172.5 -49.5q106 -53 162.5 -151.5t56.5 -231.5q0 -152 -72 -254.5t-210 -146.5q-64 -21 -137.5 -28t-235.5 -7h-78v-307h-362zM520 580h80q91 0 133.5 5.5t75.5 20.5q76 39 76 142q0 118 -103 153q-41 14 -172 14h-90v-335z " />
<glyph unicode="&#xdf;" horiz-adv-x="1220" d="M102 0v836q0 193 26 282.5t101 155.5q132 117 367 117q209 0 334 -101t125 -268q0 -100 -41.5 -161.5t-132.5 -96.5q67 -19 104 -37.5t70 -50.5q51 -47 78.5 -120.5t27.5 -158.5q0 -186 -111 -298.5t-294 -112.5q-99 0 -209 39v262q82 -35 131 -35q61 0 95 42.5t34 119.5 q0 97 -54.5 142.5t-183.5 59.5v258q70 3 107 36.5t37 95.5q0 55 -32.5 86.5t-88.5 31.5q-75 0 -108 -48.5t-33 -157.5v-918h-349z" />
<glyph unicode="&#xe0;" horiz-adv-x="1150" d="M57 254q0 202 271 287q103 32 366 69q0 90 -25.5 120t-101.5 30q-63 0 -94 -21.5t-37 -68.5h-334q7 92 36 146.5t89 96.5q124 84 351 84q285 0 389 -129q34 -43 47.5 -101.5t13.5 -162.5v-368q0 -93 10.5 -138t44.5 -98h-338q-9 56 -14 102q-67 -68 -135.5 -95 t-169.5 -27q-167 0 -268 75t-101 199zM106 1419h422l281 -321h-272zM401 301q0 -39 34.5 -62.5t92.5 -23.5q88 0 127 41t39 133v29q-173 -18 -219 -35q-74 -27 -74 -82z" />
<glyph unicode="&#xe1;" horiz-adv-x="1150" d="M57 254q0 202 271 287q103 32 366 69q0 90 -25.5 120t-101.5 30q-63 0 -94 -21.5t-37 -68.5h-334q7 92 36 146.5t89 96.5q124 84 351 84q285 0 389 -129q34 -43 47.5 -101.5t13.5 -162.5v-368q0 -93 10.5 -138t44.5 -98h-338q-9 56 -14 102q-67 -68 -135.5 -95 t-169.5 -27q-167 0 -268 75t-101 199zM358 1098l289 321h420l-432 -321h-277zM401 301q0 -39 34.5 -62.5t92.5 -23.5q88 0 127 41t39 133v29q-173 -18 -219 -35q-74 -27 -74 -82z" />
<glyph unicode="&#xe2;" horiz-adv-x="1150" d="M57 254q0 202 271 287q103 32 366 69q0 90 -25.5 120t-101.5 30q-63 0 -94 -21.5t-37 -68.5h-334q7 92 36 146.5t89 96.5q124 84 351 84q285 0 389 -129q34 -43 47.5 -101.5t13.5 -162.5v-368q0 -93 10.5 -138t44.5 -98h-338q-9 56 -14 102q-67 -68 -135.5 -95 t-169.5 -27q-167 0 -268 75t-101 199zM154 1102l309 319h229l309 -319h-309l-114 123l-111 -123h-313zM401 301q0 -39 34.5 -62.5t92.5 -23.5q88 0 127 41t39 133v29q-173 -18 -219 -35q-74 -27 -74 -82z" />
<glyph unicode="&#xe3;" horiz-adv-x="1150" d="M57 254q0 202 271 287q103 32 366 69q0 90 -25.5 120t-101.5 30q-63 0 -94 -21.5t-37 -68.5h-334q7 92 36 146.5t89 96.5q124 84 351 84q285 0 389 -129q34 -43 47.5 -101.5t13.5 -162.5v-368q0 -93 10.5 -138t44.5 -98h-338q-9 56 -14 102q-67 -68 -135.5 -95 t-169.5 -27q-167 0 -268 75t-101 199zM197 1143q30 102 61 149q30 51 77 79t99 28q50 0 158 -31q96 -31 115 -31q22 0 38.5 16.5t45.5 67.5l170 -41q-57 -266 -240 -266q-51 0 -156 31q-104 33 -123 33q-21 0 -38.5 -18t-38.5 -60zM401 301q0 -39 34.5 -62.5t92.5 -23.5 q88 0 127 41t39 133v29q-173 -18 -219 -35q-74 -27 -74 -82z" />
<glyph unicode="&#xe4;" horiz-adv-x="1150" d="M57 254q0 202 271 287q103 32 366 69q0 90 -25.5 120t-101.5 30q-63 0 -94 -21.5t-37 -68.5h-334q7 92 36 146.5t89 96.5q124 84 351 84q285 0 389 -129q34 -43 47.5 -101.5t13.5 -162.5v-368q0 -93 10.5 -138t44.5 -98h-338q-9 56 -14 102q-67 -68 -135.5 -95 t-169.5 -27q-167 0 -268 75t-101 199zM182 1257q0 64 52.5 109t127.5 45q71 0 123 -45t52 -106q0 -64 -52.5 -109t-124.5 -45q-73 0 -125.5 44.5t-52.5 106.5zM401 301q0 -39 34.5 -62.5t92.5 -23.5q88 0 127 41t39 133v29q-173 -18 -219 -35q-74 -27 -74 -82zM618 1257 q0 64 52.5 109t126.5 45q72 0 124 -44.5t52 -106.5q0 -64 -52 -109t-126 -45q-72 0 -124.5 44t-52.5 107z" />
<glyph unicode="&#xe5;" horiz-adv-x="1150" d="M57 254q0 202 271 287q103 32 366 69q0 90 -25.5 120t-101.5 30q-63 0 -94 -21.5t-37 -68.5h-334q7 92 36 146.5t89 96.5q124 84 351 84q285 0 389 -129q34 -43 47.5 -101.5t13.5 -162.5v-368q0 -93 10.5 -138t44.5 -98h-338q-9 56 -14 102q-67 -68 -135.5 -95 t-169.5 -27q-167 0 -268 75t-101 199zM324 1284q0 94 75 158.5t183 64.5q104 0 179 -65.5t75 -157.5q0 -91 -75 -156t-181 -65t-181 65t-75 156zM401 301q0 -39 34.5 -62.5t92.5 -23.5q88 0 127 41t39 133v29q-173 -18 -219 -35q-74 -27 -74 -82zM500 1284q0 -34 22.5 -56 t57.5 -22t57 22.5t22 57.5q0 34 -21.5 56t-55.5 22q-37 0 -59.5 -22.5t-22.5 -57.5z" />
<glyph unicode="&#xe6;" horiz-adv-x="1761" d="M57 254q0 200 267 285q104 34 362 69q0 91 -25.5 121.5t-101.5 30.5q-63 0 -94 -21.5t-37 -68.5h-334q7 92 36 146.5t89 96.5q124 84 350 84q202 0 326 -84q130 84 299 84q232 0 370 -140.5t138 -375.5q0 -42 -2 -71h-703q3 -91 55.5 -140t147.5 -49q123 0 176 88 l314 -10q-43 -155 -174 -239.5t-328 -84.5q-251 0 -391 168q-67 -90 -151.5 -129t-211.5 -39q-174 0 -275.5 75t-101.5 204zM395 299q0 -38 34 -62t91 -24q88 0 127 41t39 135v29q-160 -17 -217 -35q-74 -27 -74 -84zM1001 621h347q-11 75 -51.5 110t-116.5 35 q-145 0 -179 -145z" />
<glyph unicode="&#xe7;" horiz-adv-x="1124" d="M57 487q0 230 146 370t387 140q217 0 341.5 -97t133.5 -275h-334q-18 127 -139 127q-85 0 -132.5 -71.5t-47.5 -197.5q0 -123 46.5 -191.5t129.5 -68.5q66 0 98.5 34.5t44.5 117.5h334q-3 -174 -111.5 -277t-304.5 -118l-33 -89q97 -17 149 -67t52 -125q0 -94 -74 -153.5 t-190 -59.5q-102 0 -221 45v129q116 -29 174 -29q38 0 62 25t24 63q0 40 -26.5 63t-71.5 23q-36 0 -115 -10l70 193q-180 34 -286 168.5t-106 330.5z" />
<glyph unicode="&#xe8;" horiz-adv-x="1165" d="M57 481q0 232 148.5 374t390.5 142q232 0 371 -140.5t139 -375.5q0 -42 -2 -71h-703q3 -91 55.5 -140t147.5 -49q123 0 176 88l316 -10q-44 -157 -175 -240.5t-331 -83.5q-243 0 -388 138t-145 368zM115 1419h422l280 -321h-272zM406 621h346q-10 75 -50.5 110t-115.5 35 q-143 0 -180 -145z" />
<glyph unicode="&#xe9;" horiz-adv-x="1165" d="M57 481q0 232 148.5 374t390.5 142q232 0 371 -140.5t139 -375.5q0 -42 -2 -71h-703q3 -91 55.5 -140t147.5 -49q123 0 176 88l316 -10q-44 -157 -175 -240.5t-331 -83.5q-243 0 -388 138t-145 368zM375 1098l289 321h419l-432 -321h-276zM406 621h346q-10 75 -50.5 110 t-115.5 35q-143 0 -180 -145z" />
<glyph unicode="&#xea;" horiz-adv-x="1165" d="M57 481q0 232 148.5 374t390.5 142q232 0 371 -140.5t139 -375.5q0 -42 -2 -71h-703q3 -91 55.5 -140t147.5 -49q123 0 176 88l316 -10q-44 -157 -175 -240.5t-331 -83.5q-243 0 -388 138t-145 368zM184 1102l310 319h229l309 -319h-309l-115 123l-110 -123h-314z M406 621h346q-10 75 -50.5 110t-115.5 35q-143 0 -180 -145z" />
<glyph unicode="&#xeb;" horiz-adv-x="1165" d="M57 481q0 232 148.5 374t390.5 142q232 0 371 -140.5t139 -375.5q0 -42 -2 -71h-703q3 -91 55.5 -140t147.5 -49q123 0 176 88l316 -10q-44 -157 -175 -240.5t-331 -83.5q-243 0 -388 138t-145 368zM213 1257q0 64 52.5 109t127.5 45q71 0 122.5 -45t51.5 -106 q0 -64 -52 -109t-124 -45q-73 0 -125.5 44.5t-52.5 106.5zM406 621h346q-10 75 -50.5 110t-115.5 35q-143 0 -180 -145zM649 1257q0 64 52 109t126 45q72 0 124.5 -45t52.5 -106q0 -64 -52.5 -109t-126.5 -45q-72 0 -124 44t-52 107z" />
<glyph unicode="&#xec;" horiz-adv-x="608" d="M-100 1419h366l219 -321h-249zM129 0v973h348v-973h-348z" />
<glyph unicode="&#xed;" horiz-adv-x="608" d="M123 1098l219 321h367l-336 -321h-250zM129 0v973h348v-973h-348z" />
<glyph unicode="&#xee;" horiz-adv-x="608" d="M-72 1102l254 319h244l256 -319h-270l-107 143l-104 -143h-273zM131 0v973h348v-973h-348z" />
<glyph unicode="&#xef;" horiz-adv-x="608" d="M-86 1257q0 64 52.5 109t127.5 45q71 0 122.5 -45t51.5 -106q0 -64 -52 -109t-124 -45q-73 0 -125.5 44.5t-52.5 106.5zM129 0v973h348v-973h-348zM338 1257q0 64 52 109t126 45q72 0 124 -44.5t52 -106.5q0 -64 -52 -109t-126 -45q-72 0 -124 44t-52 107z" />
<glyph unicode="&#xf0;" horiz-adv-x="1210" d="M57 487q0 249 191 396q144 110 313 110q63 0 100.5 -12t90.5 -49q-86 132 -267 309l-43 43l158 119l92 -84l135 88l125 -135l-125 -84q11 -12 42.5 -48t52.5 -59q35 -40 79 -109.5t70 -127.5q80 -171 80 -348q0 -229 -153 -375t-394 -146q-238 0 -392.5 144.5 t-154.5 367.5zM412 489q0 -120 53 -194t139 -74t139.5 73.5t53.5 192.5q0 117 -53.5 191t-139.5 74q-85 0 -138.5 -73.5t-53.5 -189.5z" />
<glyph unicode="&#xf1;" horiz-adv-x="1220" d="M88 973h338q18 -39 25 -82q61 55 125.5 78.5t152.5 23.5q122 0 214 -50.5t130 -139.5q19 -41 25 -93.5t6 -164.5v-545h-348v506q0 115 -17 156q-12 31 -42 48t-70 17q-93 0 -131 -80q-19 -42 -19 -147v-500h-348v618q0 171 -6 223.5t-35 131.5zM215 1143q30 102 61 149 q30 50 77.5 78.5t99.5 28.5q49 0 157 -31q96 -31 115 -31q22 0 38.5 16.5t45.5 67.5l170 -41q-57 -266 -240 -266q-50 0 -155 31q-104 33 -123 33q-22 0 -40 -18t-38 -60z" />
<glyph unicode="&#xf2;" horiz-adv-x="1210" d="M57 494q0 142 71 257.5t196.5 180.5t279.5 65q238 0 392.5 -144.5t154.5 -365.5q0 -223 -154.5 -367.5t-390.5 -144.5q-243 0 -396 145t-153 374zM117 1419h422l280 -321h-272zM412 489q0 -120 53 -194t139 -74t139.5 73.5t53.5 192.5q0 117 -53.5 191t-139.5 74 q-85 0 -138.5 -73.5t-53.5 -189.5z" />
<glyph unicode="&#xf3;" horiz-adv-x="1210" d="M57 494q0 142 71 257.5t196.5 180.5t279.5 65q238 0 392.5 -144.5t154.5 -365.5q0 -223 -154.5 -367.5t-390.5 -144.5q-243 0 -396 145t-153 374zM383 1098l289 321h420l-433 -321h-276zM412 489q0 -120 53 -194t139 -74t139.5 73.5t53.5 192.5q0 117 -53.5 191 t-139.5 74q-85 0 -138.5 -73.5t-53.5 -189.5z" />
<glyph unicode="&#xf4;" horiz-adv-x="1210" d="M57 494q0 142 71 257.5t196.5 180.5t279.5 65q238 0 392.5 -144.5t154.5 -365.5q0 -223 -154.5 -367.5t-390.5 -144.5q-243 0 -396 145t-153 374zM180 1102l309 319h230l309 -319h-309l-115 123l-110 -123h-314zM412 489q0 -120 53 -194t139 -74t139.5 73.5t53.5 192.5 q0 117 -53.5 191t-139.5 74q-85 0 -138.5 -73.5t-53.5 -189.5z" />
<glyph unicode="&#xf5;" horiz-adv-x="1210" d="M57 494q0 142 71 257.5t196.5 180.5t279.5 65q238 0 392.5 -144.5t154.5 -365.5q0 -223 -154.5 -367.5t-390.5 -144.5q-243 0 -396 145t-153 374zM236 1143q30 102 61 149q30 51 77 79t99 28q50 0 158 -31q96 -31 114 -31q22 0 38.5 16.5t45.5 67.5l170 -41 q-57 -266 -239 -266q-51 0 -156 31q-104 33 -123 33q-22 0 -40 -18t-38 -60zM412 489q0 -120 53 -194t139 -74t139.5 73.5t53.5 192.5q0 117 -53.5 191t-139.5 74q-85 0 -138.5 -73.5t-53.5 -189.5z" />
<glyph unicode="&#xf6;" horiz-adv-x="1210" d="M57 494q0 142 71 257.5t196.5 180.5t279.5 65q238 0 392.5 -144.5t154.5 -365.5q0 -223 -154.5 -367.5t-390.5 -144.5q-243 0 -396 145t-153 374zM209 1257q0 64 52.5 109t127.5 45q71 0 122.5 -45t51.5 -106q0 -64 -52 -109t-124 -45q-73 0 -125.5 44.5t-52.5 106.5z M412 489q0 -120 53 -194t139 -74t139.5 73.5t53.5 192.5q0 117 -53.5 191t-139.5 74q-85 0 -138.5 -73.5t-53.5 -189.5zM645 1257q0 64 52 109t126 45q72 0 124 -44.5t52 -106.5q0 -64 -52 -109t-126 -45q-72 0 -124 44t-52 107z" />
<glyph unicode="&#xf7;" d="M141 553v260h973v-260h-973zM444 299q0 68 53 113t132 45q80 0 132 -45t52 -115q0 -67 -52 -111.5t-132 -44.5t-132.5 44.5t-52.5 113.5zM444 1065q0 68 53 113t132 45q80 0 132 -45t52 -115q0 -67 -52 -111.5t-132 -44.5t-132.5 44.5t-52.5 113.5z" />
<glyph unicode="&#xf8;" horiz-adv-x="1236" d="M-41 -14l207 194q-57 99 -75.5 158.5t-18.5 148.5q0 220 155 365t391 145q184 0 330 -96l92 86h238l-215 -196q49 -50 75.5 -131.5t26.5 -176.5q0 -218 -156 -363t-391 -145q-175 0 -325 95l-96 -84h-238zM406 483q0 -37 12 -86l325 328q-34 29 -59 39t-63 10 q-97 0 -156 -79.5t-59 -211.5zM492 250q36 -30 62 -40.5t64 -10.5q98 0 155.5 81t57.5 218q0 40 -12 75z" />
<glyph unicode="&#xf9;" horiz-adv-x="1234" d="M117 426v547h348v-541q0 -97 20 -133q37 -53 115 -53q82 0 120 51t38 160v516h348v-660q0 -157 5 -196t36 -117h-338q-13 32 -21 82q-105 -102 -286 -102q-115 0 -201.5 41t-132.5 116q-28 48 -39.5 112.5t-11.5 176.5zM125 1419h422l280 -321h-272z" />
<glyph unicode="&#xfa;" horiz-adv-x="1234" d="M117 426v547h348v-541q0 -97 20 -133q37 -53 115 -53q82 0 120 51t38 160v516h348v-660q0 -157 5 -196t36 -117h-338q-13 32 -21 82q-105 -102 -286 -102q-115 0 -201.5 41t-132.5 116q-28 48 -39.5 112.5t-11.5 176.5zM397 1098l289 321h420l-432 -321h-277z" />
<glyph unicode="&#xfb;" horiz-adv-x="1234" d="M117 426v547h348v-541q0 -97 20 -133q37 -53 115 -53q82 0 120 51t38 160v516h348v-660q0 -157 5 -196t36 -117h-338q-13 32 -21 82q-105 -102 -286 -102q-115 0 -201.5 41t-132.5 116q-28 48 -39.5 112.5t-11.5 176.5zM188 1102l310 319h229l309 -319h-309l-115 123 l-110 -123h-314z" />
<glyph unicode="&#xfc;" horiz-adv-x="1234" d="M117 426v547h348v-541q0 -97 20 -133q37 -53 115 -53q82 0 120 51t38 160v516h348v-660q0 -157 5 -196t36 -117h-338q-13 32 -21 82q-105 -102 -286 -102q-115 0 -201.5 41t-132.5 116q-28 48 -39.5 112.5t-11.5 176.5zM215 1257q0 64 52.5 109t127.5 45q71 0 122.5 -45 t51.5 -106q0 -64 -52 -109t-124 -45q-73 0 -125.5 44.5t-52.5 106.5zM651 1257q0 64 52 109t126 45q72 0 124.5 -45t52.5 -106q0 -64 -52.5 -109t-126.5 -45q-72 0 -124 44t-52 107z" />
<glyph unicode="&#xfd;" horiz-adv-x="1089" d="M-20 973h370l197 -656l205 656h358l-365 -932q-73 -189 -118 -262.5t-117 -124.5q-67 -45 -148 -64.5t-204 -19.5q-18 0 -140 4v256h66q100 0 147 10.5t74 37.5t53 91zM324 1098l288 321h420l-432 -321h-276z" />
<glyph unicode="&#xfe;" horiz-adv-x="1230" d="M129 -430v1796h348v-475q57 55 114.5 78.5t137.5 23.5q193 0 317.5 -143t124.5 -365q0 -221 -124 -363t-316 -142q-79 0 -137 22.5t-117 77.5v-510h-348zM473 489q0 -114 47 -181.5t125 -67.5t125 67.5t47 179.5q0 111 -47 178.5t-125 67.5q-77 0 -124.5 -67.5 t-47.5 -176.5z" />
<glyph unicode="&#xff;" horiz-adv-x="1089" d="M-20 973h370l197 -656l205 656h358l-365 -932q-73 -189 -118 -262.5t-117 -124.5q-67 -45 -148 -64.5t-204 -19.5q-18 0 -140 4v256h66q100 0 147 10.5t74 37.5t53 91zM150 1257q0 64 52.5 109t127.5 45q71 0 122.5 -45t51.5 -106q0 -64 -52 -109t-124 -45 q-73 0 -125.5 44.5t-52.5 106.5zM586 1257q0 64 52 109t126 45q72 0 124 -44.5t52 -106.5q0 -64 -52 -109t-126 -45q-72 0 -124 44t-52 107z" />
<glyph unicode="&#x152;" horiz-adv-x="2107" d="M68 682q0 354 223 553q182 162 436 162q117 0 200 -32t146 -101v102h969v-281h-627v-239h572v-281h-572v-284h651v-281h-993v102q-69 -69 -154 -101t-200 -32q-248 0 -430 162q-221 200 -221 551zM442 688q0 -207 83.5 -322.5t234.5 -115.5q148 0 230.5 114.5t82.5 317.5 q0 204 -83.5 319t-231.5 115t-232 -114t-84 -314z" />
<glyph unicode="&#x153;" horiz-adv-x="1886" d="M57 487q0 221 154.5 365.5t390.5 144.5q211 0 359 -127q144 127 358 127q230 0 369 -140.5t139 -375.5v-71h-703q3 -91 55.5 -140t147.5 -49q123 0 176 88l314 -10q-43 -155 -174.5 -239.5t-329.5 -84.5q-219 0 -357 123q-148 -123 -354 -123q-236 0 -390.5 144.5 t-154.5 367.5zM412 489q0 -120 53 -194t139 -74t139.5 73.5t53.5 192.5q0 117 -53.5 191t-139.5 74q-85 0 -138.5 -73.5t-53.5 -189.5zM1128 621h345q-9 75 -49 110t-117 35q-145 0 -179 -145z" />
<glyph unicode="&#x178;" horiz-adv-x="1290" d="M-27 1366h410l270 -530l262 530h404l-492 -827v-539h-362v539zM229 1647q0 69 55.5 116t137.5 47q76 0 131 -47.5t55 -113.5q0 -69 -55 -116.5t-135 -47.5q-78 0 -133.5 48t-55.5 114zM684 1647q0 69 55 116t135 47q78 0 133.5 -48t55.5 -115t-55.5 -114.5t-135.5 -47.5 q-78 0 -133 48t-55 114z" />
<glyph unicode="&#x2c6;" horiz-adv-x="1024" d="M88 1102l309 319h230l309 -319h-309l-115 123l-111 -123h-313z" />
<glyph unicode="&#x2dc;" horiz-adv-x="1024" d="M131 1143q29 99 62 149q30 51 77 79t99 28q49 0 157 -31q96 -31 115 -31q22 0 38.5 16.5t45.5 67.5l170 -41q-57 -266 -240 -266q-50 0 -155 31q-104 33 -123 33q-22 0 -40 -18t-38 -60z" />
<glyph unicode="&#x2000;" horiz-adv-x="947" />
<glyph unicode="&#x2001;" horiz-adv-x="1894" />
<glyph unicode="&#x2002;" horiz-adv-x="947" />
<glyph unicode="&#x2003;" horiz-adv-x="1894" />
<glyph unicode="&#x2004;" horiz-adv-x="631" />
<glyph unicode="&#x2005;" horiz-adv-x="473" />
<glyph unicode="&#x2006;" horiz-adv-x="315" />
<glyph unicode="&#x2007;" horiz-adv-x="315" />
<glyph unicode="&#x2008;" horiz-adv-x="236" />
<glyph unicode="&#x2009;" horiz-adv-x="378" />
<glyph unicode="&#x200a;" horiz-adv-x="105" />
<glyph unicode="&#x2010;" horiz-adv-x="647" d="M0 399v234h647v-234h-647z" />
<glyph unicode="&#x2011;" horiz-adv-x="647" d="M0 399v234h647v-234h-647z" />
<glyph unicode="&#x2012;" horiz-adv-x="647" d="M0 399v234h647v-234h-647z" />
<glyph unicode="&#x2013;" horiz-adv-x="1024" d="M27 399v234h968v-234h-968z" />
<glyph unicode="&#x2014;" horiz-adv-x="1445" d="M0 399v234h1446v-234h-1446z" />
<glyph unicode="&#x2018;" horiz-adv-x="481" d="M53 1020q0 83 52.5 175.5t144.5 170.5h194q-58 -49 -99 -113t-56 -129q82 -13 118.5 -45.5t36.5 -91.5q0 -69 -55 -113.5t-141 -44.5q-89 0 -142 51.5t-53 139.5z" />
<glyph unicode="&#x2019;" horiz-adv-x="481" d="M39 860q59 50 100 114t54 128q-80 14 -117 46.5t-37 90.5q0 69 55.5 113.5t141.5 44.5q89 0 141.5 -51.5t52.5 -139.5q0 -83 -52.5 -175.5t-144.5 -170.5h-194z" />
<glyph unicode="&#x201a;" horiz-adv-x="481" d="M39 156q0 69 55.5 113t141.5 44q89 0 141.5 -51t52.5 -139q0 -83 -52.5 -175.5t-144.5 -170.5h-194q59 50 100 113.5t54 127.5q-80 14 -117 47t-37 91z" />
<glyph unicode="&#x201c;" horiz-adv-x="954" d="M53 1020q0 83 52.5 175.5t144.5 170.5h194q-58 -49 -99 -113t-56 -129q82 -13 118.5 -45.5t36.5 -91.5q0 -69 -55 -113.5t-141 -44.5q-89 0 -142 51.5t-53 139.5zM524 1020q0 83 52.5 175.5t144.5 170.5h194q-59 -50 -99.5 -114t-53.5 -128q80 -14 116.5 -46.5 t36.5 -90.5q0 -69 -55 -113.5t-141 -44.5q-89 0 -142 51.5t-53 139.5z" />
<glyph unicode="&#x201d;" horiz-adv-x="954" d="M39 860q59 50 100 114t54 128q-80 14 -117 46.5t-37 90.5q0 69 55.5 113.5t141.5 44.5q89 0 141.5 -51.5t52.5 -139.5q0 -83 -52.5 -175.5t-144.5 -170.5h-194zM510 860q123 102 156 242q-82 14 -119 46.5t-37 90.5q0 69 55.5 113.5t141.5 44.5q89 0 141.5 -51.5 t52.5 -139.5q0 -83 -51.5 -175.5t-142.5 -170.5h-197z" />
<glyph unicode="&#x201e;" horiz-adv-x="954" d="M39 156q0 69 55.5 113t141.5 44q89 0 141.5 -51t52.5 -139q0 -83 -52.5 -175.5t-144.5 -170.5h-194q59 50 100 113.5t54 127.5q-80 14 -117 47t-37 91zM510 156q0 69 55.5 113t141.5 44q89 0 141.5 -51t52.5 -139q0 -83 -51.5 -175.5t-142.5 -170.5h-197q59 49 100 112.5 t56 128.5q-82 13 -119 46t-37 92z" />
<glyph unicode="&#x2022;" horiz-adv-x="1366" d="M401 692q0 120 83.5 202.5t205.5 82.5q114 0 196.5 -83.5t82.5 -199.5q0 -118 -83 -201t-200 -83t-201 82.5t-84 199.5z" />
<glyph unicode="&#x2026;" horiz-adv-x="1658" d="M82 158q0 76 59 126t148 50q92 0 150.5 -50.5t58.5 -129.5q0 -75 -59 -124.5t-150 -49.5t-149 50t-58 128zM623 158q0 76 58.5 126t147.5 50q92 0 150.5 -50.5t58.5 -129.5q0 -75 -59 -124.5t-150 -49.5t-148.5 50t-57.5 128zM1163 158q0 76 59 126t148 50 q92 0 150.5 -50.5t58.5 -129.5q0 -75 -59 -124.5t-150 -49.5t-149 50t-58 128z" />
<glyph unicode="&#x202f;" horiz-adv-x="378" />
<glyph unicode="&#x2039;" horiz-adv-x="727" d="M41 471l250 502h319l-207 -500l207 -473h-319z" />
<glyph unicode="&#x203a;" horiz-adv-x="727" d="M117 0l207 500l-207 473h319l250 -471l-250 -502h-319z" />
<glyph unicode="&#x205f;" horiz-adv-x="473" />
<glyph unicode="&#x2122;" horiz-adv-x="1732" d="M-2 1196v170h661v-170h-221v-608h-221v608h-219zM741 588v778h295l160 -518l158 518h293v-778h-203v475l-152 -475h-198l-150 475v-475h-203z" />
<glyph unicode="&#x25fc;" horiz-adv-x="972" d="M0 0v973h973v-973h-973z" />
<glyph unicode="&#xfb01;" horiz-adv-x="1261" d="M6 733v240h150v28q0 121 22.5 191t77.5 117q94 82 268 82q92 0 170 -19v-252l-12 2q-60 13 -90 13q-69 0 -88 -54q-6 -20 -6 -108h180v-240h-174v-733h-348v733h-150zM762 1225q0 75 56 123.5t145 48.5q84 0 137 -47t53 -121q0 -77 -53.5 -123.5t-141.5 -46.5 q-89 0 -142.5 45.5t-53.5 120.5zM782 0v973h348v-973h-348z" />
<glyph unicode="&#xfb02;" horiz-adv-x="1261" d="M6 733v240h150v28q0 121 22.5 191t77.5 117q97 82 260 82q83 0 186 -25v-246l-14 2q-53 13 -96 13q-69 0 -88 -54q-6 -20 -6 -108h180v-240h-174v-733h-348v733h-150zM782 0v1366h348v-1366h-348z" />
</font>
</defs>
</svg>
