<?xml version="1.0" standalone="no"?>
<!DOCTYPE svg PUBLIC "-//W3C//DTD SVG 1.1//EN" "http://www.w3.org/Graphics/SVG/1.1/DTD/svg11.dtd" >
<svg xmlns="http://www.w3.org/2000/svg" xmlns:xlink="http://www.w3.org/1999/xlink" version="1.1">
<metadata></metadata>
<defs>
<font id="corporate_s_bqmedium" horiz-adv-x="1206" >
<font-face units-per-em="2048" ascent="1638" descent="-410" />
<missing-glyph horiz-adv-x="598" />
<glyph unicode="&#xfb01;" horiz-adv-x="1193" d="M37 862v168h141v66q0 45 2 91t12.5 89t33 82t63.5 69q55 41 109.5 49.5t76.5 8.5q31 0 82 -7.5t121 -33.5v-180q-35 12 -78 24t-82 12q-10 0 -24.5 -2t-32 -10t-32.5 -22.5t-23 -40.5q-8 -25 -9.5 -60t-3.5 -88v-47h248v-168h-246v-862h-217v862h-141zM799 1333 q0 23 5 39.5t9 24.5q10 25 27.5 39t35 22t33 10t23.5 2q25 2 51.5 -7t44.5 -25q20 -18 29.5 -47t9.5 -56q0 -59 -38 -96t-97 -37q-10 0 -27.5 2t-39.5 15q-23 12 -36.5 28.5t-19.5 32.5t-8 30.5t-2 22.5zM824 0v1030h219v-1030h-219z" />
<glyph unicode="&#xfb02;" horiz-adv-x="1193" d="M37 862v168h141v66q0 45 2 91t12.5 89t33 82t63.5 69q55 41 109.5 49.5t76.5 8.5q31 0 82 -7.5t121 -33.5v-180q-35 12 -78 24t-82 12q-10 0 -24.5 -2t-32 -10t-32.5 -22.5t-23 -40.5q-8 -25 -9.5 -60t-3.5 -88v-47h248v-168h-246v-862h-217v862h-141zM826 0v1456h219 v-1456h-219z" />
<glyph horiz-adv-x="0" />
<glyph unicode="&#xd;" horiz-adv-x="598" />
<glyph unicode=" "  horiz-adv-x="598" />
<glyph unicode="&#x09;" horiz-adv-x="598" />
<glyph unicode="&#xa0;" horiz-adv-x="598" />
<glyph unicode="!" horiz-adv-x="544" d="M125 127q0 59 43 102t104 43q59 0 103.5 -43t44.5 -102q0 -61 -44 -103t-106 -42q-59 0 -102 42t-43 103zM158 1415h229l-29 -969h-178z" />
<glyph unicode="&#x22;" horiz-adv-x="811" d="M106 1415v20.5t3 20.5q10 39 41.5 58.5t68.5 19.5q31 0 58.5 -16.5t37.5 -47.5q4 -16 5.5 -27t-1.5 -28l-83 -526h-48l-79 502q-2 12 -3 24zM490.5 1435.5q-1.5 10.5 3.5 20.5q10 39 40.5 58.5t67.5 19.5q31 0 59.5 -16.5t38.5 -47.5q4 -16 4.5 -27t-2.5 -28l-81 -526 h-48l-79 502q-2 12 -2 24q0 10 -1.5 20.5z" />
<glyph unicode="#" horiz-adv-x="1193" d="M0 471v158h305l33 219h-289v158h309l64 438h164l-62 -438h226l63 438h160l-60 -438h283v-158h-305l-33 -219h287v-158h-307l-68 -471h-164l68 471h-228l-65 -471h-168l70 471h-283zM469 629h227l31 219h-227z" />
<glyph unicode="$" d="M90 451h211q6 -80 20.5 -119t40.5 -72q39 -47 83 -65.5t102 -28.5v487q-106 35 -171 62.5t-110 56.5q-20 14 -44.5 39t-46 60.5t-37 85t-15.5 112.5q0 18 3 49t14.5 68t33 77t59.5 78q43 43 90.5 68t91.5 38t78.5 18t53.5 5v156h112v-156q14 -2 28.5 -3t29.5 -5 q102 -20 190 -78.5t129 -158.5q23 -49 26 -90t3 -60h-211l-6 36t-21 52q-18 35 -41.5 56.5t-48 34t-45 17.5t-33.5 7v-430q25 -10 51.5 -18.5t53.5 -18.5q78 -29 133 -58.5t93 -61.5t60.5 -66.5t39.5 -73.5q18 -51 22 -89t4 -61q0 -86 -33 -163q-12 -31 -37.5 -68t-66.5 -74 t-100.5 -66.5t-141.5 -43.5q-18 -4 -37.5 -6.5t-40.5 -4.5v-176h-112v176q-20 2 -62.5 7.5t-92.5 23t-104.5 48t-99.5 85.5q-33 37 -53 81t-31 91q-12 47 -13 85t-1 55zM338 1085q0 -14 3 -34.5t19 -49.5q23 -41 64 -64.5t123 -51.5v395q-57 -10 -107.5 -32.5t-79.5 -76.5 q-6 -12 -14 -32.5t-8 -53.5zM659 162q10 2 35 6t54.5 14.5t60.5 32t53 55.5q16 23 24.5 51.5t8.5 57.5q0 82 -55 141q-35 39 -84 58.5t-97 35.5v-452z" />
<glyph unicode="%" horiz-adv-x="1409" d="M63 1110q0 86 35 169t109 132q45 29 86 38t61 9q16 0 45 -5t66 -21q45 -20 80 -55.5t56.5 -79.5t32.5 -92t11 -97q0 -41 -9 -85t-26.5 -84t-45 -74t-64.5 -58q-16 -10 -54 -28.5t-92 -18.5q-20 2 -56 8t-79 31q-55 33 -86 79t-46 92t-19.5 85t-4.5 55zM190 0l844 1446 h183l-844 -1446h-183zM211 1108q0 -111 45 -164t98 -53q55 0 99.5 54t44.5 165q0 14 -3 52t-24 79q-16 37 -46 61.5t-71 24.5q-10 0 -27.5 -2t-35.5 -16q-29 -20 -54.5 -68.5t-25.5 -132.5zM764 338q0 63 15.5 114.5t37 89.5t47 62.5t47.5 38.5q14 10 52.5 26.5t91.5 16.5 q16 0 49 -5t74 -26q86 -47 127 -136t41 -181q0 -16 -4.5 -53t-18.5 -81t-43 -90t-80 -79q-16 -10 -54 -27.5t-93 -17.5q-18 0 -54 6t-79 31q-41 25 -70 59.5t-48.5 75.5t-28.5 86t-9 90zM911 338q0 -111 45 -165t99 -54q23 0 41 8t24 12q43 31 60.5 90.5t17.5 108.5 q-2 66 -16.5 105.5t-30.5 62.5q-25 33 -53.5 42t-44.5 9q-8 0 -27.5 -4t-40.5 -21q-29 -20 -51.5 -68t-22.5 -126z" />
<glyph unicode="&#x26;" horiz-adv-x="1269" d="M74 387q0 18 4 57t22 86q12 33 33 65t49.5 65.5t69.5 70.5t96 82l-55 74q-63 84 -81.5 138t-18.5 108q0 16 5 54t27 79q31 57 75 88.5t89 47t84 19.5t55 4q14 0 46 -2t71 -14t78 -36.5t70 -67.5q51 -76 51 -168q0 -37 -5 -60.5t-10 -38.5q-27 -88 -85 -147.5t-123 -114.5 l268 -366q4 6 10 17t12 28q10 29 17.5 77t7.5 119v45l172 -2q0 -29 1 -54.5t-1 -53.5q-6 -133 -40 -212t-67 -124l187 -250h-230l-77 115q-12 -12 -26.5 -25.5t-43.5 -32.5q-41 -29 -84 -44t-81 -22t-67.5 -8t-46.5 -1q-20 0 -66 3t-104 19q-133 41 -210.5 141.5 t-77.5 241.5zM274 373q0 -31 12.5 -69t43 -70.5t82 -55t127.5 -22.5q29 0 64.5 5t86.5 32q8 4 19.5 11t27.5 19q10 8 16.5 15.5t16.5 17.5l-303 399q-33 -25 -67.5 -54.5t-62.5 -65t-45.5 -75.5t-17.5 -87zM389 1137q0 -33 12.5 -64t30 -59.5t38 -55t38.5 -49.5 q10 8 20.5 16.5t20.5 18.5q4 4 22.5 21.5t39 43t36 60.5t15.5 72q0 10 -3.5 31.5t-21.5 44.5q-25 33 -60.5 40t-48.5 7q-10 0 -32.5 -4.5t-46 -17.5t-42 -38.5t-18.5 -66.5z" />
<glyph unicode="'" horiz-adv-x="425" d="M106 1415v20.5t3 20.5q10 39 41.5 58.5t68.5 19.5q31 0 58.5 -16.5t37.5 -47.5q4 -16 5.5 -27t-1.5 -28l-83 -526h-48l-79 502q-2 12 -3 24z" />
<glyph unicode="(" horiz-adv-x="641" d="M143 514q0 147 16.5 272t42 225.5t56.5 178.5t59 131q29 53 51.5 86t37.5 51h163q-33 -45 -55 -88q-31 -59 -62.5 -139t-56 -185.5t-41 -235.5t-16.5 -286q0 -35 2 -122t16.5 -202.5t46 -245.5t89.5 -253q23 -49 44 -83t33 -52h-163q-20 27 -38 52.5t-34 53.5 q-31 53 -64.5 134t-61.5 186.5t-46.5 236.5t-18.5 285z" />
<glyph unicode=")" horiz-adv-x="641" d="M70 -434q6 8 11 15t9 16q10 16 19.5 32.5t19.5 32.5q31 57 61.5 138t55 185.5t40 233.5t15.5 285t-14.5 285t-38 233t-52 185t-59.5 141q-31 57 -67 110h163q20 -25 45 -60.5t56 -97.5q27 -53 55.5 -128.5t53 -174t40 -220.5t15.5 -265q0 -37 -3 -122t-20.5 -196.5 t-51.5 -237.5t-95 -245q-12 -23 -22.5 -41t-22 -34.5t-23.5 -33t-27 -36.5h-163z" />
<glyph unicode="*" horiz-adv-x="1087" d="M207 1124l33 105l249 -80v262h111v-262l248 80l35 -105l-250 -80l153 -213l-88 -63l-153 211l-154 -211l-90 63l154 213z" />
<glyph unicode="+" d="M111 645v162h407v422h168v-422h408v-162h-408v-422h-168v422h-407z" />
<glyph unicode="," horiz-adv-x="532" d="M61 -410q31 33 50 64q35 49 68.5 120.5t49.5 131.5q6 23 8.5 40t6.5 56q-8 0 -21.5 2t-32.5 8q-31 8 -48 25.5t-27.5 36t-13.5 36t-3 27.5q0 18 4 33.5t7 19.5q12 31 32.5 49.5t42 27.5t40 12.5t28.5 3.5q29 0 49.5 -9.5t28.5 -13.5q31 -18 55.5 -60t24.5 -120 q0 -20 -2 -48t-13 -69q-25 -104 -79 -195.5t-117 -177.5h-138z" />
<glyph unicode="-" horiz-adv-x="575" d="M-2 467v160h580v-160h-580z" />
<glyph unicode="." horiz-adv-x="555" d="M129 127q2 59 45 102t102 43q61 0 105.5 -43t44.5 -102q-2 -61 -46 -103t-104 -42q-59 0 -103 42t-44 103z" />
<glyph unicode="/" horiz-adv-x="1226" d="M82 -375l885 1821h178l-885 -1821h-178z" />
<glyph unicode="0" d="M111 709q0 20 2 73.5t12 124t31.5 148.5t60.5 149q41 76 102 131q41 37 83 57.5t80 31t68.5 13.5t53.5 3q20 0 50 -2t67 -12.5t77 -30t81 -54.5q63 -57 108 -133q41 -72 74 -191.5t33 -307.5q0 -20 -1 -75.5t-12.5 -128.5t-35 -155t-66.5 -153q-31 -49 -60.5 -80 t-48.5 -45q-41 -33 -79.5 -51.5t-74.5 -27.5t-65.5 -11t-48.5 -2q-106 0 -169.5 31.5t-96.5 58.5q-16 12 -40 35.5t-50 62.5q-49 72 -92 205t-43 336zM332 709q0 -37 5 -116t28 -177q18 -72 42.5 -121t55.5 -79t66.5 -42t74.5 -12q23 0 49.5 5t53 21.5t52 46t48.5 78.5 q18 41 30.5 91.5t20.5 103.5t11 105.5t3 95.5q0 39 -4 115.5t-26 174.5q-35 145 -98.5 201.5t-141.5 56.5q-51 0 -106.5 -28.5t-98.5 -124.5q-25 -55 -38 -119.5t-19 -123t-7 -100.5t-1 -52z" />
<glyph unicode="1" d="M369 1053v129q10 0 39.5 1t67.5 10t78 28.5t71 56.5q33 41 46 84t17 57h150v-1419h-217v1053h-252z" />
<glyph unicode="2" d="M166 0v174q51 66 102 128.5t105 125.5q70 84 137.5 167t134.5 169q45 59 84 115q29 41 51.5 91t22.5 103q0 43 -16.5 75t-44 54.5t-64.5 33.5t-76 11t-65.5 -7t-38.5 -13q-45 -20 -83 -67.5t-46 -149.5h-187q-2 20 0 61t19 94q29 96 86 150.5t120.5 82t120 35t84.5 7.5 q18 0 61.5 -3t95.5 -19.5t105.5 -49.5t94.5 -92q16 -27 36.5 -75t20.5 -124q0 -23 -4 -60.5t-25 -86.5q-29 -76 -95 -166t-179 -227q-68 -86 -137.5 -169t-141.5 -169h596v-199h-874z" />
<glyph unicode="3" d="M137 414h195q2 -86 33.5 -134.5t73.5 -73t86 -30.5t71 -6q84 0 134 26.5t77 65.5t35 81t8 73q0 16 -5 57t-38 82q-27 35 -62.5 54.5t-75.5 28.5t-81 11t-80 2h-47l2 183q6 0 35.5 -2.5t68.5 1t82 14.5t78 34q25 16 36 29.5t17 25.5q37 51 37 121q0 10 -1 29.5t-11 43.5 q-6 18 -20.5 39t-37 38.5t-56.5 29.5t-81 12q-41 0 -69.5 -8t-42.5 -16q-37 -18 -58.5 -45t-33 -53.5t-15.5 -50t-6 -34.5h-188q2 18 6 59.5t20 90.5q14 39 43 82t77 80t117.5 61.5t166.5 24.5q125 0 205.5 -39t126 -95.5t62.5 -120t17 -112.5q0 -16 -4 -46t-15 -65.5 t-33.5 -73.5t-61.5 -69q-20 -16 -42 -28.5t-65 -30.5q12 -4 36 -12.5t52 -24.5q57 -33 91 -76t49.5 -86t19.5 -81t4 -60q0 -18 -2 -49t-11 -68t-28.5 -79t-52.5 -85q-47 -57 -102.5 -90t-107.5 -48t-95 -18t-66 -3q-113 0 -191.5 27.5t-132 69.5t-83 92t-43.5 97 q-14 49 -15.5 89t-1.5 59z" />
<glyph unicode="4" d="M80 315v172l555 932h242v-925h249v-179h-245v-331h-219v331h-582zM285 494h387v671z" />
<glyph unicode="5" d="M145 373h203q6 -33 10 -46.5t11 -29.5q8 -16 23.5 -38.5t40 -43t60 -34t85.5 -13.5q8 0 33.5 2t54.5 12q45 16 76.5 49t52 75t30 88t9.5 89q0 53 -13.5 105.5t-42 94.5t-74 67.5t-108.5 25.5q-12 0 -35.5 -2t-52.5 -12q-53 -18 -84 -47t-62 -72l-188 27l121 741h682 l-16 -194h-502l-58 -338q35 25 86.5 51t145.5 26q61 0 104 -11t66 -21q68 -29 117 -73t79.5 -100.5t46 -122t15.5 -134.5q0 -18 -2 -50t-10.5 -72t-25.5 -85t-46 -90q-41 -63 -99.5 -113.5t-129.5 -77.5q-53 -20 -97.5 -23t-64.5 -3q-23 0 -67 3t-95 19t-105.5 50t-97.5 95 q-49 70 -61.5 132.5t-14.5 93.5z" />
<glyph unicode="6" d="M139 489q0 72 23.5 181.5t103.5 255.5q76 137 180.5 267t210.5 245l238 -2q-55 -63 -108.5 -130t-104.5 -135q-53 -68 -96 -133q-31 -43 -62 -96q20 8 49 14.5t76 6.5q102 0 166 -33t96 -62q25 -20 51.5 -54t50 -81t38 -108.5t14.5 -139.5q0 -20 -2 -55t-11.5 -80 t-28.5 -94t-54 -96q-16 -25 -46 -56.5t-73 -59.5t-102.5 -46t-137.5 -18q-18 0 -48 2t-65.5 10t-76.5 25.5t-82 48.5q-29 20 -62.5 56t-64.5 88t-51.5 120.5t-20.5 158.5zM360 479q0 -12 2.5 -46t14.5 -75t36.5 -83t69.5 -72q37 -25 71 -31t50 -8q27 0 55.5 6t51.5 20 q37 20 63.5 54.5t41.5 72t22.5 79.5t7.5 83q0 12 -2 45t-13.5 75t-36 84t-69.5 73q-27 16 -57.5 26.5t-65.5 10.5q-10 0 -29.5 -3.5t-43 -11.5t-49 -23.5t-46.5 -39.5q-23 -27 -48.5 -86.5t-25.5 -149.5z" />
<glyph unicode="7" d="M141 1204v207h922v-170l-678 -1241h-240l660 1204h-664z" />
<glyph unicode="8" d="M137 410q0 18 3 52t15.5 73.5t38 83t68.5 79.5q12 10 27.5 19.5t42.5 25.5q-8 4 -29.5 18.5t-44.5 37.5q-47 47 -67.5 109.5t-20.5 127.5q0 92 35 166t95 127t139 82t165 29t165 -30t138.5 -83t94 -127t34.5 -166q0 -12 -2 -39.5t-11 -60.5t-26.5 -70t-50.5 -67 q-14 -14 -28.5 -24.5t-45.5 -29.5q29 -14 40.5 -22t23.5 -19q68 -55 100.5 -130.5t32.5 -161.5q0 -98 -38 -178t-101.5 -136.5t-148.5 -86t-179 -29.5q-47 0 -89 7t-87 23q-135 47 -212 152.5t-77 247.5zM358 403q0 -43 7.5 -70.5t15.5 -43.5q31 -66 92.5 -98.5t130.5 -32.5 q35 0 61.5 7t36.5 11q74 29 110 89.5t36 137.5q0 12 -3 44t-18 67q-31 66 -92 101.5t-133 35.5q-31 0 -63.5 -8t-59.5 -22q-43 -23 -67.5 -53.5t-35.5 -61.5t-14.5 -58.5t-3.5 -44.5zM389 1042q0 -41 14 -81q16 -45 44 -72t58 -41t56.5 -18.5t42.5 -4.5q39 0 66.5 10.5 t40.5 16.5q14 8 33.5 22.5t35 38t26.5 56t11 75.5q0 10 -2 35t-12 51q-23 63 -79 97.5t-122 34.5q-96 0 -154.5 -61.5t-58.5 -158.5z" />
<glyph unicode="9" d="M139 924q0 106 33 199.5t93.5 164t148.5 111.5t198 41q29 0 85.5 -7.5t123.5 -41.5q66 -35 112 -84.5t75.5 -109.5t43 -128t13.5 -137q0 -29 -4 -88.5t-27 -134.5q-29 -94 -97.5 -226.5t-213.5 -306.5q-41 -53 -86 -103l-90 -100h-238q49 57 95.5 115.5t93.5 118.5 q31 41 60.5 82t57.5 84q16 25 33 49t33 51q-23 -8 -51.5 -15t-77.5 -7q-39 0 -109.5 15t-146.5 81q-25 20 -52.5 52t-51 78t-39 107.5t-15.5 139.5zM360 936q0 -80 20.5 -134t37.5 -79q8 -14 21.5 -29.5t39.5 -34.5q39 -27 73 -31.5t52 -4.5q14 0 48 5t69 27q43 29 84 96.5 t41 186.5q0 8 -2 32.5t-8.5 57.5t-18.5 69t-33 66q-31 45 -80 68.5t-102 21.5q-16 0 -50 -6t-71 -33q-66 -45 -93.5 -124.5t-27.5 -153.5z" />
<glyph unicode=":" horiz-adv-x="555" d="M129 127q2 59 45 102t102 43q61 0 105.5 -43t44.5 -102q-2 -61 -46 -103t-104 -42q-59 0 -103 42t-44 103zM129 883q0 61 44 104t103 43q61 0 105.5 -43t44.5 -104q-2 -59 -45 -102.5t-105 -43.5q-59 0 -103 42t-44 104z" />
<glyph unicode=";" horiz-adv-x="532" d="M61 -410q31 33 50 64q35 49 68.5 120.5t49.5 131.5q6 23 8.5 40t6.5 56q-8 0 -21.5 2t-32.5 8q-31 8 -48 25.5t-27.5 36t-13.5 36t-3 27.5q0 18 4 33.5t7 19.5q12 31 32.5 49.5t42 27.5t40 12.5t28.5 3.5q29 0 49.5 -9.5t28.5 -13.5q31 -18 55.5 -60t24.5 -120 q0 -20 -2 -48t-13 -69q-25 -104 -79 -195.5t-117 -177.5h-138zM102 885q2 59 45.5 102t102.5 43q61 0 104 -43t43 -104q0 -59 -43 -102.5t-104 -43.5q-59 0 -103.5 42t-44.5 106z" />
<glyph unicode="&#x3c;" horiz-adv-x="1024" d="M0 635v176l1024 496v-179l-821 -405l821 -406v-178z" />
<glyph unicode="=" d="M111 481v162h983v-162h-983zM111 809v162h983v-162h-983z" />
<glyph unicode="&#x3e;" horiz-adv-x="1024" d="M0 139v178l821 406l-821 405v179l1024 -496v-176z" />
<glyph unicode="?" horiz-adv-x="894" d="M104 1055q2 41 7.5 85t19.5 83q12 33 38 69.5t68 68.5t102 53.5t144 21.5q68 0 118 -13.5t87 -33t61.5 -45t41.5 -52.5q14 -23 30.5 -66.5t16.5 -111.5q0 -16 -3.5 -48t-19.5 -73q-29 -66 -81 -123t-99 -108q-25 -27 -39 -44.5t-25 -31.5q-10 -16 -17 -32.5t-11 -36 t-5 -46t-1 -63.5v-66h-201v124t5 88t18.5 69t37.5 65q31 41 66 78t69 76q31 35 54.5 73t23.5 91q0 18 -6 41.5t-22.5 45t-46 37t-76.5 15.5q-10 0 -29.5 -2t-44.5 -12q-39 -16 -69.5 -53t-34.5 -123h-177zM289 129q2 59 45 101t102 42q61 0 104.5 -42t45.5 -103 q-2 -63 -46 -104t-104 -41q-61 0 -104 42t-43 105z" />
<glyph unicode="@" horiz-adv-x="1835" d="M141 481q0 41 6.5 105.5t27 144.5t59 169t106.5 179q33 45 95.5 109.5t154.5 125t216 102.5t281 42q23 0 63 -2t89 -12t106.5 -30.5t112.5 -59.5q35 -25 76 -64t77 -98t59.5 -139t23.5 -185q0 -39 -3 -74.5t-5 -45.5q-4 -27 -14.5 -80.5t-34 -120t-63.5 -140t-101 -137.5 q-10 -10 -32 -30.5t-55.5 -42t-75.5 -38t-91 -16.5q-37 0 -65 10.5t-46 26t-28.5 32.5t-16.5 32q-6 16 -9 30.5t-5 42.5q-6 -8 -12.5 -16t-14.5 -18q-10 -12 -32.5 -35t-56.5 -46.5t-78 -40t-97 -16.5q-14 0 -39 3.5t-55 13.5q-31 12 -63 35.5t-56.5 61.5t-40 91t-15.5 127 q0 131 51.5 262t149.5 224q47 43 106.5 70.5t125.5 25.5q16 0 40.5 -3t52 -14.5t56.5 -33t53 -58.5q12 -18 33 -63l31 127h139l-67 -307q-6 -35 -16.5 -81t-20 -94.5t-15.5 -94.5t-6 -81q0 -47 17.5 -68.5t44.5 -21.5q23 0 40 8.5t21 12.5q29 16 59.5 49t69.5 94 q41 66 65.5 131.5t37 122.5t15.5 103.5t3 74.5q0 25 -5 88.5t-38 132.5q-41 94 -107.5 147.5t-135 79t-129 32t-87.5 6.5q-41 0 -98 -6.5t-125 -28t-143.5 -62.5t-151.5 -108q-141 -127 -220 -300t-79 -362q0 -16 1 -43.5t6 -64.5t16.5 -79t29.5 -85q41 -92 107.5 -157.5 t148.5 -108.5t174 -63.5t187 -20.5q43 0 102 5t130 24.5t152 56.5t167 98q16 12 29.5 22.5t27.5 22.5t32.5 28.5t45.5 41.5l65 -84q-23 -25 -75 -71t-127 -93q-123 -78 -261.5 -121t-285.5 -43q-139 0 -284.5 44t-256.5 134q-37 31 -80 78t-80 114.5t-61.5 158t-24.5 206.5z M651 485q0 -59 15.5 -99t39 -63.5t52 -33.5t57.5 -10q20 0 52 9t71 38q57 43 91 103t50.5 118.5t21.5 105t5 60.5q2 61 -14.5 103t-43 66.5t-56 36t-56.5 11.5q-47 -2 -80 -20.5t-45 -28.5q-41 -33 -70.5 -80t-50 -101.5t-30 -109.5t-9.5 -105z" />
<glyph unicode="A" horiz-adv-x="1269" d="M33 0l493 1450h217l494 -1450h-231l-109 340h-526l-109 -340h-229zM430 532h410l-207 650z" />
<glyph unicode="B" horiz-adv-x="1236" d="M180 0v1446h436q55 -2 111.5 -7t109 -21.5t98.5 -46.5t83 -79q18 -27 39.5 -78t21.5 -131q0 -55 -11 -97t-29.5 -72.5t-39 -52t-38.5 -34.5q-23 -16 -47.5 -26t-71.5 -27q33 -8 61.5 -16t57.5 -23q27 -12 60.5 -36.5t64 -63.5t51 -94.5t20.5 -130.5q0 -18 -2 -48t-14 -71 q-43 -158 -187 -232q-41 -20 -86 -31.5t-101 -17.5t-127 -8t-161 -2h-299zM399 184h136h64.5t77.5 3t77 10.5t63 19.5q47 23 65.5 53.5t24.5 51.5q4 12 11.5 38.5t7.5 63.5q0 57 -16.5 94t-30.5 55q-29 37 -68 55.5t-85 27t-94 9.5t-93 1h-140v-482zM399 846h129 q41 0 88.5 2t90.5 12t78.5 35t54.5 72q6 12 12 35.5t6 56.5q0 10 -2 31.5t-11 46t-26.5 48t-50.5 42.5q-41 25 -98.5 30t-155.5 5h-115v-416z" />
<glyph unicode="C" horiz-adv-x="1300" d="M92 717q0 133 23.5 236.5t60.5 181t83 132t93 89.5q53 41 107.5 64.5t102.5 34.5t87 14.5t64 3.5q141 0 262 -63.5t182 -197.5q23 -49 33 -99t16 -103h-198q-10 47 -21.5 76.5t-21.5 48.5q-12 20 -31 45.5t-49.5 47t-73.5 36t-102 14.5q-18 0 -46 -2t-60 -12.5t-66.5 -31 t-67.5 -56.5q-55 -59 -98 -168t-43 -289q0 -61 7 -125t25.5 -125t49 -117.5t77.5 -99.5q33 -31 67 -47.5t64.5 -24.5t55 -10t41.5 -2q23 0 75 8t105 49q43 33 67.5 78t38 88t17.5 78t6 47l203 -2q0 -18 -3 -55t-13.5 -85t-31 -101.5t-55.5 -104.5q-20 -29 -53 -63.5 t-81 -63.5t-114.5 -48.5t-152.5 -19.5q-18 0 -47 1t-66 7.5t-80 18.5t-86 35q-59 31 -121.5 83t-113.5 134t-84 196.5t-33 268.5z" />
<glyph unicode="D" horiz-adv-x="1386" d="M182 0v1446h410q88 -4 154.5 -13.5t117.5 -25.5t90 -37.5t74 -48.5q39 -31 85 -81t86 -124t65.5 -171t25.5 -222q0 -76 -12 -153.5t-39 -151.5t-69 -139.5t-99 -118.5q-66 -61 -141.5 -94t-155.5 -47.5t-163 -16.5t-165 -2h-264zM406 193h118q84 0 130 3t87 13 q37 8 81 26.5t85 55.5t76 95t55 146q16 66 18.5 117t2.5 76q0 78 -14.5 158t-49 148.5t-91 121.5t-140.5 78q-29 8 -57.5 13t-62.5 7t-76 3t-99 1h-63v-1062z" />
<glyph unicode="E" horiz-adv-x="1130" d="M180 0v1446h856v-191h-633v-409h582v-193h-582v-460h652v-193h-875z" />
<glyph unicode="F" horiz-adv-x="1087" d="M178 0v1446h856v-191h-633v-409h580v-193h-573v-653h-230z" />
<glyph unicode="G" horiz-adv-x="1376" d="M96 725q0 31 5 110.5t33 178t89.5 199t171.5 169.5q41 25 123 58t203 33q68 0 134.5 -14.5t125.5 -44.5t108.5 -76t81.5 -109q20 -37 35 -84t23 -133h-199q-4 18 -12 53t-28.5 73t-56.5 71.5t-95 52.5q-35 12 -68 15t-45 3q-23 0 -57.5 -4t-74.5 -19.5t-82 -46t-79 -82.5 q-29 -43 -48 -93t-31.5 -103t-17.5 -107.5t-5 -103.5q0 -98 19.5 -196.5t67.5 -178.5t127 -129t199 -49q78 0 163 25.5t153 68.5v295h-293v176h483v-598q-12 -10 -42.5 -29.5t-69.5 -39.5q-23 -10 -61 -26.5t-89 -31t-113.5 -25t-132.5 -10.5q-96 0 -171.5 19.5t-134 49.5 t-98.5 63.5t-67 64.5q-29 33 -59.5 84t-56 119.5t-42 155.5t-16.5 196z" />
<glyph unicode="H" horiz-adv-x="1429" d="M178 0v1446h225v-598h623v598h223v-1446h-223v662h-623v-662h-225z" />
<glyph unicode="I" horiz-adv-x="585" d="M180 0v1446h226v-1446h-226z" />
<glyph unicode="J" horiz-adv-x="681" d="M-4 -53h70.5t78.5 9t71 28.5t48 56.5q14 31 15.5 97.5t1.5 152.5v1155h227v-1153v-70t-2 -69q-2 -94 -22.5 -174t-100.5 -142q-6 -4 -20.5 -14t-32.5 -21q-37 -16 -100.5 -31.5t-159.5 -15.5h-37t-37 2v189z" />
<glyph unicode="K" horiz-adv-x="1290" d="M182 0v1446h224v-1446h-224zM410 764l557 682h262l-565 -676l610 -770h-293z" />
<glyph unicode="L" horiz-adv-x="1077" d="M180 0v1446h230v-1253h622v-193h-852z" />
<glyph unicode="M" horiz-adv-x="1718" d="M180 0v1446h322l356 -1204l361 1204h319v-1446h-207v1200l-358 -1200h-230l-356 1200v-1200h-207z" />
<glyph unicode="N" horiz-adv-x="1449" d="M180 0v1446h240l639 -1104v1104h211v-1446h-232l-645 1104v-1104h-213z" />
<glyph unicode="O" horiz-adv-x="1429" d="M90 723q0 92 15.5 184t49 177t89 159t135.5 129q51 35 102 55.5t95.5 30.5t80 12.5t58.5 2.5q82 0 147.5 -17.5t116.5 -42t87 -52.5t58 -50q37 -35 75 -87.5t68.5 -124t50 -164.5t19.5 -212q0 -33 -5 -112t-33.5 -176t-89 -196.5t-171.5 -170.5q-145 -94 -323 -95 q-39 0 -122 12.5t-175 65.5q-121 70 -187.5 171.5t-97.5 201.5t-37 183t-6 116zM328 723q0 -16 1 -53t7 -85t20.5 -104.5t40.5 -107.5q23 -45 44.5 -71t37.5 -42q33 -33 68 -52.5t66.5 -28.5t57 -11t44.5 -2q100 0 177 48t126 134q29 49 56.5 142.5t27.5 232.5q0 14 -2 68.5 t-15.5 124t-45 144.5t-91.5 130q-29 27 -84 58.5t-149 31.5q-23 0 -71 -6t-101 -39q-84 -49 -128 -130t-63.5 -162t-21.5 -144.5t-2 -75.5z" />
<glyph unicode="P" horiz-adv-x="1183" d="M178 0v1446h293q158 0 256 -10.5t168 -36.5q86 -35 135 -92.5t72.5 -117t30 -112.5t6.5 -80q0 -16 -2 -50t-13 -75q-8 -33 -26.5 -74.5t-53 -83.5t-90 -77t-137.5 -53q-31 -6 -61.5 -10.5t-67.5 -6.5t-83 -3t-107 -1h-90v-563h-230zM403 756h95h29q133 0 211 16 q86 18 132 90q20 31 28.5 66t8.5 71q0 59 -20.5 113.5t-69.5 89.5q-31 20 -71.5 31.5t-85 15.5t-87.5 5t-77 1h-93v-499z" />
<glyph unicode="Q" horiz-adv-x="1462" d="M90 723q0 94 16.5 188.5t51.5 180.5t92 159.5t141 128.5q49 33 98.5 51.5t92.5 27.5t76.5 11.5t56.5 2.5q37 0 113.5 -10.5t168.5 -57.5q92 -51 158 -126t105.5 -165t58 -190.5t18.5 -198.5q0 -154 -27.5 -251t-56.5 -157l293 -325h-264l-145 158q-31 -33 -50.5 -48.5 t-39.5 -27.5q-20 -14 -51 -31.5t-73 -33t-94.5 -26t-115.5 -10.5q-94 0 -159 19.5t-97 36.5q-100 49 -170 124.5t-114 168t-63.5 196t-19.5 205.5zM326 723q0 -16 2 -68.5t17 -121t46 -142.5t90 -131q49 -49 105.5 -70.5t128.5 -21.5q23 0 72 6t102 39q82 51 125 132 t62.5 161t22.5 142.5t3 74.5q0 16 -2 69.5t-17.5 122t-47 142t-89.5 131.5q-29 27 -84 59.5t-149 32.5q-23 0 -75 -7t-108 -44q-59 -41 -98 -100.5t-62.5 -128t-33.5 -140t-10 -137.5z" />
<glyph unicode="R" horiz-adv-x="1247" d="M178 0v1446h311q59 0 133 -1t134 -9q23 -4 62.5 -12.5t86.5 -29t94.5 -57.5t81.5 -98q16 -29 37 -84q19 -50 19 -123v-14q0 -12 -2 -38t-8.5 -57.5t-18.5 -67.5t-35 -71t-52.5 -64.5t-64.5 -51.5q-31 -20 -56.5 -30.5t-37.5 -16.5l357 -621h-265l-329 584h-224v-584h-223 zM401 776h217q23 2 71 7t96.5 29t84 72t35.5 138q0 43 -11 75.5t-26.5 56.5t-34 38t-32.5 22q-31 18 -71 26.5t-82 11.5t-83 3h-73h-91v-479z" />
<glyph unicode="S" d="M86 467h219q2 -18 7 -55t22.5 -79t53.5 -81t97 -62q18 -6 51 -14t82 -8q10 0 36 2t57.5 10t65.5 25.5t61 48.5q29 35 36 64.5t7 48.5q0 23 -9.5 57.5t-48.5 71.5q-25 23 -59.5 43t-71.5 37.5t-72.5 33t-66.5 27.5q-43 18 -85 36.5t-83 41.5q-23 12 -64.5 36.5t-82.5 66.5 t-72 103.5t-31 147.5q0 27 8.5 82t42.5 117q66 109 180.5 157t235.5 48q18 0 57 -2.5t86.5 -14.5t99.5 -36.5t99 -67.5q12 -14 40 -47t48 -82q14 -33 23.5 -70t13.5 -106h-217q-4 27 -8 50t-17 50q-20 47 -54 73.5t-69.5 39t-65.5 15.5t-44 3q-10 0 -33.5 -2t-53.5 -10.5 t-59.5 -25.5t-54.5 -50q-23 -29 -29 -54.5t-6 -41.5q0 -14 4.5 -36t22.5 -46q29 -39 78 -63.5t137 -61.5q53 -23 104.5 -45.5t104.5 -44.5q16 -8 49 -23.5t72 -40.5q16 -10 38.5 -26.5t46 -41t45 -60.5t34.5 -83q4 -14 10 -46t6 -73q0 -23 -6 -76t-35 -112q-18 -41 -53 -83 t-90.5 -78t-132 -58.5t-179.5 -22.5q-31 0 -98 6.5t-144 37t-147.5 93t-107.5 175.5q-20 61 -24.5 110t-6.5 72z" />
<glyph unicode="T" horiz-adv-x="1056" d="M37 1255v191h983v-191h-381v-1255h-223v1255h-379z" />
<glyph unicode="U" horiz-adv-x="1419" d="M166 602v844h223v-840v-22.5v-50t2 -61.5t6 -56q10 -76 44 -127t102 -84q53 -27 99 -32t69 -5q10 0 39.5 2t66.5 12.5t77 30.5t71 57q27 33 40 76t18 88t5 89v83v840h225v-844q0 -51 -1 -104.5t-7 -106.5t-21.5 -104t-45.5 -97q-23 -37 -62 -74.5t-95 -69.5t-134 -52.5 t-178 -20.5q-117 0 -230.5 36t-197.5 128q-16 16 -41 52t-43 90q-27 77 -30 161q-2 51 -2 99q0 32 1 63z" />
<glyph unicode="V" horiz-adv-x="1269" d="M20 1446h240l377 -1190l375 1190h235l-499 -1450h-232z" />
<glyph unicode="W" horiz-adv-x="1792" d="M29 1446h211l278 -1178l283 1178h192l285 -1178l281 1178h206l-360 -1450h-250l-260 1030l-258 -1030h-250z" />
<glyph unicode="X" horiz-adv-x="1226" d="M33 0l452 756l-422 690h259l294 -498l299 498h256l-426 -690l451 -756h-256l-324 549l-329 -549h-254z" />
<glyph unicode="Y" horiz-adv-x="1173" d="M14 1446h252l324 -623l319 623h250l-461 -858v-588h-223v588z" />
<glyph unicode="Z" horiz-adv-x="1077" d="M57 0v174l697 1083h-641v189h911v-156l-702 -1097h684v-193h-949z" />
<glyph unicode="[" horiz-adv-x="641" d="M180 -422v1868h383v-170h-194v-1526h194v-172h-383z" />
<glyph unicode="\" horiz-adv-x="724" d="M53 1446h164l455 -1446h-164z" />
<glyph unicode="]" horiz-adv-x="641" d="M76 -252h194v1528h-194v170h385v-1868h-385v170z" />
<glyph unicode="^" horiz-adv-x="1492" d="M291 688l385 758h158l368 -758h-198l-254 533l-263 -533h-196z" />
<glyph unicode="_" horiz-adv-x="1024" d="M-20 -281h1064v-161h-1064v161z" />
<glyph unicode="`" horiz-adv-x="598" d="M-254 1473h277l251 -328h-165z" />
<glyph unicode="a" horiz-adv-x="1077" d="M96 270q0 20 4 52t18.5 68t43 74t76.5 68q47 31 108.5 52.5t126 37t129 26.5t117.5 22v28q0 37 -2 55.5t-8 37.5q-18 53 -67.5 71.5t-100.5 18.5q-55 0 -92 -12.5t-60.5 -33t-35 -45t-15.5 -51.5h-207q8 59 20.5 93t26.5 57q37 61 95.5 95t117 49.5t104.5 17.5t58 2 q8 0 34.5 -1t62.5 -6.5t75 -16.5t74 -32q16 -10 48 -37.5t52 -78.5q13 -35 21 -91q6 -44 6 -105v-34v-403q0 -96 6 -149.5t26 -98.5h-196q-14 51 -16.5 74.5t-2.5 52.5q-14 -25 -36.5 -51.5t-57.5 -48t-84 -36t-114 -14.5q-14 0 -52.5 2.5t-84.5 14.5t-93 39.5t-80 81.5 q-14 20 -29.5 58t-15.5 97zM315 293q0 -39 21 -74q16 -23 52 -48.5t104 -25.5q10 0 31.5 2.5t47 10.5t52 24.5t49.5 44.5q14 18 23.5 38t14.5 44.5t7 57t2 75.5v80q-139 -23 -227.5 -47t-133.5 -72q-43 -47 -43 -110z" />
<glyph unicode="b" horiz-adv-x="1150" d="M143 0q10 51 11.5 112.5t1.5 168.5v1175h213v-565q14 18 36.5 46t56.5 53.5t81 44t112 18.5q27 0 63 -5.5t78 -22.5t85 -50t82 -88q37 -51 70.5 -138t33.5 -233q0 -55 -6 -106.5t-23 -104.5q-23 -72 -59.5 -131t-88.5 -103t-117.5 -69t-141.5 -25q-68 0 -126.5 23 t-105.5 74q-16 20 -25 33.5t-22 33.5q0 -25 -2 -57.5t-16 -83.5h-191zM367 508q0 -10 2 -41t9 -71t23.5 -84t47.5 -81q43 -51 87 -62t72 -11q12 0 41 4t62 22q53 31 80.5 85.5t40 107.5t14.5 95t2 48q0 55 -10.5 115.5t-36 113t-69.5 87t-114 36.5q-49 0 -94 -20.5 t-80.5 -65.5t-56 -113.5t-20.5 -164.5z" />
<glyph unicode="c" horiz-adv-x="1044" d="M84 514q0 23 3 73t19 109q6 25 23.5 72t51.5 98.5t88.5 99.5t136.5 72q47 16 91 18.5t60 2.5q80 0 149.5 -23.5t129.5 -79.5q16 -16 38.5 -43.5t43.5 -74.5q12 -27 20 -57.5t16 -90.5h-211q-4 35 -17 73t-38 66q-16 18 -48 37t-89 19q-74 0 -122 -37t-75.5 -92.5 t-39 -121t-11.5 -122.5q0 -37 5 -79t16.5 -85t30 -81t46.5 -64q18 -16 54.5 -37t97.5 -21q68 0 106.5 27t58 62.5t27 71.5t9.5 54l207 -2q0 -4 -2.5 -27.5t-6.5 -45.5q-16 -66 -53 -130.5t-90 -105.5q-33 -25 -96.5 -51.5t-161.5 -26.5q-53 0 -106.5 11.5t-100.5 35.5 q-72 35 -121 89.5t-79.5 120t-45 139t-14.5 147.5z" />
<glyph unicode="d" horiz-adv-x="1150" d="M86 506q0 23 3 80t22 123q18 70 54 132t85 109t113.5 75t142.5 28q12 0 34.5 -2t50 -8.5t57.5 -18.5t59 -35q31 -25 50 -51.5t25 -36.5v555h215v-1141v-108t1 -80t5.5 -64.5t12.5 -62.5h-203q-4 16 -8 42t-4 64q0 10 1 19.5t1 19.5q-14 -25 -36 -54.5t-55.5 -54 t-81.5 -42t-118 -17.5q-23 0 -75 6.5t-109 34.5q-68 35 -114 89.5t-74.5 120t-41 137t-12.5 141.5zM303 510q0 -4 2 -45t14.5 -94.5t41 -106.5t81.5 -82q14 -8 38 -16t63 -8q61 0 104 25.5t69.5 64.5t41 85t20.5 85t7 67.5t1 30.5q0 20 -2 60t-16 94q-4 18 -15.5 52 t-36 67.5t-66 58t-107.5 24.5q-61 0 -103.5 -26.5t-69 -66.5t-40 -86t-19.5 -87t-7 -67.5t-1 -28.5z" />
<glyph unicode="e" horiz-adv-x="1087" d="M84 502q0 70 9 121t16 77q45 166 159.5 262.5t290.5 96.5q72 0 135.5 -19.5t120.5 -62.5q78 -59 117 -138t55.5 -154t16.5 -135.5v-80.5l-705 -2q2 -47 9 -88t28 -86q23 -51 55.5 -80t66.5 -43t64.5 -18.5t50.5 -4.5q72 0 115 26t64 48q16 16 25 35.5t14 26.5l190 -15 q-41 -147 -151.5 -222t-262.5 -75q-20 0 -57 3t-81 15.5t-93 36t-94 64.5q-27 25 -54.5 60.5t-51 86t-38 116t-14.5 149.5zM305 629h481q-2 10 -5 33.5t-11 52.5q-6 18 -18.5 48t-37 57.5t-63.5 48t-98 20.5q-78 0 -125 -36t-72.5 -80t-37 -87t-13.5 -57z" />
<glyph unicode="f" horiz-adv-x="671" d="M37 862v168h141v66q0 45 2 91t12.5 89t33 82t63.5 69q55 41 109.5 49.5t76.5 8.5q31 0 82 -7.5t121 -33.5v-180q-35 12 -78 24t-82 12q-10 0 -24.5 -2t-32 -10t-32.5 -22.5t-23 -40.5q-8 -25 -9.5 -60t-3.5 -88v-47h248v-168h-246v-862h-217v862h-141z" />
<glyph unicode="g" horiz-adv-x="1097" d="M51 -137q0 68 26.5 111.5t61.5 71.5t71 42t52 21q-10 4 -20.5 9t-20.5 9q-6 2 -17 9t-23.5 19.5t-21.5 31t-9 42.5q0 57 45 94t137 72q-10 6 -29.5 15.5t-44.5 27.5q-18 12 -37.5 34t-37 52.5t-29 71.5t-11.5 94q0 74 27 141q14 37 42 75t73 70t109.5 52.5t154.5 20.5 q53 0 92 -6.5t88 -20.5l328 8v-156h-209q20 -23 45 -74.5t25 -131.5q0 -47 -10.5 -83t-18.5 -53q-35 -74 -109.5 -114.5t-224.5 -61.5q-53 -8 -87 -13t-56 -15q-29 -12 -41.5 -28.5t-12.5 -31.5q0 -4 3.5 -14t13.5 -21q16 -10 60 -16t97 -12q41 -4 93.5 -8t105.5 -13.5 t102.5 -24t86.5 -38.5q14 -10 33.5 -28.5t37 -46.5t29.5 -65.5t12 -86.5q0 -23 -8 -69t-43 -97t-86 -83t-111.5 -50.5t-123 -25.5t-117.5 -7q-12 0 -55.5 1t-100.5 10t-119.5 29.5t-111.5 57.5q-12 8 -31 25.5t-35 42t-27.5 58.5t-11.5 77zM250 -176.5q12 -28.5 59 -52.5 q33 -18 71 -27.5t71.5 -13.5t59.5 -5t34 -1q43 0 93 7t91 24.5t69.5 46t28.5 73.5q-2 45 -22.5 67.5t-32.5 30.5q-35 25 -90 39.5t-147 16.5h-25q-118 0 -192 -35q-80 -38 -80 -113q0 -29 12 -57.5zM334 692q0 -88 58.5 -134t139.5 -46q84 2 140.5 48t56.5 132q0 92 -57 144 q-52 49 -135 49h-13q-82 -4 -136 -55.5t-54 -137.5z" />
<glyph unicode="h" horiz-adv-x="1150" d="M154 0v1456h213l2 -543q0 2 14 18.5t27 29.5q29 25 91 58.5t161 33.5q12 0 44.5 -3t73.5 -14.5t83 -35t75 -64.5q20 -29 33.5 -60.5t20.5 -71.5t9.5 -91t2.5 -119v-594h-213v612q-2 92 -20.5 141.5t-59.5 77.5q-14 10 -41 21.5t-70 11.5q-12 0 -33.5 -2t-45 -11 t-49.5 -26.5t-48 -46.5q-16 -20 -26.5 -40.5t-16.5 -48t-9 -62.5t-5 -82v-545h-213z" />
<glyph unicode="i" horiz-adv-x="522" d="M127 1333q0 23 5 39.5t9 24.5q10 25 27.5 39t35 22t33 10t23.5 2q25 2 51.5 -7t44.5 -25q20 -18 29.5 -47t9.5 -56q0 -59 -38 -96t-97 -37q-10 0 -27.5 2t-39.5 15q-23 12 -36.5 28.5t-19.5 32.5t-8 30.5t-2 22.5zM152 0v1030h219v-1030h-219z" />
<glyph unicode="j" horiz-adv-x="565" d="M-76 -217q43 0 87 3t81 17.5t63.5 43t37.5 81.5q4 29 6 76t2 115v911h217v-909q0 -55 -1 -113.5t-11.5 -114t-34 -106.5t-70.5 -92q-43 -39 -92 -59.5t-93 -28.5t-79 -8h-51h-62v184zM174 1335q0 8 3 25.5t13 40.5q10 18 36 42.5t81 26.5q10 0 25.5 -1t38.5 -11 q27 -10 41 -28.5t21 -37t8 -34t1 -23.5q0 -61 -37.5 -97t-97.5 -36q-8 0 -27.5 3t-41.5 14q-23 12 -35.5 28.5t-18.5 33.5t-8 31.5t-2 22.5z" />
<glyph unicode="k" horiz-adv-x="1110" d="M154 0v1456h215v-1456h-215zM371 555l405 475h256l-405 -471l438 -559h-287z" />
<glyph unicode="l" horiz-adv-x="522" d="M152 0v1456h219v-1456h-219z" />
<glyph unicode="m" horiz-adv-x="1738" d="M127 1030h207q10 -25 15 -54.5t5 -82.5q8 10 21.5 28.5t36.5 41.5q33 33 70.5 50t73.5 26.5t63.5 11.5t42.5 2q12 0 39.5 -2t62.5 -11.5t70.5 -28t66.5 -50.5q12 -12 23.5 -30t27.5 -48q14 23 41 52.5t66 56t92 44t125 17.5q80 0 154.5 -29t117.5 -100q16 -29 25.5 -57.5 t13.5 -64.5t4 -82v-106v-614h-213v612v68t-8 66.5t-26.5 58t-55.5 43.5q-31 12 -54.5 14t-35.5 2t-31.5 -2t-44 -9t-50 -23.5t-46.5 -43.5q-33 -41 -39 -91t-8 -99v-596h-213v590q0 41 -1 95t-20 95q-4 12 -18 28.5t-43 33.5q-29 16 -57.5 19t-38.5 3q-45 0 -89 -15t-75 -50 q-25 -27 -37 -62t-16 -66.5t-4 -55v-29.5v-586h-213v752v96t-3.5 69.5t-8.5 56t-15 56.5z" />
<glyph unicode="n" horiz-adv-x="1140" d="M123 1030h207q10 -31 14 -57.5t6 -81.5q6 8 12.5 16t12.5 17q14 18 38.5 39.5t59.5 42t81 34t105 13.5q10 0 33 -1t51.5 -7.5t61.5 -18.5t63 -33q51 -37 78 -84t37 -99t11 -107.5t1 -108.5v-594h-213v557q0 90 -4 138t-26 87q-16 29 -47 52q-23 16 -50.5 23t-56.5 7 q-43 0 -74.5 -11t-55.5 -27.5t-39 -35t-23 -30.5q-23 -39 -31 -82t-10 -129v-549h-213v670v170.5t-11 111.5q-6 41 -18 78z" />
<glyph unicode="o" horiz-adv-x="1130" d="M84 514q0 72 14.5 142.5t45 134t76.5 117t112 89.5q29 16 88 39t145 23q29 0 86.5 -7.5t124.5 -41.5q70 -35 121 -89.5t85 -120t49.5 -139t15.5 -147.5t-15.5 -146.5t-47.5 -137t-82 -118t-118 -87.5q-70 -35 -130 -44.5t-89 -9.5q-27 0 -83 7.5t-122 39.5 q-72 33 -124 87.5t-85.5 120t-50 139t-16.5 149.5zM303 512q0 -12 2 -47t12.5 -80t32 -93t62.5 -85q18 -16 55 -39q34 -21 88 -21h10q16 0 47 4.5t66 24.5q55 33 86 86t45 105.5t16 94.5t2 52q0 12 -2 50t-13 87t-36.5 99.5t-73.5 87.5q-59 47 -137 47q-16 0 -44.5 -4 t-63.5 -23q-57 -33 -105.5 -116t-48.5 -230z" />
<glyph unicode="p" horiz-adv-x="1150" d="M137 1030h201q8 -23 14 -54.5t6 -80.5q12 20 29 41q33 43 71 66.5t72.5 35t64.5 13.5t50 2q23 0 54.5 -3t69.5 -15.5t79 -38t82 -68.5q23 -25 47 -62t43.5 -87t33 -114.5t13.5 -144.5q0 -106 -27 -205q-18 -72 -53 -133t-83 -106t-111.5 -72t-141.5 -27q-106 0 -186 54 q-39 25 -62.5 54.5t-33.5 41.5v-553h-213v1139q0 63 -1 108t-2 80t-5.5 64.5t-10.5 64.5zM365 512q0 -78 20.5 -158t79.5 -137q65 -59 149 -59q61 0 102.5 25.5t68 65.5t39 86t18.5 86t6 67v28l-1 26q-1 27 -6 67t-19.5 86t-40 86t-66.5 65.5t-103 25.5q-16 0 -54 -7 t-77 -36q-45 -35 -68.5 -86t-34.5 -99t-12 -86t-1 -46z" />
<glyph unicode="q" horiz-adv-x="1150" d="M86 508q0 20 4 78.5t24.5 131.5t63.5 147.5t121 125.5q68 43 127 52.5t90 9.5q14 0 42 -2t60.5 -11.5t68.5 -29t67 -54.5q14 -16 22 -29.5t19 -29.5q0 4 1 41t9 66q2 8 4 14l4 12h203q-8 -35 -12.5 -64.5t-5.5 -64.5t-1 -80v-108v-1139h-215v549q-14 -18 -34.5 -44 t-52 -48.5t-76 -38t-105.5 -15.5q-59 0 -105.5 13.5t-82 32t-60 40t-39.5 37.5q-25 25 -49 62t-44.5 87t-34 114.5t-13.5 144.5zM305 514q0 -119 28.5 -190.5t65.5 -108.5q41 -39 80 -47t62 -10q39 0 69.5 10t52 24.5t36 31t22.5 28.5q23 33 44 99.5t21 164.5q0 10 -1 45 t-11 80t-31.5 93t-60.5 85q-41 37 -79 45t-60 8q-14 0 -42 -4t-63 -24q-51 -31 -78.5 -84t-40 -105.5t-13.5 -93.5t-1 -47z" />
<glyph unicode="r" horiz-adv-x="768" d="M141 1030h203q10 -55 13.5 -95t2.5 -63q0 -16 -1 -30.5t-1 -28.5q31 66 74 127t113 92q33 14 57.5 17.5t38.5 3.5q16 0 41 -4.5t59 -16.5v-215q-16 8 -55 26.5t-92 18.5q-45 0 -78 -16.5t-55.5 -38t-34.5 -43t-16 -33.5q-23 -49 -31 -104.5t-10 -155.5v-471h-215v696v116 t-1 81t-3.5 65.5t-8.5 71.5z" />
<glyph unicode="s" horiz-adv-x="1003" d="M88 332h203q0 -10 3 -34t13 -50q16 -41 46 -62.5t60.5 -32t57.5 -12.5t37 -2q53 0 89 13.5t57.5 34t30.5 47t9 51.5q0 12 -3 31.5t-25 39.5q-31 29 -99.5 50.5t-163.5 50.5q-37 12 -73.5 25.5t-70.5 31.5t-61.5 44t-45.5 63q-8 16 -17.5 45.5t-9.5 76.5q0 29 10 83.5 t60 111.5q18 20 45.5 41.5t65.5 39t89 29t115 11.5q55 0 108.5 -10.5t100.5 -33t86 -58t63 -89.5q16 -35 21.5 -68.5t9.5 -70.5l-207 2q-8 53 -27.5 90t-70.5 58q-43 14 -88 14q-47 0 -80 -13.5t-52.5 -33t-28.5 -42t-9 -42.5q0 -41 29 -70q23 -23 61.5 -38t101.5 -33 q27 -8 65 -19.5t77 -24t75.5 -27.5t61.5 -34q53 -39 77.5 -96.5t24.5 -120.5q0 -16 -3 -45t-14 -64.5t-34.5 -72.5t-64.5 -68q-39 -29 -83 -45t-84 -23.5t-71 -8.5t-43 -1q-72 0 -156 17.5t-143 62.5q-10 8 -28.5 24.5t-37.5 45.5q-23 31 -42 78q-17 43 -17 117v16z" />
<glyph unicode="t" horiz-adv-x="735" d="M55 862l4 168h160l8 297h207l-6 -297h227l-4 -168h-225l-8 -456q0 -31 -1 -62t1 -61q0 -4 1 -27t9 -41t23.5 -28.5t30 -14.5t26.5 -5t18 -1q53 0 94.5 14.5t57.5 20.5l-2 -181q-12 -4 -23.5 -8t-23.5 -8q-16 -6 -62.5 -15t-99.5 -9q-61 0 -104.5 13t-74 34.5t-48 48 t-25.5 51.5q-16 43 -17 83t-1 54q0 35 1 71t3 71l12 456h-158z" />
<glyph unicode="u" horiz-adv-x="1140" d="M145 416v614h213v-608q2 -51 3 -81t10 -52q6 -18 17 -40t32.5 -40.5t53.5 -30.5t77 -12q20 0 58 6t79 39q61 49 74.5 115.5t13.5 138.5v565h213v-715q0 -88 1 -137t5 -92q4 -31 10.5 -53.5t10.5 -32.5h-205q-6 18 -12 49t-11 78q-4 -8 -19 -29.5t-38 -44.5 q-29 -25 -82 -50.5t-141 -25.5q-66 0 -116 14.5t-87 36t-61.5 47t-38.5 48.5q-45 66 -52.5 141.5t-7.5 151.5z" />
<glyph unicode="v" horiz-adv-x="1013" d="M20 1030h224l262 -797l262 797h223l-366 -1038h-238z" />
<glyph unicode="w" horiz-adv-x="1536" d="M31 1030h217l205 -770l225 770h176l225 -770l209 770h215l-303 -1038h-223l-213 706l-211 -706h-221z" />
<glyph unicode="x" horiz-adv-x="1024" d="M6 0l377 549l-324 481h252l201 -325l205 325h256l-330 -481l375 -549h-258l-248 381l-248 -381h-258z" />
<glyph unicode="y" horiz-adv-x="1024" d="M37 1030h227l252 -819l262 819h221l-344 -981q-6 -23 -13 -42t-15 -42q-20 -59 -40 -103t-38.5 -78t-37.5 -59.5t-42 -46.5q-45 -41 -124 -76.5t-214 -35.5h-34.5t-35.5 2v186h27q42 0 90 4q64 6 111 39q37 25 58.5 61t49.5 113z" />
<glyph unicode="z" horiz-adv-x="894" d="M49 0v164l533 690h-482v176h742v-160l-541 -694h539v-176h-791z" />
<glyph unicode="{" horiz-adv-x="724" d="M141 506v12q35 8 53.5 19.5t30.5 23.5q25 25 38 61.5t17.5 76.5t5.5 79t1 70v344q0 16 2 58t18.5 91.5t52 95.5t105.5 70q39 14 82 17.5t121 7.5l-2 -12q-14 -4 -28.5 -8.5t-29.5 -10.5q-68 -23 -94.5 -62.5t-36.5 -68.5q-6 -18 -9 -36.5t-4 -40t-2 -49t-1 -66.5v-201 q0 -141 -4 -226t-39 -147q-16 -27 -34.5 -43t-38 -26.5t-36 -16.5t-24.5 -8q12 -4 31.5 -11t40 -21.5t41 -36t34.5 -54.5q27 -55 29 -127t2 -194v-226q0 -47 2 -79.5t5 -59.5t10 -48.5t20 -43.5q29 -53 70.5 -72.5t97.5 -36.5l-2 -12q-37 2 -75 4t-75 8t-71.5 19.5 t-65.5 40.5q-35 31 -53.5 70.5t-26.5 82.5t-10 88t-2 86v265q0 23 1 44t-1 44v38.5t-9.5 69.5t-31 77t-62.5 62q-10 4 -17 8.5t-26 10.5z" />
<glyph unicode="|" horiz-adv-x="468" d="M152 -512v2044h165v-2044h-165z" />
<glyph unicode="}" horiz-adv-x="724" d="M59 -500q16 4 44 11.5t56.5 25t54.5 48t38 81.5q8 33 9 71t3 105v201q2 139 5 225t38 148q31 51 73 69.5t60 24.5q-12 4 -43.5 17.5t-62.5 41.5q-29 31 -43.5 66t-20.5 81t-7 103.5t-1 132.5v226q0 61 -4 124.5t-39 118.5q-31 47 -69.5 64.5t-90.5 34.5v12 q74 -4 151 -13.5t138 -60.5q35 -31 53.5 -70.5t25.5 -82.5t9 -88.5t2 -86.5v-264q0 -35 -1 -68.5t3 -68.5q4 -55 23.5 -105.5t66.5 -84.5q12 -8 21.5 -12.5t32.5 -12.5v-12q-12 -4 -35 -11.5t-45 -29.5q-27 -25 -40 -63t-18.5 -77.5t-5.5 -79.5v-71v-256q-2 -29 -2 -55.5 v-53.5q0 -14 -3 -50t-16 -78t-43 -85t-83 -69q-25 -12 -46.5 -18.5t-48 -9.5t-59.5 -4t-80 -3v12z" />
<glyph unicode="~" horiz-adv-x="1492" d="M254 594q8 12 29.5 41t55.5 58.5t81 51t106 21.5q61 -2 117.5 -22.5t110.5 -47.5l67 -30q35 -16 69 -29.5t75 -13.5q39 0 68.5 16t58.5 39q23 16 28.5 22.5t16.5 18.5q8 10 15 19.5t9 11.5l78 -148q-6 -6 -11 -13t-11 -14q-12 -14 -52.5 -50t-95.5 -60 q-39 -16 -66.5 -20.5t-44.5 -4.5q-57 2 -109 23.5t-104 46.5l-51 25q-4 2 -20.5 9t-40 16t-51 16.5t-54.5 7.5q-8 0 -29.5 -3t-43.5 -16q-35 -18 -65 -54t-54 -65z" />
<glyph unicode="&#xa1;" horiz-adv-x="544" d="M125 883q0 59 43 103t104 44q59 0 103.5 -42t44.5 -103t-44.5 -103.5t-103.5 -44.5q-31 0 -57.5 11.5t-47 32t-31.5 47t-11 55.5zM158 -403l26 968h181l22 -968h-229z" />
<glyph unicode="&#xa3;" d="M88 -12q14 16 32.5 45.5t41.5 79.5q20 51 41.5 123.5t40 149.5t32 150.5t21.5 129.5h-191v163h222q12 88 30 168q29 141 62 229.5t76 137.5q33 39 72.5 59.5t77.5 30.5t68.5 12t45.5 2q84 0 158.5 -28.5t119.5 -104.5q18 -31 28.5 -62.5t15.5 -60t7.5 -51t2.5 -33.5h-193 q-4 66 -22.5 95.5t-47.5 46.5q-20 10 -39.5 12t-27.5 2q-53 0 -87 -27.5t-52 -74.5q-14 -37 -25.5 -82t-20 -92t-15.5 -93.5t-13 -85.5h332v-161h-363q-4 -43 -13 -94.5t-21.5 -102.5t-28 -101.5t-31.5 -88.5q-27 -59 -55 -109q41 10 89 20.5t134 10.5q57 0 113.5 -4 t113.5 -4q35 0 55.5 10t32 24.5t15.5 30.5t8 31q4 25 6 40t2 42h178q2 -27 0 -83.5t-26 -123.5q-4 -12 -12.5 -30.5t-23 -39t-36 -41t-51.5 -37.5q-25 -12 -62 -20t-98 -8q-43 0 -86 3t-86 7q-51 4 -101.5 7t-103.5 3q-57 0 -137 -3t-205 -19z" />
<glyph unicode="&#xa4;" horiz-adv-x="1366" d="M86 223l156 154q-14 20 -31.5 49t-34 69t-28 90t-11.5 113q0 31 10.5 100.5t51.5 147.5q10 16 21 32.5t22 33.5l-154 155l123 123l154 -153q18 12 47.5 30.5t68.5 35t90.5 27.5t112.5 11q31 0 100.5 -9t147.5 -50q23 -12 44 -27.5t25 -17.5l154 153l125 -123l-156 -155 q14 -20 33 -49t34 -67t25.5 -88t10.5 -114q0 -31 -6.5 -91t-40.5 -132q-14 -31 -25.5 -49.5t-32.5 -46.5l158 -156l-127 -123l-156 156q-18 -14 -46.5 -31.5t-67.5 -33t-89.5 -26.5t-111.5 -11q-63 0 -113.5 11t-88.5 27.5t-66.5 34t-48.5 31.5l-156 -156zM301 694 q0 -82 29.5 -151.5t82 -120.5t123 -81t150.5 -30q57 0 109.5 14.5t99.5 47.5q23 14 51.5 40.5t55 65.5t44 93t17.5 124q0 16 -2 42t-9.5 57.5t-23.5 66.5t-43 72q-14 18 -39.5 44t-62.5 48.5t-86 37.5t-113 15q-20 0 -57 -4t-84 -20q-117 -43 -179.5 -140.5t-62.5 -220.5z " />
<glyph unicode="&#xa6;" horiz-adv-x="468" d="M152 389h165v-780h-165v780zM152 631v780h165v-780h-165z" />
<glyph unicode="&#xa7;" horiz-adv-x="1087" d="M111 39h180q8 -70 33.5 -125t97.5 -82q53 -16 104 -16q6 0 20.5 1t35 4t43 10t41.5 22q6 4 18 16t25 33q4 10 12 30.5t8 49.5q-2 33 -15.5 65.5t-66.5 69.5q-12 8 -32.5 21.5t-43 25.5t-44 23.5t-35.5 19.5q-29 14 -55.5 27.5t-53.5 29.5q-31 16 -58.5 34.5t-56.5 39.5 q-14 8 -39.5 27.5t-51 50t-45 73.5t-19.5 101q0 31 11 78t58 102q35 41 70 65.5t51 36.5q-43 35 -73.5 69t-47.5 87q-4 10 -9 34.5t-5 53.5t12.5 84t63.5 115q55 66 136 95.5t167 29.5q23 0 71 -5t101 -27t104 -67t82 -122q16 -41 20.5 -81t8.5 -83h-176q-4 25 -5 40t-10 40 q-16 45 -41.5 71.5t-54.5 40t-55.5 16.5t-42.5 3q-53 0 -88 -15.5t-56.5 -38t-30.5 -48t-9 -48.5q0 -18 10 -48t45 -58q16 -14 48 -33t79 -43q125 -66 211 -114t129 -89q23 -23 53.5 -70t30.5 -124q0 -68 -22.5 -117t-53.5 -84t-62.5 -55.5t-50.5 -32.5q18 -14 43 -34.5 t47.5 -53.5t38 -77t15.5 -106q0 -23 -8.5 -78t-49.5 -112q-59 -86 -151 -115.5t-193 -29.5q-106 0 -179 27.5t-119 69.5t-70.5 91t-34.5 96q-8 31 -9 55.5t-1 57.5zM307 602q0 -41 20.5 -70.5t50.5 -54t63.5 -43t62.5 -33.5q33 -18 65.5 -36.5t67.5 -34.5q4 2 19.5 11 t34 24.5t38 35t31.5 41.5q4 8 11 26.5t7 45.5q0 10 -3 26.5t-13 37.5q-16 29 -45 50t-82 54q-47 27 -93 52t-93 48q-4 -2 -18.5 -10t-33 -22.5t-37 -32t-30.5 -37.5q-4 -8 -13.5 -28.5t-9.5 -49.5z" />
<glyph unicode="&#xa8;" horiz-adv-x="598" d="M-246 1335q0 55 39 93t92 38t92 -38.5t39 -92.5q0 -55 -38.5 -94t-92.5 -39q-55 2 -93 41t-38 92zM197 1335q0 55 39 93t92 38q55 0 94 -38.5t39 -92.5q-2 -55 -41 -94t-92 -39q-55 2 -93 41t-38 92z" />
<glyph unicode="&#xa9;" horiz-adv-x="1705" d="M125 725q0 90 17.5 165t43 133t54 100t51.5 69q29 33 77 78t117.5 85t161.5 68.5t209 28.5q29 0 76 -4t105.5 -17.5t123 -42t129.5 -77.5q37 -27 87 -76t96.5 -123t78 -172t31.5 -221q0 -33 -5 -83t-22.5 -111.5t-50 -130t-88.5 -136.5q-74 -88 -155.5 -140t-158.5 -80 t-143.5 -36t-105.5 -8q-145 0 -285 57q-104 43 -186 111.5t-139.5 157t-88 191.5t-30.5 214zM190 723q0 -133 50 -252q37 -94 100 -170t144 -130t175.5 -83t196.5 -29q72 0 123 11.5t78 21.5q104 33 188 94.5t144.5 144.5t93.5 182t33 208q0 31 -4.5 81t-21.5 110.5t-51 127 t-91 131.5q-27 27 -69 65t-103.5 70.5t-140.5 56t-179 23.5q-27 0 -69 -3t-94 -16t-111.5 -38.5t-118.5 -68.5q-33 -25 -80 -69t-90 -110.5t-73 -155.5t-30 -202zM383 725q0 104 37 194.5t102.5 155t154.5 101t193 36.5q176 0 310 -108q16 -16 31.5 -29.5t43.5 -46.5 l-114 -108q-14 14 -37 37.5t-55.5 46t-77.5 38t-103 15.5q-14 0 -41.5 -3t-60.5 -13.5t-68.5 -29t-66.5 -50.5q-12 -12 -26.5 -34t-29 -51.5t-23.5 -67.5t-9 -83q0 -16 5 -55t25 -86q39 -88 120 -138.5t179 -50.5q55 0 99.5 15.5t78 37t56 44t35.5 36.5l114 -100 q-53 -63 -108 -100t-106.5 -56.5t-96.5 -24.5t-78 -5q-66 0 -112.5 11t-71.5 21q-72 27 -127 73t-93 104.5t-58.5 128t-20.5 145.5z" />
<glyph unicode="&#xab;" horiz-adv-x="950" d="M74 504l217 530h172l-182 -530l182 -504h-172zM422 504l219 530h172l-182 -530l182 -504h-172z" />
<glyph unicode="&#xac;" horiz-adv-x="1366" d="M0 518v162h1366v-680h-164v518h-1202z" />
<glyph unicode="&#xad;" horiz-adv-x="575" d="M-2 467v160h580v-160h-580z" />
<glyph unicode="&#xae;" horiz-adv-x="1705" d="M125 725q0 90 17.5 165t43 133t54 100t51.5 69q29 33 77 78t117.5 85t161.5 68.5t209 28.5q174 0 326.5 -74.5t259.5 -218.5q72 -98 107.5 -208.5t33.5 -231.5q-2 -123 -42 -240t-118 -215q-74 -90 -156.5 -144t-160.5 -82t-145.5 -36t-106.5 -8q-145 0 -285 57 q-104 43 -186 111.5t-139.5 157t-88 191.5t-30.5 214zM190 723q0 -133 50 -252q37 -94 100 -170t144 -130t175.5 -83t196.5 -29q31 0 99.5 8.5t150.5 41.5q94 37 170 100t129 143t83 174.5t30 194.5q0 29 -4.5 75t-18.5 101t-44 117.5t-79 124.5q-25 31 -67.5 73.5 t-107 81.5t-149.5 65.5t-192 26.5q-27 0 -69 -3t-94 -16t-111.5 -38.5t-118.5 -68.5q-33 -25 -80 -69t-90 -110.5t-73 -155.5t-30 -202zM545 268v920h299q41 0 84 -1t84 -8.5t77.5 -25.5t65.5 -55q12 -16 31.5 -52t19.5 -94q0 -16 -4 -41.5t-17.5 -53.5t-38 -55.5 t-67.5 -45.5q-10 -6 -24.5 -11.5t-38.5 -11.5q41 -18 55 -28q27 -20 41 -46t23.5 -56t13.5 -59.5t8 -58.5q14 -86 27.5 -133t34.5 -84l-189 2q-29 59 -36 117.5t-17 124.5q-10 63 -24.5 94t-47.5 49q-29 16 -55.5 20.5t-83.5 6.5h-57v-414h-164zM709 811h137h27.5t27.5 2 q39 4 74 18.5t53 51.5q4 4 9 20.5t5 36.5q0 10 -5 33.5t-23 46.5q-29 33 -74 38t-125 5l-106 -2v-250z" />
<glyph unicode="&#xb0;" horiz-adv-x="724" d="M33 1217q0 68 25.5 128t70.5 105t105 70.5t128 25.5q70 0 129.5 -25.5t104.5 -70.5t70.5 -105.5t25.5 -127.5q0 -20 -4 -57.5t-26 -84.5q-41 -86 -122 -138t-178 -52q-70 0 -130 26.5t-104 71.5t-69.5 105.5t-25.5 128.5zM201 1221q0 -68 48 -115t113 -47q68 0 115 47 t47 115q0 66 -47 113.5t-115 47.5t-114.5 -48t-46.5 -113z" />
<glyph unicode="&#xb1;" horiz-adv-x="1024" d="M63 0v162h898v-162h-898zM63 698v164h371v367h162v-367h365v-164h-365v-366h-162v366h-371z" />
<glyph unicode="&#xb4;" horiz-adv-x="598" d="M-27 1145l252 328h279l-363 -328h-168z" />
<glyph unicode="&#xb5;" horiz-adv-x="1150" d="M141 748q0 96 13 131l8 16t16 24.5t26.5 21.5t39.5 9q14 0 31.5 -6t33.5 -33q12 -16 18.5 -40.5t6.5 -67.5q0 -39 -4 -78t-8 -80q-4 -49 -10.5 -97t-12.5 -97t-11 -98.5t-16 -96.5q14 -35 22.5 -50.5t16.5 -29.5q29 -41 71 -66.5t95 -25.5q16 0 46 6t63 31 q37 27 61.5 64.5t39.5 74.5t22.5 66.5t9.5 38.5q10 53 14 115.5t4 117.5t-1 95t-1 48q0 61 4 105.5t21 66.5q6 10 24.5 24.5t49.5 12.5q6 0 20 -2t31 -12q31 -23 42 -68t11 -118q0 -16 -1 -61.5t-7 -106t-18.5 -129t-32.5 -131.5q-4 -16 -13.5 -40t-27.5 -59q2 -4 8 -20.5 t19.5 -34.5t34 -32.5t48.5 -14.5q51 0 69.5 40t18.5 81q0 10 -1 21t-3 24l58 2q29 -70 28 -142q0 -10 -3 -37.5t-16.5 -56t-41 -52.5t-78.5 -24q-31 0 -54.5 9.5t-40 23t-27.5 26.5t-17 21q-23 29 -31 52.5t-12 37.5q-37 -55 -78 -89.5t-81 -54t-77 -27t-63 -7.5 q-61 0 -114.5 25.5t-94.5 73.5q-14 14 -18.5 20t-10.5 16q-2 -25 -3 -62.5t4 -84.5t18.5 -102.5t42.5 -114.5q12 -25 26 -47.5t29 -44.5q14 -23 26.5 -46.5t12.5 -52.5q0 -37 -24.5 -61.5t-63.5 -24.5q-16 0 -28.5 4.5t-18.5 8.5q-18 10 -35 25.5t-33 54.5q-27 55 -40 137 t-13 215v50t2 84t7 104.5t13 109.5q-6 41 -12 83t-10 83t-7 83t-8 85q-2 39 -3 78t-1 80z" />
<glyph unicode="&#xb6;" horiz-adv-x="1366" d="M180 1038q0 135 71 240.5t204 146.5q45 12 88 16.5t90 4.5h471v-111h-70v-1677h-119v1677h-294v-1677h-119v995q-16 4 -47 9.5t-72 25.5q-104 47 -153.5 143.5t-49.5 206.5z" />
<glyph unicode="&#xb7;" horiz-adv-x="598" d="M156 723q0 59 42 101t101 42t101 -42t42 -101t-43 -100t-102 -41q-57 2 -99 42t-42 99z" />
<glyph unicode="&#xb8;" horiz-adv-x="598" d="M-6 -401q33 -16 69.5 -28.5t73.5 -12.5q6 0 20.5 1t32.5 9q25 8 40.5 24.5t22.5 33t9 31.5t2 24q0 18 -7 40.5t-23.5 41t-45 30.5t-73.5 12h-24.5t-37.5 -4l68 199h143l-45 -125q23 -4 43.5 -9t42.5 -16q12 -6 34.5 -18t44.5 -35.5t37 -56.5t15 -78q0 -53 -20.5 -95 t-54 -72t-78.5 -46t-95 -16q-35 0 -65.5 7t-56 17.5t-45 20.5t-27.5 14v107z" />
<glyph unicode="&#xbb;" horiz-adv-x="950" d="M137 0l182 528l-182 506h172l217 -506l-217 -528h-172zM487 0l181 528l-181 506h172l218 -506l-218 -528h-172z" />
<glyph unicode="&#xbf;" horiz-adv-x="894" d="M86 -104q0 12 3 44.5t17 67.5q20 57 59.5 104.5t78.5 90.5q29 29 61.5 64.5t54.5 72.5q16 29 21.5 59.5t5.5 92.5v77h201v-127t-6.5 -90t-19.5 -70.5t-40 -66.5q-29 -37 -60.5 -68.5t-62.5 -66.5q-35 -41 -60.5 -81t-25.5 -93q2 -68 44 -103.5t108 -35.5q61 0 96 22.5 t53.5 54t23.5 63.5t5 50h176q-2 -41 -7 -85t-19 -83q-12 -33 -38 -69.5t-68 -68.5t-102.5 -53.5t-144.5 -21.5q-111 0 -180.5 33t-107 82t-52 104t-14.5 101zM338 885q2 59 46 102t103 43t103.5 -42t44.5 -105q0 -61 -44.5 -102.5t-103.5 -43.5q-61 0 -105 43t-44 105z" />
<glyph unicode="&#xc0;" horiz-adv-x="1269" d="M33 0l493 1450h217l494 -1450h-231l-109 340h-526l-109 -340h-229zM174 1880h277l333 -328h-206zM430 532h410l-207 650z" />
<glyph unicode="&#xc1;" horiz-adv-x="1269" d="M33 0l493 1450h217l494 -1450h-231l-109 340h-526l-109 -340h-229zM430 532h410l-207 650zM510 1552l332 328h276l-403 -328h-205z" />
<glyph unicode="&#xc2;" horiz-adv-x="1269" d="M33 0l493 1450h217l494 -1450h-231l-109 340h-526l-109 -340h-229zM246 1569l291 295h196l291 -295h-205l-184 178l-182 -178h-207zM430 532h410l-207 650z" />
<glyph unicode="&#xc3;" horiz-adv-x="1269" d="M33 0l493 1450h217l494 -1450h-231l-109 340h-526l-109 -340h-229zM266 1626l8.5 25.5l8.5 25.5q2 8 8 24.5t18.5 37t30.5 42t43 38.5q29 18 55.5 23t38.5 5q25 0 52.5 -7t54 -17.5t52.5 -21.5t46 -19q66 -27 98 -27q33 0 61.5 22.5t51.5 84.5l102 -33q-4 -12 -6 -25.5 t-10 -38.5q-23 -66 -72 -116t-123 -50q-23 0 -50 7.5t-56 18.5t-55.5 22.5t-47.5 19.5q-68 25 -94 25q-31 0 -50 -13.5t-31.5 -31t-17.5 -34t-5 -20.5zM430 532h410l-207 650z" />
<glyph unicode="&#xc4;" horiz-adv-x="1269" d="M33 0l493 1450h217l494 -1450h-231l-109 340h-526l-109 -340h-229zM295 1716q0 10 1 24.5t11 33.5q4 8 13.5 22t25.5 28.5t38.5 24t53.5 9.5q59 0 100.5 -42t41.5 -102q0 -59 -42 -100t-102 -41q-59 0 -100 42t-41 101zM430 532h410l-207 650zM690 1716q0 59 42.5 100.5 t101.5 41.5t100 -42t41 -102q0 -59 -42 -100t-102 -41q-59 0 -100 42t-41 101z" />
<glyph unicode="&#xc5;" horiz-adv-x="1269" d="M33 0l493 1450h217l494 -1450h-231l-109 340h-526l-109 -340h-229zM426 1735q0 43 16.5 80.5t45 65.5t66.5 44.5t81 16.5t82 -16.5t66.5 -45.5t43 -66.5t15.5 -80.5t-16.5 -81t-44 -65.5t-65.5 -44t-81 -16.5t-82 16.5t-66.5 45t-44 66.5t-16.5 81zM430 532h410l-207 650 zM528 1735q0 -47 32 -77t75 -30q47 0 76.5 31t29.5 76q0 43 -31.5 73.5t-74.5 30.5q-45 0 -76 -31.5t-31 -72.5z" />
<glyph unicode="&#xc6;" horiz-adv-x="1921" d="M33 0l848 1446h954v-191h-618v-411h565v-193h-565v-458h630v-193h-860v340h-516l-195 -340h-243zM584 532h403v713z" />
<glyph unicode="&#xc7;" horiz-adv-x="1300" d="M92 717q0 133 23.5 236.5t60.5 181t83 132t93 89.5q53 41 107.5 64.5t102.5 34.5t87 14.5t64 3.5q141 0 262 -63.5t182 -197.5q23 -49 33 -99t16 -103h-198q-10 47 -21.5 76.5t-21.5 48.5q-12 20 -31 45.5t-49.5 47t-73.5 36t-102 14.5q-18 0 -46 -2t-60 -12.5t-66.5 -31 t-67.5 -56.5q-55 -59 -98 -168t-43 -289q0 -61 7 -125t25.5 -125t49 -117.5t77.5 -99.5q33 -31 67 -47.5t64.5 -24.5t55 -10t41.5 -2q23 0 75 8t105 49q43 33 67.5 78t38 88t17.5 78t6 47l203 -2q0 -18 -3 -55t-13.5 -85t-31 -101.5t-55.5 -104.5q-20 -29 -53 -63.5 t-81 -63.5t-114.5 -48.5t-152.5 -19.5q-18 0 -47 1t-66 7.5t-80 18.5t-86 35q-59 31 -121.5 83t-113.5 134t-84 196.5t-33 268.5zM537 -508l2 107q33 -16 68.5 -28.5t72.5 -12.5q8 0 22.5 1t32.5 9q25 8 40.5 24.5t22.5 33t9 31.5t2 24q0 18 -7 40.5t-23.5 41t-46.5 30.5 t-75 12h-24.5t-36.5 -4l70 199h143l-47 -125q25 -4 45 -9t43 -16q12 -6 34.5 -18t44 -35.5t37 -56.5t15.5 -78q0 -53 -20.5 -95t-54.5 -72t-79 -46t-94 -16q-35 0 -66.5 7t-57 17.5t-45 20.5t-27.5 14z" />
<glyph unicode="&#xc8;" horiz-adv-x="1130" d="M147 1880h277l334 -328h-207zM180 0v1446h856v-191h-633v-409h582v-193h-582v-460h652v-193h-875z" />
<glyph unicode="&#xc9;" horiz-adv-x="1130" d="M180 0v1446h856v-191h-633v-409h582v-193h-582v-460h652v-193h-875zM483 1552l332 328h277l-404 -328h-205z" />
<glyph unicode="&#xca;" horiz-adv-x="1130" d="M180 0v1446h856v-191h-633v-409h582v-193h-582v-460h652v-193h-875zM219 1569l291 295h197l290 -295h-204l-185 178l-182 -178h-207z" />
<glyph unicode="&#xcb;" horiz-adv-x="1130" d="M180 0v1446h856v-191h-633v-409h582v-193h-582v-460h652v-193h-875zM268 1716q0 29 11 53q4 10 13 25.5t25.5 29t40 24t54.5 10.5q59 0 100 -42t41 -102q0 -59 -42 -100t-101 -41t-100.5 42t-41.5 101zM664 1716q0 59 42 100.5t101 41.5t100 -42t41 -102q0 -59 -42 -100 t-101 -41t-100 42t-41 101z" />
<glyph unicode="&#xcc;" horiz-adv-x="585" d="M-168 1880h279l331 -328h-206zM180 0v1446h226v-1446h-226z" />
<glyph unicode="&#xcd;" horiz-adv-x="585" d="M168 1552l332 328h278l-403 -328h-207zM180 0v1446h226v-1446h-226z" />
<glyph unicode="&#xce;" horiz-adv-x="585" d="M-96 1569l291 295h196l291 -295h-205l-182 178l-184 -178h-207zM180 0v1446h226v-1446h-226z" />
<glyph unicode="&#xcf;" horiz-adv-x="585" d="M-47 1716q0 29 10 53q4 10 13.5 25.5t25.5 29t39.5 24t54.5 10.5q59 0 100.5 -42t41.5 -102q0 -59 -42 -100t-102 -41q-59 0 -100 42t-41 101zM180 0v1446h226v-1446h-226zM348 1716q0 59 42.5 100.5t101.5 41.5t101 -42t42 -102q-2 -59 -43 -100t-100 -41 q-61 0 -102.5 42t-41.5 101z" />
<glyph unicode="&#xd1;" horiz-adv-x="1449" d="M180 0v1446h240l639 -1104v1104h211v-1446h-232l-645 1104v-1104h-213zM356 1626l8.5 25.5l8.5 25.5q4 16 27.5 62.5t72.5 79.5q29 18 55.5 23t38.5 5q49 -2 106.5 -25.5t100.5 -39.5q66 -27 96 -27q33 0 63 22.5t52 84.5l100 -33q-4 -12 -6 -25.5t-10 -38.5 q-23 -66 -72 -116t-123 -50q-23 0 -50 7.5t-56 18.5t-55.5 22.5t-46.5 19.5q-68 25 -95 25q-29 0 -48 -13.5t-31.5 -31t-17.5 -34t-7 -20.5z" />
<glyph unicode="&#xd2;" horiz-adv-x="1429" d="M90 723q0 92 15.5 184t49 177t89 159t135.5 129q51 35 102 55.5t95.5 30.5t80 12.5t58.5 2.5q82 0 147.5 -17.5t116.5 -42t87 -52.5t58 -50q37 -35 75 -87.5t68.5 -124t50 -164.5t19.5 -212q0 -33 -5 -112t-33.5 -176t-89 -196.5t-171.5 -170.5q-145 -94 -323 -95 q-39 0 -122 12.5t-175 65.5q-121 70 -187.5 171.5t-97.5 201.5t-37 183t-6 116zM254 1880h276l334 -328h-207zM328 723q0 -16 1 -53t7 -85t20.5 -104.5t40.5 -107.5q23 -45 44.5 -71t37.5 -42q33 -33 68 -52.5t66.5 -28.5t57 -11t44.5 -2q100 0 177 48t126 134 q29 49 56.5 142.5t27.5 232.5q0 14 -2 68.5t-15.5 124t-45 144.5t-91.5 130q-29 27 -84 58.5t-149 31.5q-23 0 -71 -6t-101 -39q-84 -49 -128 -130t-63.5 -162t-21.5 -144.5t-2 -75.5z" />
<glyph unicode="&#xd3;" horiz-adv-x="1429" d="M90 723q0 92 15.5 184t49 177t89 159t135.5 129q51 35 102 55.5t95.5 30.5t80 12.5t58.5 2.5q82 0 147.5 -17.5t116.5 -42t87 -52.5t58 -50q37 -35 75 -87.5t68.5 -124t50 -164.5t19.5 -212q0 -33 -5 -112t-33.5 -176t-89 -196.5t-171.5 -170.5q-145 -94 -323 -95 q-39 0 -122 12.5t-175 65.5q-121 70 -187.5 171.5t-97.5 201.5t-37 183t-6 116zM328 723q0 -16 1 -53t7 -85t20.5 -104.5t40.5 -107.5q23 -45 44.5 -71t37.5 -42q33 -33 68 -52.5t66.5 -28.5t57 -11t44.5 -2q100 0 177 48t126 134q29 49 56.5 142.5t27.5 232.5q0 14 -2 68.5 t-15.5 124t-45 144.5t-91.5 130q-29 27 -84 58.5t-149 31.5q-23 0 -71 -6t-101 -39q-84 -49 -128 -130t-63.5 -162t-21.5 -144.5t-2 -75.5zM590 1552l332 328h276l-403 -328h-205z" />
<glyph unicode="&#xd4;" horiz-adv-x="1429" d="M90 723q0 92 15.5 184t49 177t89 159t135.5 129q51 35 102 55.5t95.5 30.5t80 12.5t58.5 2.5q82 0 147.5 -17.5t116.5 -42t87 -52.5t58 -50q37 -35 75 -87.5t68.5 -124t50 -164.5t19.5 -212q0 -33 -5 -112t-33.5 -176t-89 -196.5t-171.5 -170.5q-145 -94 -323 -95 q-39 0 -122 12.5t-175 65.5q-121 70 -187.5 171.5t-97.5 201.5t-37 183t-6 116zM326 1569l290 295h197l291 -295h-205l-184 178l-183 -178h-206zM328 723q0 -16 1 -53t7 -85t20.5 -104.5t40.5 -107.5q23 -45 44.5 -71t37.5 -42q33 -33 68 -52.5t66.5 -28.5t57 -11t44.5 -2 q100 0 177 48t126 134q29 49 56.5 142.5t27.5 232.5q0 14 -2 68.5t-15.5 124t-45 144.5t-91.5 130q-29 27 -84 58.5t-149 31.5q-23 0 -71 -6t-101 -39q-84 -49 -128 -130t-63.5 -162t-21.5 -144.5t-2 -75.5z" />
<glyph unicode="&#xd5;" horiz-adv-x="1429" d="M90 723q0 92 15.5 184t49 177t89 159t135.5 129q51 35 102 55.5t95.5 30.5t80 12.5t58.5 2.5q82 0 147.5 -17.5t116.5 -42t87 -52.5t58 -50q37 -35 75 -87.5t68.5 -124t50 -164.5t19.5 -212q0 -33 -5 -112t-33.5 -176t-89 -196.5t-171.5 -170.5q-145 -94 -323 -95 q-39 0 -122 12.5t-175 65.5q-121 70 -187.5 171.5t-97.5 201.5t-37 183t-6 116zM328 723q0 -16 1 -53t7 -85t20.5 -104.5t40.5 -107.5q23 -45 44.5 -71t37.5 -42q33 -33 68 -52.5t66.5 -28.5t57 -11t44.5 -2q100 0 177 48t126 134q29 49 56.5 142.5t27.5 232.5q0 14 -2 68.5 t-15.5 124t-45 144.5t-91.5 130q-29 27 -84 58.5t-149 31.5q-23 0 -71 -6t-101 -39q-84 -49 -128 -130t-63.5 -162t-21.5 -144.5t-2 -75.5zM346 1626q4 12 8 25.5t8 25.5q2 8 8.5 24.5t18.5 37t30.5 42t43.5 38.5q29 18 55.5 23t38.5 5q49 -2 106.5 -25.5t100.5 -39.5 q66 -27 96 -27q33 0 61.5 22.5t53.5 84.5l100 -33q-4 -12 -6 -25.5t-10 -38.5q-23 -66 -72 -116t-123 -50q-23 0 -50.5 7.5t-56 18.5t-55 22.5t-47.5 19.5q-68 25 -94 25q-31 0 -50 -13.5t-30.5 -31t-16.5 -34t-7 -20.5z" />
<glyph unicode="&#xd6;" horiz-adv-x="1429" d="M90 723q0 154 38 291t138 254q51 59 113.5 103t134.5 71q49 16 98.5 23.5t102.5 7.5q35 0 86 -5.5t109.5 -25t122 -59.5t124.5 -107q104 -119 142 -259t38 -294q0 -70 -6 -137q-4 -27 -11 -72t-25.5 -100.5t-49.5 -115.5t-82 -120q-10 -12 -31.5 -34.5t-52 -47t-70.5 -48 t-87 -40.5q-96 -35 -207 -35q-33 0 -81 4.5t-104.5 22.5t-118 54t-120.5 98q-115 119 -158 265t-43 306zM328 723q0 -14 2 -68.5t15 -124t44 -144.5t90 -130q27 -25 84.5 -57.5t151.5 -32.5q35 0 94 11t125 67q51 43 84 100t51 120.5t25.5 130.5t7.5 128q0 14 -2 68.5 t-15.5 125t-45 145.5t-91.5 130q-96 88 -233 88q-106 0 -191 -53q-59 -39 -97 -98.5t-60.5 -128t-30.5 -141.5t-8 -136zM375 1716q0 59 42 100.5t101 41.5t100 -42t41 -102q0 -59 -42 -100t-101 -41t-100 42t-41 101zM770 1716q0 59 42 100.5t101 41.5t100.5 -42t41.5 -102 q0 -59 -42 -100t-102 -41q-59 0 -100 42t-41 101z" />
<glyph unicode="&#xd7;" horiz-adv-x="1024" d="M88 289l311 311l-311 307l115 113l311 -307l307 307l115 -113l-307 -307l307 -311l-115 -117l-307 309l-311 -309z" />
<glyph unicode="&#xd8;" horiz-adv-x="1429" d="M68 0l155 201q-12 16 -23.5 34.5t-21.5 36.5q-35 59 -66.5 166t-31.5 267q0 43 4 94t10 94q14 92 41 161.5t59.5 123t66.5 91.5t63 62q23 18 57.5 43t80.5 46.5t106.5 37t136.5 15.5q20 0 57 -2.5t83 -11.5t97 -28.5t102 -52.5q14 -10 28.5 -21t27.5 -22l86 111h155 l-155 -201q23 -29 36 -52.5t19 -35.5q31 -63 48.5 -128.5t25.5 -123t10 -101.5t2 -65q0 -115 -16.5 -202.5t-43 -155.5t-58 -118t-64.5 -87q-78 -88 -152.5 -127t-118.5 -51q-25 -8 -65.5 -16.5t-101.5 -8.5q-23 0 -68 4.5t-100.5 17.5t-117 40.5t-116.5 77.5l-88 -113h-149 zM315 707q0 -16 1 -49t7.5 -77t17.5 -94.5t34 -99.5l581 793q-10 10 -19 18t-19 16q-23 16 -78.5 41t-132.5 25q-25 0 -76 -8t-107 -45q-80 -53 -123 -136t-61 -164t-21.5 -144.5t-3.5 -75.5zM440 276q8 -8 17.5 -17t27.5 -23q23 -16 79.5 -43t135.5 -27q25 0 76 9t107 44 q63 41 103 103.5t63.5 135t33 148.5t9.5 144q0 123 -19.5 196.5t-44.5 124.5z" />
<glyph unicode="&#xd9;" horiz-adv-x="1419" d="M166 602v844h223v-840v-22.5v-50t2 -61.5t6 -56q10 -76 44 -127t102 -84q53 -27 99 -32t69 -5q10 0 39.5 2t66.5 12.5t77 30.5t71 57q27 33 40 76t18 88t5 89v83v840h225v-844q0 -51 -1 -104.5t-7 -106.5t-21.5 -104t-45.5 -97q-23 -37 -62 -74.5t-95 -69.5t-134 -52.5 t-178 -20.5q-117 0 -230.5 36t-197.5 128q-16 16 -41 52t-43 90q-27 76 -30 160.5t-1 162.5zM250 1880h276l332 -328h-207z" />
<glyph unicode="&#xda;" horiz-adv-x="1419" d="M166 602v844h223v-840v-22.5v-50t2 -61.5t6 -56q10 -76 44 -127t102 -84q53 -27 99 -32t69 -5q10 0 39.5 2t66.5 12.5t77 30.5t71 57q27 33 40 76t18 88t5 89v83v840h225v-844q0 -51 -1 -104.5t-7 -106.5t-21.5 -104t-45.5 -97q-23 -37 -62 -74.5t-95 -69.5t-134 -52.5 t-178 -20.5q-117 0 -230.5 36t-197.5 128q-16 16 -41 52t-43 90q-27 76 -30 160.5t-1 162.5zM584 1552l334 328h276l-403 -328h-207z" />
<glyph unicode="&#xdb;" horiz-adv-x="1419" d="M166 602v844h223v-840v-22.5v-50t2 -61.5t6 -56q10 -76 44 -127t102 -84q53 -27 99 -32t69 -5q10 0 39.5 2t66.5 12.5t77 30.5t71 57q27 33 40 76t18 88t5 89v83v840h225v-844q0 -51 -1 -104.5t-7 -106.5t-21.5 -104t-45.5 -97q-23 -37 -62 -74.5t-95 -69.5t-134 -52.5 t-178 -20.5q-117 0 -230.5 36t-197.5 128q-16 16 -41 52t-43 90q-27 76 -30 160.5t-1 162.5zM322 1569l288 295h197l291 -295h-205l-182 178l-185 -178h-204z" />
<glyph unicode="&#xdc;" horiz-adv-x="1419" d="M166 602v844h223v-840v-22.5v-50t2 -61.5t6 -56q10 -76 44 -127t102 -84q53 -27 99 -32t69 -5q10 0 39.5 2t66.5 12.5t77 30.5t71 57q27 33 40 76t18 88t5 89v83v840h225v-844q0 -51 -1 -104.5t-7 -106.5t-21.5 -104t-45.5 -97q-23 -37 -62 -74.5t-95 -69.5t-134 -52.5 t-178 -20.5q-117 0 -230.5 36t-197.5 128q-16 16 -41 52t-43 90q-27 76 -30 160.5t-1 162.5zM369 1716q0 10 2 26.5t12 37.5q4 8 14.5 21.5t25.5 25.5t37.5 21.5t51.5 9.5q20 0 35.5 -4.5t21.5 -6.5q8 -4 22.5 -13t28 -25.5t23.5 -39t10 -53.5q0 -59 -42 -101t-101 -42 t-100 42t-41 101zM764 1716q0 10 2 24.5t10 33.5q4 10 14.5 24t25.5 27.5t37.5 23t53.5 9.5q37 0 59.5 -12.5t32.5 -20.5q12 -10 32 -38t20 -73q-2 -57 -43 -99t-101 -42q-59 0 -101 42t-42 101z" />
<glyph unicode="&#xdf;" horiz-adv-x="1140" d="M135 0v915v60t2 61q0 53 6.5 103.5t21.5 96.5t45 85t77 72q31 23 98.5 48t165.5 25q20 0 64 -4t96.5 -20.5t105.5 -53t90 -100.5q33 -55 40 -104t7 -72t-5 -58.5t-22.5 -73.5t-51 -76t-93.5 -64q-25 -12 -49 -19q14 -4 32.5 -9t47.5 -15q53 -20 90 -47t61.5 -54.5 t39 -55.5t22.5 -48q16 -43 24.5 -89t8.5 -91q0 -84 -25.5 -161t-75 -135.5t-119 -94t-159.5 -35.5q-47 0 -84 9t-53 17q-8 4 -15.5 7.5t-15.5 7.5l2 188q8 -4 16.5 -9t16.5 -9q23 -10 54.5 -16.5t53.5 -6.5q31 0 64 11.5t59.5 39t44 71.5t17.5 112q0 14 -3 41.5t-13.5 61.5 t-32 69.5t-60.5 64.5q-37 29 -79 43t-79.5 20.5t-66.5 7.5t-41 1v184q10 0 47 -1t72 9q72 16 113.5 65.5t41.5 121.5q0 88 -52 141t-140 53q-16 0 -51 -5t-70 -30q-57 -41 -67.5 -116.5t-10.5 -204.5v-934h-213z" />
<glyph unicode="&#xe0;" horiz-adv-x="1077" d="M96 270q0 20 4 52t18.5 68t43 74t76.5 68q47 31 108.5 52.5t126 37t129 26.5t117.5 22v28q0 37 -2 55.5t-8 37.5q-18 53 -67.5 71.5t-100.5 18.5q-55 0 -92 -12.5t-60.5 -33t-35 -45t-15.5 -51.5h-207q8 59 20.5 93t26.5 57q37 61 95.5 95t117 49.5t104.5 17.5t58 2 q8 0 34.5 -1t62.5 -6.5t75 -16.5t74 -32q16 -10 48 -37.5t52 -78.5q14 -35 21.5 -90.5t5.5 -139.5v-403q0 -96 6 -149.5t26 -98.5h-196q-14 51 -16.5 74.5t-2.5 52.5q-14 -25 -36.5 -51.5t-57.5 -48t-84 -36t-114 -14.5q-14 0 -52.5 2.5t-84.5 14.5t-93 39.5t-80 81.5 q-14 20 -29.5 58t-15.5 97zM188 1473h277l252 -328h-166zM315 293q0 -39 21 -74q16 -23 52 -48.5t104 -25.5q10 0 31.5 2.5t47 10.5t52 24.5t49.5 44.5q14 18 23.5 38t14.5 44.5t7 57t2 75.5v80q-139 -23 -227.5 -47t-133.5 -72q-43 -47 -43 -110z" />
<glyph unicode="&#xe1;" horiz-adv-x="1077" d="M96 270q0 20 4 52t18.5 68t43 74t76.5 68q47 31 108.5 52.5t126 37t129 26.5t117.5 22v28q0 37 -2 55.5t-8 37.5q-18 53 -67.5 71.5t-100.5 18.5q-55 0 -92 -12.5t-60.5 -33t-35 -45t-15.5 -51.5h-207q8 59 20.5 93t26.5 57q37 61 95.5 95t117 49.5t104.5 17.5t58 2 q8 0 34.5 -1t62.5 -6.5t75 -16.5t74 -32q16 -10 48 -37.5t52 -78.5q14 -35 21.5 -90.5t5.5 -139.5v-403q0 -96 6 -149.5t26 -98.5h-196q-14 51 -16.5 74.5t-2.5 52.5q-14 -25 -36.5 -51.5t-57.5 -48t-84 -36t-114 -14.5q-14 0 -52.5 2.5t-84.5 14.5t-93 39.5t-80 81.5 q-14 20 -29.5 58t-15.5 97zM315 293q0 -39 21 -74q16 -23 52 -48.5t104 -25.5q10 0 31.5 2.5t47 10.5t52 24.5t49.5 44.5q14 18 23.5 38t14.5 44.5t7 57t2 75.5v80q-139 -23 -227.5 -47t-133.5 -72q-43 -47 -43 -110zM418 1145l252 328h276l-362 -328h-166z" />
<glyph unicode="&#xe2;" horiz-adv-x="1077" d="M96 270q0 20 4 52t18.5 68t43 74t76.5 68q47 31 108.5 52.5t126 37t129 26.5t117.5 22v28q0 37 -2 55.5t-8 37.5q-18 53 -67.5 71.5t-100.5 18.5q-55 0 -92 -12.5t-60.5 -33t-35 -45t-15.5 -51.5h-207q8 59 20.5 93t26.5 57q37 61 95.5 95t117 49.5t104.5 17.5t58 2 q8 0 34.5 -1t62.5 -6.5t75 -16.5t74 -32q16 -10 48 -37.5t52 -78.5q14 -35 21.5 -90.5t5.5 -139.5v-403q0 -96 6 -149.5t26 -98.5h-196q-14 51 -16.5 74.5t-2.5 52.5q-14 -25 -36.5 -51.5t-57.5 -48t-84 -36t-114 -14.5q-14 0 -52.5 2.5t-84.5 14.5t-93 39.5t-80 81.5 q-14 20 -29.5 58t-15.5 97zM197 1161l254 316h196l254 -316h-196l-154 195l-156 -195h-198zM315 293q0 -39 21 -74q16 -23 52 -48.5t104 -25.5q10 0 31.5 2.5t47 10.5t52 24.5t49.5 44.5q14 18 23.5 38t14.5 44.5t7 57t2 75.5v80q-139 -23 -227.5 -47t-133.5 -72 q-43 -47 -43 -110z" />
<glyph unicode="&#xe3;" horiz-adv-x="1077" d="M96 270q0 20 4 52t18.5 68t43 74t76.5 68q47 31 108.5 52.5t126 37t129 26.5t117.5 22v28q0 37 -2 55.5t-8 37.5q-18 53 -67.5 71.5t-100.5 18.5q-55 0 -92 -12.5t-60.5 -33t-35 -45t-15.5 -51.5h-207q8 59 20.5 93t26.5 57q37 61 95.5 95t117 49.5t104.5 17.5t58 2 q8 0 34.5 -1t62.5 -6.5t75 -16.5t74 -32q16 -10 48 -37.5t52 -78.5q14 -35 21.5 -90.5t5.5 -139.5v-403q0 -96 6 -149.5t26 -98.5h-196q-14 51 -16.5 74.5t-2.5 52.5q-14 -25 -36.5 -51.5t-57.5 -48t-84 -36t-114 -14.5q-14 0 -52.5 2.5t-84.5 14.5t-93 39.5t-80 81.5 q-14 20 -29.5 58t-15.5 97zM219 1210q8 33 14.5 53.5t10.5 32.5q2 8 13 31t31.5 47.5t51.5 44t72 19.5t87 -20.5t81 -37.5q70 -35 104 -34q35 0 57.5 23.5t44.5 80.5l95 -25q-2 -12 -6.5 -32.5t-14.5 -49.5q-31 -90 -79 -121.5t-91 -31.5q-20 0 -46 7t-51.5 17.5t-49 20.5 t-41.5 18q-63 29 -88 29q-41 0 -62.5 -32.5t-32.5 -67.5zM315 293q0 -39 21 -74q16 -23 52 -48.5t104 -25.5q10 0 31.5 2.5t47 10.5t52 24.5t49.5 44.5q14 18 23.5 38t14.5 44.5t7 57t2 75.5v80q-139 -23 -227.5 -47t-133.5 -72q-43 -47 -43 -110z" />
<glyph unicode="&#xe4;" horiz-adv-x="1077" d="M96 270q0 20 4 52t18.5 68t43 74t76.5 68q47 31 108.5 52.5t126 37t129 26.5t117.5 22v28q0 37 -2 55.5t-8 37.5q-18 53 -67.5 71.5t-100.5 18.5q-55 0 -92 -12.5t-60.5 -33t-35 -45t-15.5 -51.5h-207q8 59 20.5 93t26.5 57q37 61 95.5 95t117 49.5t104.5 17.5t58 2 q8 0 34.5 -1t62.5 -6.5t75 -16.5t74 -32q16 -10 48 -37.5t52 -78.5q14 -35 21.5 -90.5t5.5 -139.5v-403q0 -96 6 -149.5t26 -98.5h-196q-14 51 -16.5 74.5t-2.5 52.5q-14 -25 -36.5 -51.5t-57.5 -48t-84 -36t-114 -14.5q-14 0 -52.5 2.5t-84.5 14.5t-93 39.5t-80 81.5 q-14 20 -29.5 58t-15.5 97zM184 1335q0 55 39 93t94 38q53 0 91 -38.5t38 -92.5q0 -55 -38.5 -94t-92.5 -39q-55 2 -93 41t-38 92zM315 293q0 -39 21 -74q16 -23 52 -48.5t104 -25.5q10 0 31.5 2.5t47 10.5t52 24.5t49.5 44.5q14 18 23.5 38t14.5 44.5t7 57t2 75.5v80 q-139 -23 -227.5 -47t-133.5 -72q-43 -47 -43 -110zM627 1335q0 55 39 93t94 38q53 0 91 -38.5t38 -92.5q0 -55 -39 -94t-92 -39q-55 2 -93 41t-38 92z" />
<glyph unicode="&#xe5;" horiz-adv-x="1077" d="M96 270q0 20 4 52t18.5 68t43 74t76.5 68q47 31 108.5 52.5t126 37t129 26.5t117.5 22v28q0 37 -2 55.5t-8 37.5q-18 53 -67.5 71.5t-100.5 18.5q-55 0 -92 -12.5t-60.5 -33t-35 -45t-15.5 -51.5h-207q8 59 20.5 93t26.5 57q37 61 95.5 95t117 49.5t104.5 17.5t58 2 q8 0 34.5 -1t62.5 -6.5t75 -16.5t74 -32q16 -10 48 -37.5t52 -78.5q14 -35 21.5 -90.5t5.5 -139.5v-403q0 -96 6 -149.5t26 -98.5h-196q-14 51 -16.5 74.5t-2.5 52.5q-14 -25 -36.5 -51.5t-57.5 -48t-84 -36t-114 -14.5q-14 0 -52.5 2.5t-84.5 14.5t-93 39.5t-80 81.5 q-14 20 -29.5 58t-15.5 97zM315 293q0 -39 21 -74q16 -23 52 -48.5t104 -25.5q10 0 31.5 2.5t47 10.5t52 24.5t49.5 44.5q14 18 23.5 38t14.5 44.5t7 57t2 75.5v80q-139 -23 -227.5 -47t-133.5 -72q-43 -47 -43 -110zM360 1364q0 43 16.5 81t44.5 65.5t66.5 44t81.5 16.5 t81 -16.5t65.5 -45t44 -66.5t16.5 -81t-16.5 -81t-45 -65.5t-66.5 -44t-81 -16.5t-80.5 16.5t-65.5 45t-44.5 66.5t-16.5 81zM463 1362q0 -45 30.5 -75t75.5 -30t75 31t30 76t-30 75.5t-77 30.5q-43 -2 -73.5 -31.5t-30.5 -76.5z" />
<glyph unicode="&#xe6;" horiz-adv-x="1728" d="M96 264q0 18 3 42t12.5 52.5t28 58t50.5 60.5q68 66 190 108t329 44v57q-2 53 -11.5 103.5t-64.5 76.5q-14 6 -38 13.5t-58 7.5q-12 0 -32 -2t-43.5 -10.5t-48 -24.5t-44.5 -47q-10 -12 -17.5 -30.5t-17.5 -49.5h-205q4 39 8 54.5t10 35.5q14 41 42 85t75 80t117 58.5 t168 22.5q35 0 65.5 -3t42.5 -5q74 -14 125.5 -48t89.5 -98q18 20 45 48t65 50.5t90 39t122 16.5q94 0 156.5 -26.5t91.5 -47.5q82 -57 123 -137t58 -157t18 -139.5t1 -82.5h-716q0 -25 1 -42t3 -28q10 -74 36.5 -117.5t47.5 -64.5q23 -23 73 -47.5t127 -24.5q68 0 108 20.5 t60 43.5q12 10 23.5 26.5t26.5 45.5l192 -13q-12 -43 -20 -61q-10 -23 -39 -69t-84 -87t-126 -60.5t-141 -19.5q-23 0 -65.5 4.5t-92.5 19.5t-104.5 48t-99.5 88q-8 10 -16.5 22.5t-22.5 36.5q-10 -23 -39 -69.5t-88 -87.5q-29 -18 -88 -40t-147 -22q-14 0 -51.5 2 t-83.5 15.5t-93 41t-82 76.5q-31 47 -38 91.5t-7 66.5zM315 274q0 -12 2 -25t7 -24q12 -29 49 -57.5t108 -28.5q10 0 30.5 2t44.5 9.5t48.5 22.5t46.5 42q41 47 48.5 101.5t9.5 113.5v41h-37t-73 -3t-88 -12.5t-85 -25.5q-47 -23 -79 -60.5t-32 -95.5zM936 627l479 2 q-4 29 -9 57.5t-15 56.5q-6 16 -20.5 41t-39 48.5t-60.5 40t-85 16.5q-55 0 -95 -19.5t-66 -46t-41 -53.5t-21 -41q-14 -35 -19.5 -61.5t-7.5 -40.5z" />
<glyph unicode="&#xe7;" horiz-adv-x="1044" d="M84 514q0 23 3 73t19 109q6 25 23.5 72t51.5 98.5t88.5 99.5t136.5 72q47 16 91 18.5t60 2.5q80 0 149.5 -23.5t129.5 -79.5q16 -16 38.5 -43.5t43.5 -74.5q12 -27 20 -57.5t16 -90.5h-211q-4 35 -17 73t-38 66q-16 18 -48 37t-89 19q-74 0 -122 -37t-75.5 -92.5 t-39 -121t-11.5 -122.5q0 -37 5 -79t16.5 -85t30 -81t46.5 -64q18 -16 54.5 -37t97.5 -21q68 0 106.5 27t58 62.5t27 71.5t9.5 54l207 -2q0 -4 -2.5 -27.5t-6.5 -45.5q-16 -66 -53 -130.5t-90 -105.5q-33 -25 -96.5 -51.5t-161.5 -26.5q-53 0 -106.5 11.5t-100.5 35.5 q-72 35 -121 89.5t-79.5 120t-45 139t-14.5 147.5zM410 -401q35 -16 70.5 -28.5t72.5 -12.5q6 0 21.5 1t31.5 9q25 8 40.5 24.5t22.5 33t9 31.5t2 24q0 18 -7 40.5t-23.5 41t-45.5 30.5t-74 12h-24t-37 -4l70 199h141l-45 -125q23 -4 43 -9t43 -16q14 -6 36.5 -18t44 -35.5 t36 -56.5t14.5 -78q0 -53 -20.5 -95t-54.5 -72t-79 -46t-94 -16q-35 0 -65.5 7t-56 17.5t-45 20.5t-27.5 14v107z" />
<glyph unicode="&#xe8;" horiz-adv-x="1087" d="M84 502q0 70 9 121t16 77q45 166 159.5 262.5t290.5 96.5q72 0 135.5 -19.5t120.5 -62.5q78 -59 117 -138t55.5 -154t16.5 -135.5v-80.5l-705 -2q2 -47 9 -88t28 -86q23 -51 55.5 -80t66.5 -43t64.5 -18.5t50.5 -4.5q72 0 115 26t64 48q16 16 25 35.5t14 26.5l190 -15 q-41 -147 -151.5 -222t-262.5 -75q-20 0 -57 3t-81 15.5t-93 36t-94 64.5q-27 25 -54.5 60.5t-51 86t-38 116t-14.5 149.5zM195 1473h276l252 -328h-166zM305 629h481q-2 10 -5 33.5t-11 52.5q-6 18 -18.5 48t-37 57.5t-63.5 48t-98 20.5q-78 0 -125 -36t-72.5 -80t-37 -87 t-13.5 -57z" />
<glyph unicode="&#xe9;" horiz-adv-x="1087" d="M84 502q0 70 9 121t16 77q45 166 159.5 262.5t290.5 96.5q72 0 135.5 -19.5t120.5 -62.5q78 -59 117 -138t55.5 -154t16.5 -135.5v-80.5l-705 -2q2 -47 9 -88t28 -86q23 -51 55.5 -80t66.5 -43t64.5 -18.5t50.5 -4.5q72 0 115 26t64 48q16 16 25 35.5t14 26.5l190 -15 q-41 -147 -151.5 -222t-262.5 -75q-20 0 -57 3t-81 15.5t-93 36t-94 64.5q-27 25 -54.5 60.5t-51 86t-38 116t-14.5 149.5zM305 629h481q-2 10 -5 33.5t-11 52.5q-6 18 -18.5 48t-37 57.5t-63.5 48t-98 20.5q-78 0 -125 -36t-72.5 -80t-37 -87t-13.5 -57zM422 1145l252 328 h278l-364 -328h-166z" />
<glyph unicode="&#xea;" horiz-adv-x="1087" d="M84 502q0 70 9 121t16 77q45 166 159.5 262.5t290.5 96.5q72 0 135.5 -19.5t120.5 -62.5q78 -59 117 -138t55.5 -154t16.5 -135.5v-80.5l-705 -2q2 -47 9 -88t28 -86q23 -51 55.5 -80t66.5 -43t64.5 -18.5t50.5 -4.5q72 0 115 26t64 48q16 16 25 35.5t14 26.5l190 -15 q-41 -147 -151.5 -222t-262.5 -75q-20 0 -57 3t-81 15.5t-93 36t-94 64.5q-27 25 -54.5 60.5t-51 86t-38 116t-14.5 149.5zM203 1161l254 316h196l254 -316h-196l-156 195l-154 -195h-198zM305 629h481q-2 10 -5 33.5t-11 52.5q-6 18 -18.5 48t-37 57.5t-63.5 48t-98 20.5 q-78 0 -125 -36t-72.5 -80t-37 -87t-13.5 -57z" />
<glyph unicode="&#xeb;" horiz-adv-x="1087" d="M84 502q0 70 9 121t16 77q45 166 159.5 262.5t290.5 96.5q72 0 135.5 -19.5t120.5 -62.5q78 -59 117 -138t55.5 -154t16.5 -135.5v-80.5l-705 -2q2 -47 9 -88t28 -86q23 -51 55.5 -80t66.5 -43t64.5 -18.5t50.5 -4.5q72 0 115 26t64 48q16 16 25 35.5t14 26.5l190 -15 q-41 -147 -151.5 -222t-262.5 -75q-20 0 -57 3t-81 15.5t-93 36t-94 64.5q-27 25 -54.5 60.5t-51 86t-38 116t-14.5 149.5zM190 1335q0 55 40.5 93t93.5 38t92 -38.5t39 -92.5q0 -55 -40 -94t-93 -39q-55 2 -93.5 41t-38.5 92zM305 629h481q-2 10 -5 33.5t-11 52.5 q-6 18 -18.5 48t-37 57.5t-63.5 48t-98 20.5q-78 0 -125 -36t-72.5 -80t-37 -87t-13.5 -57zM633 1335q0 55 40 93t93 38t92 -38.5t39 -92.5q0 -55 -39 -94t-94 -39q-55 2 -93 41t-38 92z" />
<glyph unicode="&#xec;" horiz-adv-x="522" d="M-100 1473h278l252 -328h-166zM152 0v1030h219v-1030h-219z" />
<glyph unicode="&#xed;" horiz-adv-x="522" d="M129 1145l252 328h276l-362 -328h-166zM152 0v1030h219v-1030h-219z" />
<glyph unicode="&#xee;" horiz-adv-x="522" d="M-92 1161l256 316h196l254 -316h-196l-156 195l-153 -195h-201zM152 0v1030h219v-1030h-219z" />
<glyph unicode="&#xef;" horiz-adv-x="522" d="M-92 1335q0 55 40 93t93 38t92 -38.5t39 -92.5q0 -55 -40 -94t-93 -39q-55 2 -93 41t-38 92zM152 0v1030h219v-1030h-219zM350 1335q0 55 40 93t93 38t92 -38.5t39 -92.5q0 -55 -38.5 -94t-94.5 -39q-55 2 -93 41t-38 92z" />
<glyph unicode="&#xf1;" horiz-adv-x="1140" d="M123 1030h207q10 -31 14 -57.5t6 -81.5q6 8 12.5 16t12.5 17q14 18 38.5 39.5t59.5 42t81 34t105 13.5q10 0 33 -1t51.5 -7.5t61.5 -18.5t63 -33q51 -37 78 -84t37 -99t11 -107.5t1 -108.5v-594h-213v557q0 90 -4 138t-26 87q-16 29 -47 52q-23 16 -50.5 23t-56.5 7 q-43 0 -74.5 -11t-55.5 -27.5t-39 -35t-23 -30.5q-23 -39 -31 -82t-10 -129v-549h-213v670v170.5t-11 111.5q-6 41 -18 78zM242 1210q12 59 24 86q2 8 13.5 31t32 47.5t50 44t72.5 19.5q41 0 87 -20.5t81 -37.5q68 -35 103 -34q35 0 57 23.5t45 80.5l96 -25q-4 -12 -7 -32.5 t-13 -49.5q-31 -90 -80 -121.5t-92 -31.5q-20 0 -46 7t-50.5 17.5t-48 20.5t-42.5 18q-63 29 -90 29q-41 0 -61.5 -32.5t-30.5 -67.5z" />
<glyph unicode="&#xf2;" horiz-adv-x="1130" d="M84 514q0 72 14.5 142.5t45 134t76.5 117t112 89.5q29 16 88 39t145 23q29 0 86.5 -7.5t124.5 -41.5q70 -35 121 -89.5t85 -120t49.5 -139t15.5 -147.5t-15.5 -146.5t-47.5 -137t-82 -118t-118 -87.5q-70 -35 -130 -44.5t-89 -9.5q-27 0 -83 7.5t-122 39.5 q-72 33 -124 87.5t-85.5 120t-50 139t-16.5 149.5zM205 1473h276l252 -328h-166zM303 512q0 -12 2 -47t12.5 -80t32 -93t62.5 -85q18 -16 55 -39t98 -21q16 0 47 4.5t66 24.5q55 33 86 86t45 105.5t16 94.5t2 52q0 12 -2 50t-13 87t-36.5 99.5t-73.5 87.5q-59 47 -137 47 q-16 0 -44.5 -4t-63.5 -23q-57 -33 -105.5 -116t-48.5 -230z" />
<glyph unicode="&#xf3;" horiz-adv-x="1130" d="M84 514q0 72 14.5 142.5t45 134t76.5 117t112 89.5q29 16 88 39t145 23q29 0 86.5 -7.5t124.5 -41.5q70 -35 121 -89.5t85 -120t49.5 -139t15.5 -147.5t-15.5 -146.5t-47.5 -137t-82 -118t-118 -87.5q-70 -35 -130 -44.5t-89 -9.5q-27 0 -83 7.5t-122 39.5 q-72 33 -124 87.5t-85.5 120t-50 139t-16.5 149.5zM303 512q0 -12 2 -47t12.5 -80t32 -93t62.5 -85q18 -16 55 -39t98 -21q16 0 47 4.5t66 24.5q55 33 86 86t45 105.5t16 94.5t2 52q0 12 -2 50t-13 87t-36.5 99.5t-73.5 87.5q-59 47 -137 47q-16 0 -44.5 -4t-63.5 -23 q-57 -33 -105.5 -116t-48.5 -230zM432 1145l252 328h279l-363 -328h-168z" />
<glyph unicode="&#xf4;" horiz-adv-x="1130" d="M84 514q0 72 14.5 142.5t45 134t76.5 117t112 89.5q29 16 88 39t145 23q29 0 86.5 -7.5t124.5 -41.5q70 -35 121 -89.5t85 -120t49.5 -139t15.5 -147.5t-15.5 -146.5t-47.5 -137t-82 -118t-118 -87.5q-70 -35 -130 -44.5t-89 -9.5q-27 0 -83 7.5t-122 39.5 q-72 33 -124 87.5t-85.5 120t-50 139t-16.5 149.5zM213 1161l254 316h197l254 -316h-197l-156 195l-153 -195h-199zM303 512q0 -12 2 -47t12.5 -80t32 -93t62.5 -85q18 -16 55 -39t98 -21q16 0 47 4.5t66 24.5q55 33 86 86t45 105.5t16 94.5t2 52q0 12 -2 50t-13 87 t-36.5 99.5t-73.5 87.5q-59 47 -137 47q-16 0 -44.5 -4t-63.5 -23q-57 -33 -105.5 -116t-48.5 -230z" />
<glyph unicode="&#xf5;" horiz-adv-x="1130" d="M84 514q0 72 14.5 142.5t45 134t76.5 117t112 89.5q29 16 88 39t145 23q29 0 86.5 -7.5t124.5 -41.5q70 -35 121 -89.5t85 -120t49.5 -139t15.5 -147.5t-15.5 -146.5t-47.5 -137t-82 -118t-118 -87.5q-70 -35 -130 -44.5t-89 -9.5q-27 0 -83 7.5t-122 39.5 q-72 33 -124 87.5t-85.5 120t-50 139t-16.5 149.5zM236 1210q8 33 14 53.5t10 32.5q2 8 13.5 31t32 47.5t51 44t71.5 19.5t87 -20.5t81 -37.5q70 -35 102 -34q35 0 58.5 23.5t46.5 80.5l94 -25q-2 -12 -6 -32.5t-14 -49.5q-31 -90 -79 -121.5t-93 -31.5q-41 0 -95.5 23.5 t-91.5 39.5q-63 29 -88 29q-41 0 -62.5 -32.5t-31.5 -67.5zM303 512q0 -12 2 -47t12.5 -80t32 -93t62.5 -85q18 -16 55 -39t98 -21q16 0 47 4.5t66 24.5q55 33 86 86t45 105.5t16 94.5t2 52q0 12 -2 50t-13 87t-36.5 99.5t-73.5 87.5q-59 47 -137 47q-16 0 -44.5 -4 t-63.5 -23q-57 -33 -105.5 -116t-48.5 -230z" />
<glyph unicode="&#xf6;" horiz-adv-x="1130" d="M84 514q0 72 14.5 142.5t45 134t76.5 117t112 89.5q29 16 88 39t145 23q29 0 86.5 -7.5t124.5 -41.5q70 -35 121 -89.5t85 -120t49.5 -139t15.5 -147.5t-15.5 -146.5t-47.5 -137t-82 -118t-118 -87.5q-70 -35 -130 -44.5t-89 -9.5q-27 0 -83 7.5t-122 39.5 q-72 33 -124 87.5t-85.5 120t-50 139t-16.5 149.5zM213 1335q0 55 39 93t92 38t92 -38.5t39 -92.5q0 -55 -39 -94t-92 -39q-55 2 -93 41t-38 92zM303 512q0 -12 2 -47t12.5 -80t32 -93t62.5 -85q18 -16 55 -39t98 -21q16 0 47 4.5t66 24.5q55 33 86 86t45 105.5t16 94.5 t2 52q0 12 -2 50t-13 87t-36.5 99.5t-73.5 87.5q-59 47 -137 47q-16 0 -44.5 -4t-63.5 -23q-57 -33 -105.5 -116t-48.5 -230zM655 1335q0 6 1 21.5t10 32.5q4 8 13 21t23.5 25.5t34.5 21.5t49 9q55 0 94.5 -38.5t39.5 -92.5q-2 -55 -41 -94t-93 -39q-55 2 -93 41t-38 92z " />
<glyph unicode="&#xf7;" horiz-adv-x="1024" d="M0 514v162h1024v-162h-1024zM399 297q0 49 34 83t81 34q49 0 83 -34t34 -83q-2 -49 -36 -82t-81 -31q-49 0 -82 33t-33 80zM399 891q0 49 34 83t83 34q47 -2 81 -35t34 -84q-2 -47 -36 -80t-81 -33q-49 2 -82 34t-33 81z" />
<glyph unicode="&#xf8;" horiz-adv-x="1130" d="M27 0l155 170q-8 10 -15 21.5t-13 23.5q-25 45 -39.5 90t-20.5 85t-8 71t-2 49q0 131 35 218t65 130q45 68 100.5 107t108.5 60.5t98.5 27.5t73.5 6q31 0 100.5 -11.5t143.5 -56.5q29 -16 42 -27.5t28 -23.5l82 90h143l-156 -170q6 -10 12.5 -17t10.5 -18 q23 -39 49.5 -116.5t26.5 -192.5q0 -72 -11.5 -129t-29 -103t-38 -80t-38.5 -57q-47 -59 -100.5 -94t-103.5 -53t-94 -23.5t-69 -5.5q-14 0 -38.5 2t-56.5 8.5t-67.5 18.5t-72.5 35q-25 14 -39.5 25.5t-36.5 27.5l-80 -88h-145zM303 512q0 -45 4 -75.5t8 -47.5 q4 -16 8.5 -29.5t8.5 -27.5l411 465q-12 16 -24 28q-16 14 -56 37t-98 23q-16 0 -51 -6.5t-74 -32.5q-39 -27 -64.5 -66t-42 -84t-23.5 -93t-7 -91zM387 231q10 -12 11 -14t14 -12q16 -16 55 -38t98 -22q16 0 48 5.5t67 27.5q53 33 100 116t47 224q0 68 -10 112t-20 68z" />
<glyph unicode="&#xf9;" horiz-adv-x="1140" d="M145 416v614h213v-608q2 -51 3 -81t10 -52q6 -18 17 -40t32.5 -40.5t53.5 -30.5t77 -12q20 0 58 6t79 39q61 49 74.5 115.5t13.5 138.5v565h213v-715q0 -88 1 -137t5 -92q4 -31 10.5 -53.5t10.5 -32.5h-205q-6 18 -12 49t-11 78q-4 -8 -19 -29.5t-38 -44.5 q-29 -25 -82 -50.5t-141 -25.5q-66 0 -116 14.5t-87 36t-61.5 47t-38.5 48.5q-45 66 -52.5 141.5t-7.5 151.5zM209 1473h278l252 -328h-166z" />
<glyph unicode="&#xfa;" horiz-adv-x="1140" d="M145 416v614h213v-608q2 -51 3 -81t10 -52q6 -18 17 -40t32.5 -40.5t53.5 -30.5t77 -12q20 0 58 6t79 39q61 49 74.5 115.5t13.5 138.5v565h213v-715q0 -88 1 -137t5 -92q4 -31 10.5 -53.5t10.5 -32.5h-205q-6 18 -12 49t-11 78q-4 -8 -19 -29.5t-38 -44.5 q-29 -25 -82 -50.5t-141 -25.5q-66 0 -116 14.5t-87 36t-61.5 47t-38.5 48.5q-45 66 -52.5 141.5t-7.5 151.5zM438 1145l252 328h277l-363 -328h-166z" />
<glyph unicode="&#xfb;" horiz-adv-x="1140" d="M145 416v614h213v-608q2 -51 3 -81t10 -52q6 -18 17 -40t32.5 -40.5t53.5 -30.5t77 -12q20 0 58 6t79 39q61 49 74.5 115.5t13.5 138.5v565h213v-715q0 -88 1 -137t5 -92q4 -31 10.5 -53.5t10.5 -32.5h-205q-6 18 -12 49t-11 78q-4 -8 -19 -29.5t-38 -44.5 q-29 -25 -82 -50.5t-141 -25.5q-66 0 -116 14.5t-87 36t-61.5 47t-38.5 48.5q-45 66 -52.5 141.5t-7.5 151.5zM217 1161l256 316h197l254 -316h-197l-156 195l-153 -195h-201z" />
<glyph unicode="&#xfc;" horiz-adv-x="1140" d="M145 416v614h213v-608q2 -51 3 -81t10 -52q6 -18 17 -40t32.5 -40.5t53.5 -30.5t77 -12q20 0 58 6t79 39q61 49 74.5 115.5t13.5 138.5v565h213v-715q0 -88 1 -137t5 -92q4 -31 10.5 -53.5t10.5 -32.5h-205q-6 18 -12 49t-11 78q-4 -8 -19 -29.5t-38 -44.5 q-29 -25 -82 -50.5t-141 -25.5q-66 0 -116 14.5t-87 36t-61.5 47t-38.5 48.5q-45 66 -52.5 141.5t-7.5 151.5zM215 1335q0 55 40 93t93 38t92 -38.5t39 -92.5q0 -55 -39 -94t-92 -39q-57 2 -95 41t-38 92zM657 1335q2 55 41.5 93t92.5 38t92 -38.5t39 -92.5q0 -55 -39 -94 t-92 -39q-57 2 -95.5 41t-38.5 92z" />
<glyph unicode="&#xff;" horiz-adv-x="1024" d="M37 1030h227l252 -819l262 819h221l-344 -981q-6 -23 -13 -42t-15 -42q-20 -59 -40 -103t-38.5 -78t-37.5 -59.5t-42 -46.5q-45 -41 -124 -76.5t-214 -35.5h-34.5t-35.5 2v186q53 -2 117 4t111 39q37 25 58.5 61t49.5 113zM160 1335q0 55 39 93t92 38t92 -38.5t39 -92.5 q0 -55 -39 -94t-92 -39q-55 2 -93 41t-38 92zM602 1335q0 55 39 93t92 38q55 0 94 -38.5t37 -92.5q0 -55 -39 -94t-92 -39q-55 2 -93 41t-38 92z" />
<glyph unicode="&#x152;" horiz-adv-x="2058" d="M94 717q0 18 1 60t8.5 98.5t23.5 122t47 131t78 127t115 110.5q55 39 108 60.5t101.5 31.5t86 12.5t62.5 2.5q129 0 206 -35t120 -70q14 -10 25 -22.5t34 -36.5v137h854v-191h-631v-409h580v-193h-580v-460h649v-193h-872v137q-10 -12 -21.5 -24.5t-25.5 -22.5 q-43 -39 -124 -78t-216 -39q-33 0 -104.5 7.5t-157.5 48.5q-63 29 -129 81t-118 135t-86 198.5t-34 273.5zM330 721q0 -55 6 -117.5t22.5 -123t44 -116t70.5 -98.5q14 -14 35.5 -31.5t52.5 -33t71 -25.5t89 -10q23 0 73 7t105 40q63 39 104 98.5t65 129t33 143t9 139.5 q0 14 -2 68.5t-16.5 125t-47 145.5t-92.5 130q-29 27 -84 57.5t-149 30.5q-27 0 -79 -8t-112 -47q-78 -51 -117.5 -131t-58 -159t-20.5 -140.5t-2 -73.5z" />
<glyph unicode="&#x153;" horiz-adv-x="1824" d="M82 518q0 29 5 85t30 128q51 152 171 240t281 88q82 0 159 -27.5t136 -87.5q25 -29 41.5 -53.5t22.5 -34.5q18 25 47 59.5t72 66.5t104 54.5t145 22.5q14 0 42 -2t62 -10.5t72.5 -23.5t75.5 -42q31 -23 65 -62.5t62.5 -97t47 -132.5t18.5 -169v-57h-715q0 -12 2 -43 t10 -66q18 -72 53 -112.5t75 -62t78 -28t65 -6.5q12 0 36.5 2.5t54.5 11.5t59.5 29.5t51.5 55.5q8 12 11.5 18t7.5 21l192 -15q-10 -33 -22 -61.5t-31 -59.5q-41 -61 -94 -97t-104.5 -53t-95.5 -21.5t-66 -4.5q-59 0 -108.5 11.5t-87.5 27t-64.5 33.5t-44.5 35 q-33 29 -50.5 52.5t-27.5 37.5q-18 -25 -46 -58.5t-70 -64.5t-101.5 -52.5t-139.5 -21.5q-27 0 -65.5 4.5t-83.5 18.5t-95.5 44t-97.5 81q-53 55 -81.5 115.5t-43 114.5t-17.5 98.5t-3 70.5zM301 516q0 -98 23.5 -169t61.5 -116t85 -65.5t94 -20.5q61 0 115 33q53 35 97 116 t44 220q0 12 -1 49t-12 84t-34.5 96.5t-66.5 87.5q-64 54 -146 54q-31 0 -55.5 -6.5t-50.5 -20.5q-29 -16 -55.5 -45t-49 -71t-36 -98t-13.5 -128zM1034 616l488 2q-8 80 -32 132.5t-56.5 83t-71.5 43t-78 12.5q-80 0 -128 -37t-73.5 -85t-36 -92t-12.5 -59z" />
<glyph unicode="&#x178;" horiz-adv-x="1173" d="M14 1446h252l324 -623l319 623h250l-461 -858v-588h-223v588zM246 1716q0 29 10 53q4 10 14.5 25.5t26.5 29t38.5 24t53.5 10.5q59 0 100 -42t41 -102q0 -59 -40.5 -100t-100.5 -41q-59 0 -101 42t-42 101zM643 1716q0 59 41 100.5t102 41.5q59 0 100.5 -42t41.5 -102 q0 -59 -42 -100t-102 -41q-59 0 -100 42t-41 101z" />
<glyph unicode="&#x2c6;" horiz-adv-x="598" d="M-246 1161l254 316h197l254 -316h-197l-156 195l-153 -195h-199z" />
<glyph unicode="&#x2dc;" horiz-adv-x="598" d="M-223 1210q8 33 14 53.5t10 32.5q2 8 13.5 31t32 47.5t51 44t71.5 19.5t87 -20.5t81 -37.5q70 -35 103 -34q35 0 58.5 23.5t45.5 80.5l94 -25q-2 -12 -6 -32.5t-14 -49.5q-31 -90 -79 -121.5t-93 -31.5q-41 0 -95.5 23.5t-91.5 39.5q-63 29 -88 29q-41 0 -62.5 -32.5 t-31.5 -67.5z" />
<glyph unicode="&#x2000;" horiz-adv-x="971" />
<glyph unicode="&#x2001;" horiz-adv-x="1942" />
<glyph unicode="&#x2002;" horiz-adv-x="971" />
<glyph unicode="&#x2003;" horiz-adv-x="1942" />
<glyph unicode="&#x2004;" horiz-adv-x="647" />
<glyph unicode="&#x2005;" horiz-adv-x="485" />
<glyph unicode="&#x2006;" horiz-adv-x="323" />
<glyph unicode="&#x2007;" horiz-adv-x="323" />
<glyph unicode="&#x2008;" horiz-adv-x="242" />
<glyph unicode="&#x2009;" horiz-adv-x="388" />
<glyph unicode="&#x200a;" horiz-adv-x="107" />
<glyph unicode="&#x2010;" horiz-adv-x="575" d="M-2 467v160h580v-160h-580z" />
<glyph unicode="&#x2011;" horiz-adv-x="575" d="M-2 467v160h580v-160h-580z" />
<glyph unicode="&#x2012;" horiz-adv-x="575" d="M-2 467v160h580v-160h-580z" />
<glyph unicode="&#x2013;" horiz-adv-x="1087" d="M123 467v160h842v-160h-842z" />
<glyph unicode="&#x2014;" d="M111 643v164h983v-164h-983z" />
<glyph unicode="&#x2018;" horiz-adv-x="458" d="M102 1145q0 63 32 142t120 186h127q-55 -63 -83 -118t-38 -89q0 -4 -2 -16.5t-4 -26.5q8 -2 24.5 -3t34.5 -10q37 -14 56.5 -43.5t19.5 -68.5q0 -59 -42 -96t-97 -37q-23 0 -48.5 8t-48 29.5t-37 55.5t-14.5 87z" />
<glyph unicode="&#x2019;" horiz-adv-x="458" d="M70 1341q0 57 41 94.5t98 37.5q20 0 46 -8.5t48.5 -29t37.5 -55t15 -86.5q0 -66 -31.5 -144.5t-119.5 -184.5h-127q70 78 95.5 140t31.5 109q-8 2 -24.5 3.5t-35.5 9.5q-25 10 -40 25.5t-23 33t-10 31.5t-2 24z" />
<glyph unicode="&#x201a;" horiz-adv-x="532" d="M61 -410q31 33 50 64q35 49 68.5 120.5t49.5 131.5q6 23 8.5 40t6.5 56q-8 0 -21.5 2t-32.5 8q-31 8 -48 25.5t-27.5 36t-13.5 36t-3 27.5q0 18 4 33.5t7 19.5q12 31 32.5 49.5t42 27.5t40 12.5t28.5 3.5q29 0 49.5 -9.5t28.5 -13.5q31 -18 55.5 -60t24.5 -120 q0 -20 -2 -48t-13 -69q-25 -104 -79 -195.5t-117 -177.5h-138z" />
<glyph unicode="&#x201c;" horiz-adv-x="811" d="M100 1145q0 63 32 142t120 186h127q-55 -63 -83 -118t-38 -89q0 -4 -2 -16.5t-4 -26.5q8 -2 23.5 -3t35.5 -10q35 -14 55.5 -43.5t20.5 -68.5q0 -59 -42 -96t-99 -37q-23 0 -48.5 8t-47 29.5t-36 55.5t-14.5 87zM457 1145q0 63 32.5 143t118.5 185h127q-16 -18 -40.5 -51 t-51.5 -87q-10 -18 -16 -33.5t-11 -35.5q-4 -8 -5 -22.5t-3 -20.5q8 -2 24.5 -3t35.5 -10q37 -14 56 -43.5t19 -68.5q0 -59 -42 -96t-99 -37q-23 0 -47.5 8t-47 29.5t-36.5 55.5t-14 87z" />
<glyph unicode="&#x201d;" horiz-adv-x="821" d="M68 1339q0 57 39.5 95.5t99.5 38.5q23 0 48.5 -8.5t47 -29t35.5 -55t14 -88.5q0 -66 -30.5 -143.5t-118.5 -183.5h-129l17 17t15 17q37 47 57.5 92.5t26.5 65.5q4 10 6.5 22.5t6.5 34.5q-8 0 -22.5 2.5t-30 7.5t-32 15t-30.5 31q-20 33 -20 69zM434 1339q0 59 41 96.5 t98 37.5q20 0 47 -8.5t48.5 -29t37 -55t15.5 -88.5q0 -66 -32 -143.5t-120 -183.5h-127q16 18 41 51t52 86q10 18 16 33.5t12 35.5q2 8 4 22.5t2 20.5q-4 0 -18 2.5t-31 6.5q-29 8 -45 24.5t-25.5 33.5t-12.5 32.5t-3 25.5z" />
<glyph unicode="&#x201e;" horiz-adv-x="821" d="M68 127q0 29 12 57q12 25 30.5 40.5t37 23.5t35 10t26.5 2q23 0 47.5 -9t46 -29.5t35.5 -55.5t14 -86q0 -66 -30.5 -143.5t-118.5 -186.5h-129q8 10 15 16.5t13 16.5q25 31 50.5 77t37.5 83q4 12 6.5 24.5t6.5 34.5q-4 0 -26.5 2t-43.5 12q-31 16 -48 46t-17 65zM434 127 q0 57 41 95t100 38q20 0 46 -8t47.5 -29.5t37 -56.5t15.5 -86q0 -66 -32 -144.5t-120 -185.5h-127q53 59 81 113.5t36 83.5q4 16 6 27.5t4 27.5q-35 2 -64.5 13.5t-49.5 41.5q-20 29 -21 70z" />
<glyph unicode="&#x2022;" horiz-adv-x="681" d="M74 723q0 14 3 38.5t17 59.5q33 78 100.5 123t151.5 45q55 0 103.5 -20.5t83 -56t55 -85t20.5 -104.5q0 -41 -8 -68.5t-14 -44.5q-8 -18 -25.5 -44.5t-46.5 -50t-70 -41t-98 -17.5q-55 0 -104 20.5t-87 55t-59.5 84t-21.5 106.5z" />
<glyph unicode="&#x2026;" horiz-adv-x="2048" d="M225 104q0 4 2 17.5t6 25.5q14 33 44 52.5t67 19.5q47 0 80 -34t33 -81t-33 -81.5t-82 -34.5t-83 33.5t-34 82.5zM909 104q0 6 1 18.5t8 27.5q14 33 43.5 51t64.5 18q47 0 81 -34t34 -81t-33 -81.5t-84 -34.5q-47 0 -81 33.5t-34 82.5zM1591 104q0 47 35 81t82 34 q49 0 82 -34t33 -81t-33 -81.5t-82 -34.5t-83 33.5t-34 82.5z" />
<glyph unicode="&#x202f;" horiz-adv-x="388" />
<glyph unicode="&#x205f;" horiz-adv-x="485" />
<glyph unicode="&#x2122;" horiz-adv-x="1409" d="M33 1346v100h553v-100h-213v-580h-121v580h-219zM643 766v680h162l170 -537l166 537h162v-680h-117l4 422q0 70 6 137q-8 -29 -16.5 -57.5t-18.5 -57.5l-137 -444h-104l-140 446q-10 29 -17 55.5t-18 55.5q4 -35 6.5 -67.5t2.5 -67.5l6 -422h-117z" />
<glyph unicode="&#x25fc;" horiz-adv-x="1034" d="M0 0v1034h1034v-1034h-1034z" />
</font>
</defs>
</svg>
